<svg xmlns="http://www.w3.org/2000/svg" width="1600" height="1150" viewBox="0 0 1600 1150">
<rect width="100%" height="100%" fill="white"/>
<text x="70.000" y="38.000" font-family="Arial, Helvetica, sans-serif" font-size="28" font-weight="bold" fill="#111">Lab 007 — Generated Structured C3D8 Mesh Preview</text>
<text x="70.000" y="66.000" font-family="Arial, Helvetica, sans-serif" font-size="16" font-weight="normal" fill="#444">Preview generated from structured_hex_nodes.csv</text>
<rect x="70.000" y="100.000" width="1460.000" height="470.000" stroke="#999" stroke-width="1.2" fill="none"/>
<rect x="70.000" y="640.000" width="980.000" height="210.000" stroke="#999" stroke-width="1.2" fill="none"/>
<rect x="1150.000" y="640.000" width="320.000" height="320.000" stroke="#999" stroke-width="1.2" fill="none"/>
<text x="80.000" y="128.000" font-family="Arial, Helvetica, sans-serif" font-size="20" font-weight="bold" fill="#111">XY view at z = 0</text>
<text x="80.000" y="668.000" font-family="Arial, Helvetica, sans-serif" font-size="20" font-weight="bold" fill="#111">XZ view at y = 0, z display x6</text>
<text x="1160.000" y="668.000" font-family="Arial, Helvetica, sans-serif" font-size="20" font-weight="bold" fill="#111">YZ section at x = 0, true aspect</text>
<polyline points="110.000,535.000 110.000,503.333 110.000,471.667 110.000,440.000 110.000,408.333 110.000,376.667 110.000,345.000 110.000,313.333 110.000,281.667 110.000,250.000 110.000,218.333 110.000,186.667 110.000,155.000" fill="none" stroke="#9bbbe0" stroke-width="0.75" opacity="0.95"/>
<polyline points="126.047,535.000 126.047,503.333 126.047,471.667 126.047,440.000 126.047,408.333 126.047,376.667 126.047,345.000 126.047,313.333 126.047,281.667 126.047,250.000 126.047,218.333 126.047,186.667 126.047,155.000" fill="none" stroke="#9bbbe0" stroke-width="0.75" opacity="0.95"/>
<polyline points="142.093,535.000 142.093,503.333 142.093,471.667 142.093,440.000 142.093,408.333 142.093,376.667 142.093,345.000 142.093,313.333 142.093,281.667 142.093,250.000 142.093,218.333 142.093,186.667 142.093,155.000" fill="none" stroke="#9bbbe0" stroke-width="0.75" opacity="0.95"/>
<polyline points="158.140,535.000 158.140,503.333 158.140,471.667 158.140,440.000 158.140,408.333 158.140,376.667 158.140,345.000 158.140,313.333 158.140,281.667 158.140,250.000 158.140,218.333 158.140,186.667 158.140,155.000" fill="none" stroke="#9bbbe0" stroke-width="0.75" opacity="0.95"/>
<polyline points="174.186,535.000 174.186,503.333 174.186,471.667 174.186,440.000 174.186,408.333 174.186,376.667 174.186,345.000 174.186,313.333 174.186,281.667 174.186,250.000 174.186,218.333 174.186,186.667 174.186,155.000" fill="none" stroke="#9bbbe0" stroke-width="0.75" opacity="0.95"/>
<polyline points="190.233,535.000 190.233,503.333 190.233,471.667 190.233,440.000 190.233,408.333 190.233,376.667 190.233,345.000 190.233,313.333 190.233,281.667 190.233,250.000 190.233,218.333 190.233,186.667 190.233,155.000" fill="none" stroke="#9bbbe0" stroke-width="0.75" opacity="0.95"/>
<polyline points="206.279,535.000 206.279,503.333 206.279,471.667 206.279,440.000 206.279,408.333 206.279,376.667 206.279,345.000 206.279,313.333 206.279,281.667 206.279,250.000 206.279,218.333 206.279,186.667 206.279,155.000" fill="none" stroke="#9bbbe0" stroke-width="0.75" opacity="0.95"/>
<polyline points="222.326,535.000 222.326,503.333 222.326,471.667 222.326,440.000 222.326,408.333 222.326,376.667 222.326,345.000 222.326,313.333 222.326,281.667 222.326,250.000 222.326,218.333 222.326,186.667 222.326,155.000" fill="none" stroke="#9bbbe0" stroke-width="0.75" opacity="0.95"/>
<polyline points="238.372,535.000 238.372,503.333 238.372,471.667 238.372,440.000 238.372,408.333 238.372,376.667 238.372,345.000 238.372,313.333 238.372,281.667 238.372,250.000 238.372,218.333 238.372,186.667 238.372,155.000" fill="none" stroke="#9bbbe0" stroke-width="0.75" opacity="0.95"/>
<polyline points="254.419,535.000 254.419,503.333 254.419,471.667 254.419,440.000 254.419,408.333 254.419,376.667 254.419,345.000 254.419,313.333 254.419,281.667 254.419,250.000 254.419,218.333 254.419,186.667 254.419,155.000" fill="none" stroke="#9bbbe0" stroke-width="0.75" opacity="0.95"/>
<polyline points="270.465,535.000 270.465,503.333 270.465,471.667 270.465,440.000 270.465,408.333 270.465,376.667 270.465,345.000 270.465,313.333 270.465,281.667 270.465,250.000 270.465,218.333 270.465,186.667 270.465,155.000" fill="none" stroke="#9bbbe0" stroke-width="0.75" opacity="0.95"/>
<polyline points="286.512,535.000 286.512,503.333 286.512,471.667 286.512,440.000 286.512,408.333 286.512,376.667 286.512,345.000 286.512,313.333 286.512,281.667 286.512,250.000 286.512,218.333 286.512,186.667 286.512,155.000" fill="none" stroke="#9bbbe0" stroke-width="0.75" opacity="0.95"/>
<polyline points="302.558,535.000 302.558,503.333 302.558,471.667 302.558,440.000 302.558,408.333 302.558,376.667 302.558,345.000 302.558,313.333 302.558,281.667 302.558,250.000 302.558,218.333 302.558,186.667 302.558,155.000" fill="none" stroke="#9bbbe0" stroke-width="0.75" opacity="0.95"/>
<polyline points="318.605,535.000 318.605,503.333 318.605,471.667 318.605,440.000 318.605,408.333 318.605,376.667 318.605,345.000 318.605,313.333 318.605,281.667 318.605,250.000 318.605,218.333 318.605,186.667 318.605,155.000" fill="none" stroke="#9bbbe0" stroke-width="0.75" opacity="0.95"/>
<polyline points="334.651,535.000 334.651,503.333 334.651,471.667 334.651,440.000 334.651,408.333 334.651,376.667 334.651,345.000 334.651,313.333 334.651,281.667 334.651,250.000 334.651,218.333 334.651,186.667 334.651,155.000" fill="none" stroke="#9bbbe0" stroke-width="0.75" opacity="0.95"/>
<polyline points="345.884,534.311 345.884,502.759 345.884,471.207 345.884,439.656 345.884,408.104 345.884,376.552 345.884,345.000 345.884,313.448 345.884,281.896 345.884,250.344 345.884,218.793 345.884,187.241 345.884,155.689" fill="none" stroke="#9bbbe0" stroke-width="0.75" opacity="0.95"/>
<polyline points="357.116,532.340 357.116,501.117 357.116,469.893 357.116,438.670 357.116,407.447 357.116,376.223 357.116,345.000 357.116,313.777 357.116,282.553 357.116,251.330 357.116,220.107 357.116,188.883 357.116,157.660" fill="none" stroke="#9bbbe0" stroke-width="0.75" opacity="0.95"/>
<polyline points="368.349,529.229 368.349,498.524 368.349,467.819 368.349,437.114 368.349,406.410 368.349,375.705 368.349,345.000 368.349,314.295 368.349,283.590 368.349,252.886 368.349,222.181 368.349,191.476 368.349,160.771" fill="none" stroke="#9bbbe0" stroke-width="0.75" opacity="0.95"/>
<polyline points="379.581,525.120 379.581,495.100 379.581,465.080 379.581,435.060 379.581,405.040 379.581,375.020 379.581,345.000 379.581,314.980 379.581,284.960 379.581,254.940 379.581,224.920 379.581,194.900 379.581,164.880" fill="none" stroke="#9bbbe0" stroke-width="0.75" opacity="0.95"/>
<polyline points="390.814,520.156 390.814,490.964 390.814,461.771 390.814,432.578 390.814,403.385 390.814,374.193 390.814,345.000 390.814,315.807 390.814,286.615 390.814,257.422 390.814,228.229 390.814,199.036 390.814,169.844" fill="none" stroke="#9bbbe0" stroke-width="0.75" opacity="0.95"/>
<polyline points="402.047,514.480 402.047,486.233 402.047,457.987 402.047,429.740 402.047,401.493 402.047,373.247 402.047,345.000 402.047,316.753 402.047,288.507 402.047,260.260 402.047,232.013 402.047,203.767 402.047,175.520" fill="none" stroke="#9bbbe0" stroke-width="0.75" opacity="0.95"/>
<polyline points="413.279,508.234 413.279,481.028 413.279,453.822 413.279,426.617 413.279,399.411 413.279,372.206 413.279,345.000 413.279,317.794 413.279,290.589 413.279,263.383 413.279,236.178 413.279,208.972 413.279,181.766" fill="none" stroke="#9bbbe0" stroke-width="0.75" opacity="0.95"/>
<polyline points="424.512,501.560 424.512,475.467 424.512,449.373 424.512,423.280 424.512,397.187 424.512,371.093 424.512,345.000 424.512,318.907 424.512,292.813 424.512,266.720 424.512,240.627 424.512,214.533 424.512,188.440" fill="none" stroke="#9bbbe0" stroke-width="0.75" opacity="0.95"/>
<polyline points="435.744,494.601 435.744,469.668 435.744,444.734 435.744,419.801 435.744,394.867 435.744,369.934 435.744,345.000 435.744,320.066 435.744,295.133 435.744,270.199 435.744,245.266 435.744,220.332 435.744,195.399" fill="none" stroke="#9bbbe0" stroke-width="0.75" opacity="0.95"/>
<polyline points="446.977,487.500 446.977,463.750 446.977,440.000 446.977,416.250 446.977,392.500 446.977,368.750 446.977,345.000 446.977,321.250 446.977,297.500 446.977,273.750 446.977,250.000 446.977,226.250 446.977,202.500" fill="none" stroke="#9bbbe0" stroke-width="0.75" opacity="0.95"/>
<polyline points="458.209,480.399 458.209,457.832 458.209,435.266 458.209,412.699 458.209,390.133 458.209,367.566 458.209,345.000 458.209,322.434 458.209,299.867 458.209,277.301 458.209,254.734 458.209,232.168 458.209,209.601" fill="none" stroke="#9bbbe0" stroke-width="0.75" opacity="0.95"/>
<polyline points="469.442,473.440 469.442,452.033 469.442,430.627 469.442,409.220 469.442,387.813 469.442,366.407 469.442,345.000 469.442,323.593 469.442,302.187 469.442,280.780 469.442,259.373 469.442,237.967 469.442,216.560" fill="none" stroke="#9bbbe0" stroke-width="0.75" opacity="0.95"/>
<polyline points="480.674,466.766 480.674,446.472 480.674,426.178 480.674,405.883 480.674,385.589 480.674,365.294 480.674,345.000 480.674,324.706 480.674,304.411 480.674,284.117 480.674,263.822 480.674,243.528 480.674,223.234" fill="none" stroke="#9bbbe0" stroke-width="0.75" opacity="0.95"/>
<polyline points="491.907,460.520 491.907,441.267 491.907,422.013 491.907,402.760 491.907,383.507 491.907,364.253 491.907,345.000 491.907,325.747 491.907,306.493 491.907,287.240 491.907,267.987 491.907,248.733 491.907,229.480" fill="none" stroke="#9bbbe0" stroke-width="0.75" opacity="0.95"/>
<polyline points="503.140,454.844 503.140,436.536 503.140,418.229 503.140,399.922 503.140,381.615 503.140,363.307 503.140,345.000 503.140,326.693 503.140,308.385 503.140,290.078 503.140,271.771 503.140,253.464 503.140,235.156" fill="none" stroke="#9bbbe0" stroke-width="0.75" opacity="0.95"/>
<polyline points="514.372,449.880 514.372,432.400 514.372,414.920 514.372,397.440 514.372,379.960 514.372,362.480 514.372,345.000 514.372,327.520 514.372,310.040 514.372,292.560 514.372,275.080 514.372,257.600 514.372,240.120" fill="none" stroke="#9bbbe0" stroke-width="0.75" opacity="0.95"/>
<polyline points="525.605,445.771 525.605,428.976 525.605,412.181 525.605,395.386 525.605,378.590 525.605,361.795 525.605,345.000 525.605,328.205 525.605,311.410 525.605,294.614 525.605,277.819 525.605,261.024 525.605,244.229" fill="none" stroke="#9bbbe0" stroke-width="0.75" opacity="0.95"/>
<polyline points="536.837,442.660 536.837,426.383 536.837,410.107 536.837,393.830 536.837,377.553 536.837,361.277 536.837,345.000 536.837,328.723 536.837,312.447 536.837,296.170 536.837,279.893 536.837,263.617 536.837,247.340" fill="none" stroke="#9bbbe0" stroke-width="0.75" opacity="0.95"/>
<polyline points="548.070,440.689 548.070,424.741 548.070,408.793 548.070,392.844 548.070,376.896 548.070,360.948 548.070,345.000 548.070,329.052 548.070,313.104 548.070,297.156 548.070,281.207 548.070,265.259 548.070,249.311" fill="none" stroke="#9bbbe0" stroke-width="0.75" opacity="0.95"/>
<polyline points="559.302,440.000 559.302,424.167 559.302,408.333 559.302,392.500 559.302,376.667 559.302,360.833 559.302,345.000 559.302,329.167 559.302,313.333 559.302,297.500 559.302,281.667 559.302,265.833 559.302,250.000" fill="none" stroke="#9bbbe0" stroke-width="0.75" opacity="0.95"/>
<polyline points="571.337,440.000 571.337,424.167 571.337,408.333 571.337,392.500 571.337,376.667 571.337,360.833 571.337,345.000 571.337,329.167 571.337,313.333 571.337,297.500 571.337,281.667 571.337,265.833 571.337,250.000" fill="none" stroke="#9bbbe0" stroke-width="0.75" opacity="0.95"/>
<polyline points="583.372,440.000 583.372,424.167 583.372,408.333 583.372,392.500 583.372,376.667 583.372,360.833 583.372,345.000 583.372,329.167 583.372,313.333 583.372,297.500 583.372,281.667 583.372,265.833 583.372,250.000" fill="none" stroke="#9bbbe0" stroke-width="0.75" opacity="0.95"/>
<polyline points="595.407,440.000 595.407,424.167 595.407,408.333 595.407,392.500 595.407,376.667 595.407,360.833 595.407,345.000 595.407,329.167 595.407,313.333 595.407,297.500 595.407,281.667 595.407,265.833 595.407,250.000" fill="none" stroke="#9bbbe0" stroke-width="0.75" opacity="0.95"/>
<polyline points="607.442,440.000 607.442,424.167 607.442,408.333 607.442,392.500 607.442,376.667 607.442,360.833 607.442,345.000 607.442,329.167 607.442,313.333 607.442,297.500 607.442,281.667 607.442,265.833 607.442,250.000" fill="none" stroke="#9bbbe0" stroke-width="0.75" opacity="0.95"/>
<polyline points="619.477,440.000 619.477,424.167 619.477,408.333 619.477,392.500 619.477,376.667 619.477,360.833 619.477,345.000 619.477,329.167 619.477,313.333 619.477,297.500 619.477,281.667 619.477,265.833 619.477,250.000" fill="none" stroke="#9bbbe0" stroke-width="0.75" opacity="0.95"/>
<polyline points="631.512,440.000 631.512,424.167 631.512,408.333 631.512,392.500 631.512,376.667 631.512,360.833 631.512,345.000 631.512,329.167 631.512,313.333 631.512,297.500 631.512,281.667 631.512,265.833 631.512,250.000" fill="none" stroke="#9bbbe0" stroke-width="0.75" opacity="0.95"/>
<polyline points="643.547,440.000 643.547,424.167 643.547,408.333 643.547,392.500 643.547,376.667 643.547,360.833 643.547,345.000 643.547,329.167 643.547,313.333 643.547,297.500 643.547,281.667 643.547,265.833 643.547,250.000" fill="none" stroke="#9bbbe0" stroke-width="0.75" opacity="0.95"/>
<polyline points="655.581,440.000 655.581,424.167 655.581,408.333 655.581,392.500 655.581,376.667 655.581,360.833 655.581,345.000 655.581,329.167 655.581,313.333 655.581,297.500 655.581,281.667 655.581,265.833 655.581,250.000" fill="none" stroke="#9bbbe0" stroke-width="0.75" opacity="0.95"/>
<polyline points="667.616,440.000 667.616,424.167 667.616,408.333 667.616,392.500 667.616,376.667 667.616,360.833 667.616,345.000 667.616,329.167 667.616,313.333 667.616,297.500 667.616,281.667 667.616,265.833 667.616,250.000" fill="none" stroke="#9bbbe0" stroke-width="0.75" opacity="0.95"/>
<polyline points="679.651,440.000 679.651,424.167 679.651,408.333 679.651,392.500 679.651,376.667 679.651,360.833 679.651,345.000 679.651,329.167 679.651,313.333 679.651,297.500 679.651,281.667 679.651,265.833 679.651,250.000" fill="none" stroke="#9bbbe0" stroke-width="0.75" opacity="0.95"/>
<polyline points="691.686,440.000 691.686,424.167 691.686,408.333 691.686,392.500 691.686,376.667 691.686,360.833 691.686,345.000 691.686,329.167 691.686,313.333 691.686,297.500 691.686,281.667 691.686,265.833 691.686,250.000" fill="none" stroke="#9bbbe0" stroke-width="0.75" opacity="0.95"/>
<polyline points="703.721,440.000 703.721,424.167 703.721,408.333 703.721,392.500 703.721,376.667 703.721,360.833 703.721,345.000 703.721,329.167 703.721,313.333 703.721,297.500 703.721,281.667 703.721,265.833 703.721,250.000" fill="none" stroke="#9bbbe0" stroke-width="0.75" opacity="0.95"/>
<polyline points="715.756,440.000 715.756,424.167 715.756,408.333 715.756,392.500 715.756,376.667 715.756,360.833 715.756,345.000 715.756,329.167 715.756,313.333 715.756,297.500 715.756,281.667 715.756,265.833 715.756,250.000" fill="none" stroke="#9bbbe0" stroke-width="0.75" opacity="0.95"/>
<polyline points="727.791,440.000 727.791,424.167 727.791,408.333 727.791,392.500 727.791,376.667 727.791,360.833 727.791,345.000 727.791,329.167 727.791,313.333 727.791,297.500 727.791,281.667 727.791,265.833 727.791,250.000" fill="none" stroke="#9bbbe0" stroke-width="0.75" opacity="0.95"/>
<polyline points="739.826,440.000 739.826,424.167 739.826,408.333 739.826,392.500 739.826,376.667 739.826,360.833 739.826,345.000 739.826,329.167 739.826,313.333 739.826,297.500 739.826,281.667 739.826,265.833 739.826,250.000" fill="none" stroke="#9bbbe0" stroke-width="0.75" opacity="0.95"/>
<polyline points="751.860,440.000 751.860,424.167 751.860,408.333 751.860,392.500 751.860,376.667 751.860,360.833 751.860,345.000 751.860,329.167 751.860,313.333 751.860,297.500 751.860,281.667 751.860,265.833 751.860,250.000" fill="none" stroke="#9bbbe0" stroke-width="0.75" opacity="0.95"/>
<polyline points="763.895,440.000 763.895,424.167 763.895,408.333 763.895,392.500 763.895,376.667 763.895,360.833 763.895,345.000 763.895,329.167 763.895,313.333 763.895,297.500 763.895,281.667 763.895,265.833 763.895,250.000" fill="none" stroke="#9bbbe0" stroke-width="0.75" opacity="0.95"/>
<polyline points="775.930,440.000 775.930,424.167 775.930,408.333 775.930,392.500 775.930,376.667 775.930,360.833 775.930,345.000 775.930,329.167 775.930,313.333 775.930,297.500 775.930,281.667 775.930,265.833 775.930,250.000" fill="none" stroke="#9bbbe0" stroke-width="0.75" opacity="0.95"/>
<polyline points="787.965,440.000 787.965,424.167 787.965,408.333 787.965,392.500 787.965,376.667 787.965,360.833 787.965,345.000 787.965,329.167 787.965,313.333 787.965,297.500 787.965,281.667 787.965,265.833 787.965,250.000" fill="none" stroke="#9bbbe0" stroke-width="0.75" opacity="0.95"/>
<polyline points="800.000,440.000 800.000,424.167 800.000,408.333 800.000,392.500 800.000,376.667 800.000,360.833 800.000,345.000 800.000,329.167 800.000,313.333 800.000,297.500 800.000,281.667 800.000,265.833 800.000,250.000" fill="none" stroke="#2f6db2" stroke-width="1.5" opacity="0.95"/>
<polyline points="812.035,440.000 812.035,424.167 812.035,408.333 812.035,392.500 812.035,376.667 812.035,360.833 812.035,345.000 812.035,329.167 812.035,313.333 812.035,297.500 812.035,281.667 812.035,265.833 812.035,250.000" fill="none" stroke="#9bbbe0" stroke-width="0.75" opacity="0.95"/>
<polyline points="824.070,440.000 824.070,424.167 824.070,408.333 824.070,392.500 824.070,376.667 824.070,360.833 824.070,345.000 824.070,329.167 824.070,313.333 824.070,297.500 824.070,281.667 824.070,265.833 824.070,250.000" fill="none" stroke="#9bbbe0" stroke-width="0.75" opacity="0.95"/>
<polyline points="836.105,440.000 836.105,424.167 836.105,408.333 836.105,392.500 836.105,376.667 836.105,360.833 836.105,345.000 836.105,329.167 836.105,313.333 836.105,297.500 836.105,281.667 836.105,265.833 836.105,250.000" fill="none" stroke="#9bbbe0" stroke-width="0.75" opacity="0.95"/>
<polyline points="848.140,440.000 848.140,424.167 848.140,408.333 848.140,392.500 848.140,376.667 848.140,360.833 848.140,345.000 848.140,329.167 848.140,313.333 848.140,297.500 848.140,281.667 848.140,265.833 848.140,250.000" fill="none" stroke="#9bbbe0" stroke-width="0.75" opacity="0.95"/>
<polyline points="860.174,440.000 860.174,424.167 860.174,408.333 860.174,392.500 860.174,376.667 860.174,360.833 860.174,345.000 860.174,329.167 860.174,313.333 860.174,297.500 860.174,281.667 860.174,265.833 860.174,250.000" fill="none" stroke="#9bbbe0" stroke-width="0.75" opacity="0.95"/>
<polyline points="872.209,440.000 872.209,424.167 872.209,408.333 872.209,392.500 872.209,376.667 872.209,360.833 872.209,345.000 872.209,329.167 872.209,313.333 872.209,297.500 872.209,281.667 872.209,265.833 872.209,250.000" fill="none" stroke="#9bbbe0" stroke-width="0.75" opacity="0.95"/>
<polyline points="884.244,440.000 884.244,424.167 884.244,408.333 884.244,392.500 884.244,376.667 884.244,360.833 884.244,345.000 884.244,329.167 884.244,313.333 884.244,297.500 884.244,281.667 884.244,265.833 884.244,250.000" fill="none" stroke="#9bbbe0" stroke-width="0.75" opacity="0.95"/>
<polyline points="896.279,440.000 896.279,424.167 896.279,408.333 896.279,392.500 896.279,376.667 896.279,360.833 896.279,345.000 896.279,329.167 896.279,313.333 896.279,297.500 896.279,281.667 896.279,265.833 896.279,250.000" fill="none" stroke="#9bbbe0" stroke-width="0.75" opacity="0.95"/>
<polyline points="908.314,440.000 908.314,424.167 908.314,408.333 908.314,392.500 908.314,376.667 908.314,360.833 908.314,345.000 908.314,329.167 908.314,313.333 908.314,297.500 908.314,281.667 908.314,265.833 908.314,250.000" fill="none" stroke="#9bbbe0" stroke-width="0.75" opacity="0.95"/>
<polyline points="920.349,440.000 920.349,424.167 920.349,408.333 920.349,392.500 920.349,376.667 920.349,360.833 920.349,345.000 920.349,329.167 920.349,313.333 920.349,297.500 920.349,281.667 920.349,265.833 920.349,250.000" fill="none" stroke="#9bbbe0" stroke-width="0.75" opacity="0.95"/>
<polyline points="932.384,440.000 932.384,424.167 932.384,408.333 932.384,392.500 932.384,376.667 932.384,360.833 932.384,345.000 932.384,329.167 932.384,313.333 932.384,297.500 932.384,281.667 932.384,265.833 932.384,250.000" fill="none" stroke="#9bbbe0" stroke-width="0.75" opacity="0.95"/>
<polyline points="944.419,440.000 944.419,424.167 944.419,408.333 944.419,392.500 944.419,376.667 944.419,360.833 944.419,345.000 944.419,329.167 944.419,313.333 944.419,297.500 944.419,281.667 944.419,265.833 944.419,250.000" fill="none" stroke="#9bbbe0" stroke-width="0.75" opacity="0.95"/>
<polyline points="956.453,440.000 956.453,424.167 956.453,408.333 956.453,392.500 956.453,376.667 956.453,360.833 956.453,345.000 956.453,329.167 956.453,313.333 956.453,297.500 956.453,281.667 956.453,265.833 956.453,250.000" fill="none" stroke="#9bbbe0" stroke-width="0.75" opacity="0.95"/>
<polyline points="968.488,440.000 968.488,424.167 968.488,408.333 968.488,392.500 968.488,376.667 968.488,360.833 968.488,345.000 968.488,329.167 968.488,313.333 968.488,297.500 968.488,281.667 968.488,265.833 968.488,250.000" fill="none" stroke="#9bbbe0" stroke-width="0.75" opacity="0.95"/>
<polyline points="980.523,440.000 980.523,424.167 980.523,408.333 980.523,392.500 980.523,376.667 980.523,360.833 980.523,345.000 980.523,329.167 980.523,313.333 980.523,297.500 980.523,281.667 980.523,265.833 980.523,250.000" fill="none" stroke="#9bbbe0" stroke-width="0.75" opacity="0.95"/>
<polyline points="992.558,440.000 992.558,424.167 992.558,408.333 992.558,392.500 992.558,376.667 992.558,360.833 992.558,345.000 992.558,329.167 992.558,313.333 992.558,297.500 992.558,281.667 992.558,265.833 992.558,250.000" fill="none" stroke="#9bbbe0" stroke-width="0.75" opacity="0.95"/>
<polyline points="1004.593,440.000 1004.593,424.167 1004.593,408.333 1004.593,392.500 1004.593,376.667 1004.593,360.833 1004.593,345.000 1004.593,329.167 1004.593,313.333 1004.593,297.500 1004.593,281.667 1004.593,265.833 1004.593,250.000" fill="none" stroke="#9bbbe0" stroke-width="0.75" opacity="0.95"/>
<polyline points="1016.628,440.000 1016.628,424.167 1016.628,408.333 1016.628,392.500 1016.628,376.667 1016.628,360.833 1016.628,345.000 1016.628,329.167 1016.628,313.333 1016.628,297.500 1016.628,281.667 1016.628,265.833 1016.628,250.000" fill="none" stroke="#9bbbe0" stroke-width="0.75" opacity="0.95"/>
<polyline points="1028.663,440.000 1028.663,424.167 1028.663,408.333 1028.663,392.500 1028.663,376.667 1028.663,360.833 1028.663,345.000 1028.663,329.167 1028.663,313.333 1028.663,297.500 1028.663,281.667 1028.663,265.833 1028.663,250.000" fill="none" stroke="#9bbbe0" stroke-width="0.75" opacity="0.95"/>
<polyline points="1040.698,440.000 1040.698,424.167 1040.698,408.333 1040.698,392.500 1040.698,376.667 1040.698,360.833 1040.698,345.000 1040.698,329.167 1040.698,313.333 1040.698,297.500 1040.698,281.667 1040.698,265.833 1040.698,250.000" fill="none" stroke="#9bbbe0" stroke-width="0.75" opacity="0.95"/>
<polyline points="1051.930,440.689 1051.930,424.741 1051.930,408.793 1051.930,392.844 1051.930,376.896 1051.930,360.948 1051.930,345.000 1051.930,329.052 1051.930,313.104 1051.930,297.156 1051.930,281.207 1051.930,265.259 1051.930,249.311" fill="none" stroke="#9bbbe0" stroke-width="0.75" opacity="0.95"/>
<polyline points="1063.163,442.660 1063.163,426.383 1063.163,410.107 1063.163,393.830 1063.163,377.553 1063.163,361.277 1063.163,345.000 1063.163,328.723 1063.163,312.447 1063.163,296.170 1063.163,279.893 1063.163,263.617 1063.163,247.340" fill="none" stroke="#9bbbe0" stroke-width="0.75" opacity="0.95"/>
<polyline points="1074.395,445.771 1074.395,428.976 1074.395,412.181 1074.395,395.386 1074.395,378.590 1074.395,361.795 1074.395,345.000 1074.395,328.205 1074.395,311.410 1074.395,294.614 1074.395,277.819 1074.395,261.024 1074.395,244.229" fill="none" stroke="#9bbbe0" stroke-width="0.75" opacity="0.95"/>
<polyline points="1085.628,449.880 1085.628,432.400 1085.628,414.920 1085.628,397.440 1085.628,379.960 1085.628,362.480 1085.628,345.000 1085.628,327.520 1085.628,310.040 1085.628,292.560 1085.628,275.080 1085.628,257.600 1085.628,240.120" fill="none" stroke="#9bbbe0" stroke-width="0.75" opacity="0.95"/>
<polyline points="1096.860,454.844 1096.860,436.536 1096.860,418.229 1096.860,399.922 1096.860,381.615 1096.860,363.307 1096.860,345.000 1096.860,326.693 1096.860,308.385 1096.860,290.078 1096.860,271.771 1096.860,253.464 1096.860,235.156" fill="none" stroke="#9bbbe0" stroke-width="0.75" opacity="0.95"/>
<polyline points="1108.093,460.520 1108.093,441.267 1108.093,422.013 1108.093,402.760 1108.093,383.507 1108.093,364.253 1108.093,345.000 1108.093,325.747 1108.093,306.493 1108.093,287.240 1108.093,267.987 1108.093,248.733 1108.093,229.480" fill="none" stroke="#9bbbe0" stroke-width="0.75" opacity="0.95"/>
<polyline points="1119.326,466.766 1119.326,446.472 1119.326,426.178 1119.326,405.883 1119.326,385.589 1119.326,365.294 1119.326,345.000 1119.326,324.706 1119.326,304.411 1119.326,284.117 1119.326,263.822 1119.326,243.528 1119.326,223.234" fill="none" stroke="#9bbbe0" stroke-width="0.75" opacity="0.95"/>
<polyline points="1130.558,473.440 1130.558,452.033 1130.558,430.627 1130.558,409.220 1130.558,387.813 1130.558,366.407 1130.558,345.000 1130.558,323.593 1130.558,302.187 1130.558,280.780 1130.558,259.373 1130.558,237.967 1130.558,216.560" fill="none" stroke="#9bbbe0" stroke-width="0.75" opacity="0.95"/>
<polyline points="1141.791,480.399 1141.791,457.832 1141.791,435.266 1141.791,412.699 1141.791,390.133 1141.791,367.566 1141.791,345.000 1141.791,322.434 1141.791,299.867 1141.791,277.301 1141.791,254.734 1141.791,232.168 1141.791,209.601" fill="none" stroke="#9bbbe0" stroke-width="0.75" opacity="0.95"/>
<polyline points="1153.023,487.500 1153.023,463.750 1153.023,440.000 1153.023,416.250 1153.023,392.500 1153.023,368.750 1153.023,345.000 1153.023,321.250 1153.023,297.500 1153.023,273.750 1153.023,250.000 1153.023,226.250 1153.023,202.500" fill="none" stroke="#9bbbe0" stroke-width="0.75" opacity="0.95"/>
<polyline points="1164.256,494.601 1164.256,469.668 1164.256,444.734 1164.256,419.801 1164.256,394.867 1164.256,369.934 1164.256,345.000 1164.256,320.066 1164.256,295.133 1164.256,270.199 1164.256,245.266 1164.256,220.332 1164.256,195.399" fill="none" stroke="#9bbbe0" stroke-width="0.75" opacity="0.95"/>
<polyline points="1175.488,501.560 1175.488,475.467 1175.488,449.373 1175.488,423.280 1175.488,397.187 1175.488,371.093 1175.488,345.000 1175.488,318.907 1175.488,292.813 1175.488,266.720 1175.488,240.627 1175.488,214.533 1175.488,188.440" fill="none" stroke="#9bbbe0" stroke-width="0.75" opacity="0.95"/>
<polyline points="1186.721,508.234 1186.721,481.028 1186.721,453.822 1186.721,426.617 1186.721,399.411 1186.721,372.206 1186.721,345.000 1186.721,317.794 1186.721,290.589 1186.721,263.383 1186.721,236.178 1186.721,208.972 1186.721,181.766" fill="none" stroke="#9bbbe0" stroke-width="0.75" opacity="0.95"/>
<polyline points="1197.953,514.480 1197.953,486.233 1197.953,457.987 1197.953,429.740 1197.953,401.493 1197.953,373.247 1197.953,345.000 1197.953,316.753 1197.953,288.507 1197.953,260.260 1197.953,232.013 1197.953,203.767 1197.953,175.520" fill="none" stroke="#9bbbe0" stroke-width="0.75" opacity="0.95"/>
<polyline points="1209.186,520.156 1209.186,490.964 1209.186,461.771 1209.186,432.578 1209.186,403.385 1209.186,374.193 1209.186,345.000 1209.186,315.807 1209.186,286.615 1209.186,257.422 1209.186,228.229 1209.186,199.036 1209.186,169.844" fill="none" stroke="#9bbbe0" stroke-width="0.75" opacity="0.95"/>
<polyline points="1220.419,525.120 1220.419,495.100 1220.419,465.080 1220.419,435.060 1220.419,405.040 1220.419,375.020 1220.419,345.000 1220.419,314.980 1220.419,284.960 1220.419,254.940 1220.419,224.920 1220.419,194.900 1220.419,164.880" fill="none" stroke="#9bbbe0" stroke-width="0.75" opacity="0.95"/>
<polyline points="1231.651,529.229 1231.651,498.524 1231.651,467.819 1231.651,437.114 1231.651,406.410 1231.651,375.705 1231.651,345.000 1231.651,314.295 1231.651,283.590 1231.651,252.886 1231.651,222.181 1231.651,191.476 1231.651,160.771" fill="none" stroke="#9bbbe0" stroke-width="0.75" opacity="0.95"/>
<polyline points="1242.884,532.340 1242.884,501.117 1242.884,469.893 1242.884,438.670 1242.884,407.447 1242.884,376.223 1242.884,345.000 1242.884,313.777 1242.884,282.553 1242.884,251.330 1242.884,220.107 1242.884,188.883 1242.884,157.660" fill="none" stroke="#9bbbe0" stroke-width="0.75" opacity="0.95"/>
<polyline points="1254.116,534.311 1254.116,502.759 1254.116,471.207 1254.116,439.656 1254.116,408.104 1254.116,376.552 1254.116,345.000 1254.116,313.448 1254.116,281.896 1254.116,250.344 1254.116,218.793 1254.116,187.241 1254.116,155.689" fill="none" stroke="#9bbbe0" stroke-width="0.75" opacity="0.95"/>
<polyline points="1265.349,535.000 1265.349,503.333 1265.349,471.667 1265.349,440.000 1265.349,408.333 1265.349,376.667 1265.349,345.000 1265.349,313.333 1265.349,281.667 1265.349,250.000 1265.349,218.333 1265.349,186.667 1265.349,155.000" fill="none" stroke="#9bbbe0" stroke-width="0.75" opacity="0.95"/>
<polyline points="1281.395,535.000 1281.395,503.333 1281.395,471.667 1281.395,440.000 1281.395,408.333 1281.395,376.667 1281.395,345.000 1281.395,313.333 1281.395,281.667 1281.395,250.000 1281.395,218.333 1281.395,186.667 1281.395,155.000" fill="none" stroke="#9bbbe0" stroke-width="0.75" opacity="0.95"/>
<polyline points="1297.442,535.000 1297.442,503.333 1297.442,471.667 1297.442,440.000 1297.442,408.333 1297.442,376.667 1297.442,345.000 1297.442,313.333 1297.442,281.667 1297.442,250.000 1297.442,218.333 1297.442,186.667 1297.442,155.000" fill="none" stroke="#9bbbe0" stroke-width="0.75" opacity="0.95"/>
<polyline points="1313.488,535.000 1313.488,503.333 1313.488,471.667 1313.488,440.000 1313.488,408.333 1313.488,376.667 1313.488,345.000 1313.488,313.333 1313.488,281.667 1313.488,250.000 1313.488,218.333 1313.488,186.667 1313.488,155.000" fill="none" stroke="#9bbbe0" stroke-width="0.75" opacity="0.95"/>
<polyline points="1329.535,535.000 1329.535,503.333 1329.535,471.667 1329.535,440.000 1329.535,408.333 1329.535,376.667 1329.535,345.000 1329.535,313.333 1329.535,281.667 1329.535,250.000 1329.535,218.333 1329.535,186.667 1329.535,155.000" fill="none" stroke="#9bbbe0" stroke-width="0.75" opacity="0.95"/>
<polyline points="1345.581,535.000 1345.581,503.333 1345.581,471.667 1345.581,440.000 1345.581,408.333 1345.581,376.667 1345.581,345.000 1345.581,313.333 1345.581,281.667 1345.581,250.000 1345.581,218.333 1345.581,186.667 1345.581,155.000" fill="none" stroke="#9bbbe0" stroke-width="0.75" opacity="0.95"/>
<polyline points="1361.628,535.000 1361.628,503.333 1361.628,471.667 1361.628,440.000 1361.628,408.333 1361.628,376.667 1361.628,345.000 1361.628,313.333 1361.628,281.667 1361.628,250.000 1361.628,218.333 1361.628,186.667 1361.628,155.000" fill="none" stroke="#9bbbe0" stroke-width="0.75" opacity="0.95"/>
<polyline points="1377.674,535.000 1377.674,503.333 1377.674,471.667 1377.674,440.000 1377.674,408.333 1377.674,376.667 1377.674,345.000 1377.674,313.333 1377.674,281.667 1377.674,250.000 1377.674,218.333 1377.674,186.667 1377.674,155.000" fill="none" stroke="#9bbbe0" stroke-width="0.75" opacity="0.95"/>
<polyline points="1393.721,535.000 1393.721,503.333 1393.721,471.667 1393.721,440.000 1393.721,408.333 1393.721,376.667 1393.721,345.000 1393.721,313.333 1393.721,281.667 1393.721,250.000 1393.721,218.333 1393.721,186.667 1393.721,155.000" fill="none" stroke="#9bbbe0" stroke-width="0.75" opacity="0.95"/>
<polyline points="1409.767,535.000 1409.767,503.333 1409.767,471.667 1409.767,440.000 1409.767,408.333 1409.767,376.667 1409.767,345.000 1409.767,313.333 1409.767,281.667 1409.767,250.000 1409.767,218.333 1409.767,186.667 1409.767,155.000" fill="none" stroke="#9bbbe0" stroke-width="0.75" opacity="0.95"/>
<polyline points="1425.814,535.000 1425.814,503.333 1425.814,471.667 1425.814,440.000 1425.814,408.333 1425.814,376.667 1425.814,345.000 1425.814,313.333 1425.814,281.667 1425.814,250.000 1425.814,218.333 1425.814,186.667 1425.814,155.000" fill="none" stroke="#9bbbe0" stroke-width="0.75" opacity="0.95"/>
<polyline points="1441.860,535.000 1441.860,503.333 1441.860,471.667 1441.860,440.000 1441.860,408.333 1441.860,376.667 1441.860,345.000 1441.860,313.333 1441.860,281.667 1441.860,250.000 1441.860,218.333 1441.860,186.667 1441.860,155.000" fill="none" stroke="#9bbbe0" stroke-width="0.75" opacity="0.95"/>
<polyline points="1457.907,535.000 1457.907,503.333 1457.907,471.667 1457.907,440.000 1457.907,408.333 1457.907,376.667 1457.907,345.000 1457.907,313.333 1457.907,281.667 1457.907,250.000 1457.907,218.333 1457.907,186.667 1457.907,155.000" fill="none" stroke="#9bbbe0" stroke-width="0.75" opacity="0.95"/>
<polyline points="1473.953,535.000 1473.953,503.333 1473.953,471.667 1473.953,440.000 1473.953,408.333 1473.953,376.667 1473.953,345.000 1473.953,313.333 1473.953,281.667 1473.953,250.000 1473.953,218.333 1473.953,186.667 1473.953,155.000" fill="none" stroke="#9bbbe0" stroke-width="0.75" opacity="0.95"/>
<polyline points="1490.000,535.000 1490.000,503.333 1490.000,471.667 1490.000,440.000 1490.000,408.333 1490.000,376.667 1490.000,345.000 1490.000,313.333 1490.000,281.667 1490.000,250.000 1490.000,218.333 1490.000,186.667 1490.000,155.000" fill="none" stroke="#9bbbe0" stroke-width="0.75" opacity="0.95"/>
<polyline points="110.000,535.000 126.047,535.000 142.093,535.000 158.140,535.000 174.186,535.000 190.233,535.000 206.279,535.000 222.326,535.000 238.372,535.000 254.419,535.000 270.465,535.000 286.512,535.000 302.558,535.000 318.605,535.000 334.651,535.000 345.884,534.311 357.116,532.340 368.349,529.229 379.581,525.120 390.814,520.156 402.047,514.480 413.279,508.234 424.512,501.560 435.744,494.601 446.977,487.500 458.209,480.399 469.442,473.440 480.674,466.766 491.907,460.520 503.140,454.844 514.372,449.880 525.605,445.771 536.837,442.660 548.070,440.689 559.302,440.000 571.337,440.000 583.372,440.000 595.407,440.000 607.442,440.000 619.477,440.000 631.512,440.000 643.547,440.000 655.581,440.000 667.616,440.000 679.651,440.000 691.686,440.000 703.721,440.000 715.756,440.000 727.791,440.000 739.826,440.000 751.860,440.000 763.895,440.000 775.930,440.000 787.965,440.000 800.000,440.000 812.035,440.000 824.070,440.000 836.105,440.000 848.140,440.000 860.174,440.000 872.209,440.000 884.244,440.000 896.279,440.000 908.314,440.000 920.349,440.000 932.384,440.000 944.419,440.000 956.453,440.000 968.488,440.000 980.523,440.000 992.558,440.000 1004.593,440.000 1016.628,440.000 1028.663,440.000 1040.698,440.000 1051.930,440.689 1063.163,442.660 1074.395,445.771 1085.628,449.880 1096.860,454.844 1108.093,460.520 1119.326,466.766 1130.558,473.440 1141.791,480.399 1153.023,487.500 1164.256,494.601 1175.488,501.560 1186.721,508.234 1197.953,514.480 1209.186,520.156 1220.419,525.120 1231.651,529.229 1242.884,532.340 1254.116,534.311 1265.349,535.000 1281.395,535.000 1297.442,535.000 1313.488,535.000 1329.535,535.000 1345.581,535.000 1361.628,535.000 1377.674,535.000 1393.721,535.000 1409.767,535.000 1425.814,535.000 1441.860,535.000 1457.907,535.000 1473.953,535.000 1490.000,535.000" fill="none" stroke="#e5a6a0" stroke-width="0.75" opacity="0.95"/>
<polyline points="110.000,503.333 126.047,503.333 142.093,503.333 158.140,503.333 174.186,503.333 190.233,503.333 206.279,503.333 222.326,503.333 238.372,503.333 254.419,503.333 270.465,503.333 286.512,503.333 302.558,503.333 318.605,503.333 334.651,503.333 345.884,502.759 357.116,501.117 368.349,498.524 379.581,495.100 390.814,490.964 402.047,486.233 413.279,481.028 424.512,475.467 435.744,469.668 446.977,463.750 458.209,457.832 469.442,452.033 480.674,446.472 491.907,441.267 503.140,436.536 514.372,432.400 525.605,428.976 536.837,426.383 548.070,424.741 559.302,424.167 571.337,424.167 583.372,424.167 595.407,424.167 607.442,424.167 619.477,424.167 631.512,424.167 643.547,424.167 655.581,424.167 667.616,424.167 679.651,424.167 691.686,424.167 703.721,424.167 715.756,424.167 727.791,424.167 739.826,424.167 751.860,424.167 763.895,424.167 775.930,424.167 787.965,424.167 800.000,424.167 812.035,424.167 824.070,424.167 836.105,424.167 848.140,424.167 860.174,424.167 872.209,424.167 884.244,424.167 896.279,424.167 908.314,424.167 920.349,424.167 932.384,424.167 944.419,424.167 956.453,424.167 968.488,424.167 980.523,424.167 992.558,424.167 1004.593,424.167 1016.628,424.167 1028.663,424.167 1040.698,424.167 1051.930,424.741 1063.163,426.383 1074.395,428.976 1085.628,432.400 1096.860,436.536 1108.093,441.267 1119.326,446.472 1130.558,452.033 1141.791,457.832 1153.023,463.750 1164.256,469.668 1175.488,475.467 1186.721,481.028 1197.953,486.233 1209.186,490.964 1220.419,495.100 1231.651,498.524 1242.884,501.117 1254.116,502.759 1265.349,503.333 1281.395,503.333 1297.442,503.333 1313.488,503.333 1329.535,503.333 1345.581,503.333 1361.628,503.333 1377.674,503.333 1393.721,503.333 1409.767,503.333 1425.814,503.333 1441.860,503.333 1457.907,503.333 1473.953,503.333 1490.000,503.333" fill="none" stroke="#e5a6a0" stroke-width="0.75" opacity="0.95"/>
<polyline points="110.000,471.667 126.047,471.667 142.093,471.667 158.140,471.667 174.186,471.667 190.233,471.667 206.279,471.667 222.326,471.667 238.372,471.667 254.419,471.667 270.465,471.667 286.512,471.667 302.558,471.667 318.605,471.667 334.651,471.667 345.884,471.207 357.116,469.893 368.349,467.819 379.581,465.080 390.814,461.771 402.047,457.987 413.279,453.822 424.512,449.373 435.744,444.734 446.977,440.000 458.209,435.266 469.442,430.627 480.674,426.178 491.907,422.013 503.140,418.229 514.372,414.920 525.605,412.181 536.837,410.107 548.070,408.793 559.302,408.333 571.337,408.333 583.372,408.333 595.407,408.333 607.442,408.333 619.477,408.333 631.512,408.333 643.547,408.333 655.581,408.333 667.616,408.333 679.651,408.333 691.686,408.333 703.721,408.333 715.756,408.333 727.791,408.333 739.826,408.333 751.860,408.333 763.895,408.333 775.930,408.333 787.965,408.333 800.000,408.333 812.035,408.333 824.070,408.333 836.105,408.333 848.140,408.333 860.174,408.333 872.209,408.333 884.244,408.333 896.279,408.333 908.314,408.333 920.349,408.333 932.384,408.333 944.419,408.333 956.453,408.333 968.488,408.333 980.523,408.333 992.558,408.333 1004.593,408.333 1016.628,408.333 1028.663,408.333 1040.698,408.333 1051.930,408.793 1063.163,410.107 1074.395,412.181 1085.628,414.920 1096.860,418.229 1108.093,422.013 1119.326,426.178 1130.558,430.627 1141.791,435.266 1153.023,440.000 1164.256,444.734 1175.488,449.373 1186.721,453.822 1197.953,457.987 1209.186,461.771 1220.419,465.080 1231.651,467.819 1242.884,469.893 1254.116,471.207 1265.349,471.667 1281.395,471.667 1297.442,471.667 1313.488,471.667 1329.535,471.667 1345.581,471.667 1361.628,471.667 1377.674,471.667 1393.721,471.667 1409.767,471.667 1425.814,471.667 1441.860,471.667 1457.907,471.667 1473.953,471.667 1490.000,471.667" fill="none" stroke="#e5a6a0" stroke-width="0.75" opacity="0.95"/>
<polyline points="110.000,440.000 126.047,440.000 142.093,440.000 158.140,440.000 174.186,440.000 190.233,440.000 206.279,440.000 222.326,440.000 238.372,440.000 254.419,440.000 270.465,440.000 286.512,440.000 302.558,440.000 318.605,440.000 334.651,440.000 345.884,439.656 357.116,438.670 368.349,437.114 379.581,435.060 390.814,432.578 402.047,429.740 413.279,426.617 424.512,423.280 435.744,419.801 446.977,416.250 458.209,412.699 469.442,409.220 480.674,405.883 491.907,402.760 503.140,399.922 514.372,397.440 525.605,395.386 536.837,393.830 548.070,392.844 559.302,392.500 571.337,392.500 583.372,392.500 595.407,392.500 607.442,392.500 619.477,392.500 631.512,392.500 643.547,392.500 655.581,392.500 667.616,392.500 679.651,392.500 691.686,392.500 703.721,392.500 715.756,392.500 727.791,392.500 739.826,392.500 751.860,392.500 763.895,392.500 775.930,392.500 787.965,392.500 800.000,392.500 812.035,392.500 824.070,392.500 836.105,392.500 848.140,392.500 860.174,392.500 872.209,392.500 884.244,392.500 896.279,392.500 908.314,392.500 920.349,392.500 932.384,392.500 944.419,392.500 956.453,392.500 968.488,392.500 980.523,392.500 992.558,392.500 1004.593,392.500 1016.628,392.500 1028.663,392.500 1040.698,392.500 1051.930,392.844 1063.163,393.830 1074.395,395.386 1085.628,397.440 1096.860,399.922 1108.093,402.760 1119.326,405.883 1130.558,409.220 1141.791,412.699 1153.023,416.250 1164.256,419.801 1175.488,423.280 1186.721,426.617 1197.953,429.740 1209.186,432.578 1220.419,435.060 1231.651,437.114 1242.884,438.670 1254.116,439.656 1265.349,440.000 1281.395,440.000 1297.442,440.000 1313.488,440.000 1329.535,440.000 1345.581,440.000 1361.628,440.000 1377.674,440.000 1393.721,440.000 1409.767,440.000 1425.814,440.000 1441.860,440.000 1457.907,440.000 1473.953,440.000 1490.000,440.000" fill="none" stroke="#e5a6a0" stroke-width="0.75" opacity="0.95"/>
<polyline points="110.000,408.333 126.047,408.333 142.093,408.333 158.140,408.333 174.186,408.333 190.233,408.333 206.279,408.333 222.326,408.333 238.372,408.333 254.419,408.333 270.465,408.333 286.512,408.333 302.558,408.333 318.605,408.333 334.651,408.333 345.884,408.104 357.116,407.447 368.349,406.410 379.581,405.040 390.814,403.385 402.047,401.493 413.279,399.411 424.512,397.187 435.744,394.867 446.977,392.500 458.209,390.133 469.442,387.813 480.674,385.589 491.907,383.507 503.140,381.615 514.372,379.960 525.605,378.590 536.837,377.553 548.070,376.896 559.302,376.667 571.337,376.667 583.372,376.667 595.407,376.667 607.442,376.667 619.477,376.667 631.512,376.667 643.547,376.667 655.581,376.667 667.616,376.667 679.651,376.667 691.686,376.667 703.721,376.667 715.756,376.667 727.791,376.667 739.826,376.667 751.860,376.667 763.895,376.667 775.930,376.667 787.965,376.667 800.000,376.667 812.035,376.667 824.070,376.667 836.105,376.667 848.140,376.667 860.174,376.667 872.209,376.667 884.244,376.667 896.279,376.667 908.314,376.667 920.349,376.667 932.384,376.667 944.419,376.667 956.453,376.667 968.488,376.667 980.523,376.667 992.558,376.667 1004.593,376.667 1016.628,376.667 1028.663,376.667 1040.698,376.667 1051.930,376.896 1063.163,377.553 1074.395,378.590 1085.628,379.960 1096.860,381.615 1108.093,383.507 1119.326,385.589 1130.558,387.813 1141.791,390.133 1153.023,392.500 1164.256,394.867 1175.488,397.187 1186.721,399.411 1197.953,401.493 1209.186,403.385 1220.419,405.040 1231.651,406.410 1242.884,407.447 1254.116,408.104 1265.349,408.333 1281.395,408.333 1297.442,408.333 1313.488,408.333 1329.535,408.333 1345.581,408.333 1361.628,408.333 1377.674,408.333 1393.721,408.333 1409.767,408.333 1425.814,408.333 1441.860,408.333 1457.907,408.333 1473.953,408.333 1490.000,408.333" fill="none" stroke="#e5a6a0" stroke-width="0.75" opacity="0.95"/>
<polyline points="110.000,376.667 126.047,376.667 142.093,376.667 158.140,376.667 174.186,376.667 190.233,376.667 206.279,376.667 222.326,376.667 238.372,376.667 254.419,376.667 270.465,376.667 286.512,376.667 302.558,376.667 318.605,376.667 334.651,376.667 345.884,376.552 357.116,376.223 368.349,375.705 379.581,375.020 390.814,374.193 402.047,373.247 413.279,372.206 424.512,371.093 435.744,369.934 446.977,368.750 458.209,367.566 469.442,366.407 480.674,365.294 491.907,364.253 503.140,363.307 514.372,362.480 525.605,361.795 536.837,361.277 548.070,360.948 559.302,360.833 571.337,360.833 583.372,360.833 595.407,360.833 607.442,360.833 619.477,360.833 631.512,360.833 643.547,360.833 655.581,360.833 667.616,360.833 679.651,360.833 691.686,360.833 703.721,360.833 715.756,360.833 727.791,360.833 739.826,360.833 751.860,360.833 763.895,360.833 775.930,360.833 787.965,360.833 800.000,360.833 812.035,360.833 824.070,360.833 836.105,360.833 848.140,360.833 860.174,360.833 872.209,360.833 884.244,360.833 896.279,360.833 908.314,360.833 920.349,360.833 932.384,360.833 944.419,360.833 956.453,360.833 968.488,360.833 980.523,360.833 992.558,360.833 1004.593,360.833 1016.628,360.833 1028.663,360.833 1040.698,360.833 1051.930,360.948 1063.163,361.277 1074.395,361.795 1085.628,362.480 1096.860,363.307 1108.093,364.253 1119.326,365.294 1130.558,366.407 1141.791,367.566 1153.023,368.750 1164.256,369.934 1175.488,371.093 1186.721,372.206 1197.953,373.247 1209.186,374.193 1220.419,375.020 1231.651,375.705 1242.884,376.223 1254.116,376.552 1265.349,376.667 1281.395,376.667 1297.442,376.667 1313.488,376.667 1329.535,376.667 1345.581,376.667 1361.628,376.667 1377.674,376.667 1393.721,376.667 1409.767,376.667 1425.814,376.667 1441.860,376.667 1457.907,376.667 1473.953,376.667 1490.000,376.667" fill="none" stroke="#e5a6a0" stroke-width="0.75" opacity="0.95"/>
<polyline points="110.000,345.000 126.047,345.000 142.093,345.000 158.140,345.000 174.186,345.000 190.233,345.000 206.279,345.000 222.326,345.000 238.372,345.000 254.419,345.000 270.465,345.000 286.512,345.000 302.558,345.000 318.605,345.000 334.651,345.000 345.884,345.000 357.116,345.000 368.349,345.000 379.581,345.000 390.814,345.000 402.047,345.000 413.279,345.000 424.512,345.000 435.744,345.000 446.977,345.000 458.209,345.000 469.442,345.000 480.674,345.000 491.907,345.000 503.140,345.000 514.372,345.000 525.605,345.000 536.837,345.000 548.070,345.000 559.302,345.000 571.337,345.000 583.372,345.000 595.407,345.000 607.442,345.000 619.477,345.000 631.512,345.000 643.547,345.000 655.581,345.000 667.616,345.000 679.651,345.000 691.686,345.000 703.721,345.000 715.756,345.000 727.791,345.000 739.826,345.000 751.860,345.000 763.895,345.000 775.930,345.000 787.965,345.000 800.000,345.000 812.035,345.000 824.070,345.000 836.105,345.000 848.140,345.000 860.174,345.000 872.209,345.000 884.244,345.000 896.279,345.000 908.314,345.000 920.349,345.000 932.384,345.000 944.419,345.000 956.453,345.000 968.488,345.000 980.523,345.000 992.558,345.000 1004.593,345.000 1016.628,345.000 1028.663,345.000 1040.698,345.000 1051.930,345.000 1063.163,345.000 1074.395,345.000 1085.628,345.000 1096.860,345.000 1108.093,345.000 1119.326,345.000 1130.558,345.000 1141.791,345.000 1153.023,345.000 1164.256,345.000 1175.488,345.000 1186.721,345.000 1197.953,345.000 1209.186,345.000 1220.419,345.000 1231.651,345.000 1242.884,345.000 1254.116,345.000 1265.349,345.000 1281.395,345.000 1297.442,345.000 1313.488,345.000 1329.535,345.000 1345.581,345.000 1361.628,345.000 1377.674,345.000 1393.721,345.000 1409.767,345.000 1425.814,345.000 1441.860,345.000 1457.907,345.000 1473.953,345.000 1490.000,345.000" fill="none" stroke="#c0392b" stroke-width="1.5" opacity="0.95"/>
<polyline points="110.000,313.333 126.047,313.333 142.093,313.333 158.140,313.333 174.186,313.333 190.233,313.333 206.279,313.333 222.326,313.333 238.372,313.333 254.419,313.333 270.465,313.333 286.512,313.333 302.558,313.333 318.605,313.333 334.651,313.333 345.884,313.448 357.116,313.777 368.349,314.295 379.581,314.980 390.814,315.807 402.047,316.753 413.279,317.794 424.512,318.907 435.744,320.066 446.977,321.250 458.209,322.434 469.442,323.593 480.674,324.706 491.907,325.747 503.140,326.693 514.372,327.520 525.605,328.205 536.837,328.723 548.070,329.052 559.302,329.167 571.337,329.167 583.372,329.167 595.407,329.167 607.442,329.167 619.477,329.167 631.512,329.167 643.547,329.167 655.581,329.167 667.616,329.167 679.651,329.167 691.686,329.167 703.721,329.167 715.756,329.167 727.791,329.167 739.826,329.167 751.860,329.167 763.895,329.167 775.930,329.167 787.965,329.167 800.000,329.167 812.035,329.167 824.070,329.167 836.105,329.167 848.140,329.167 860.174,329.167 872.209,329.167 884.244,329.167 896.279,329.167 908.314,329.167 920.349,329.167 932.384,329.167 944.419,329.167 956.453,329.167 968.488,329.167 980.523,329.167 992.558,329.167 1004.593,329.167 1016.628,329.167 1028.663,329.167 1040.698,329.167 1051.930,329.052 1063.163,328.723 1074.395,328.205 1085.628,327.520 1096.860,326.693 1108.093,325.747 1119.326,324.706 1130.558,323.593 1141.791,322.434 1153.023,321.250 1164.256,320.066 1175.488,318.907 1186.721,317.794 1197.953,316.753 1209.186,315.807 1220.419,314.980 1231.651,314.295 1242.884,313.777 1254.116,313.448 1265.349,313.333 1281.395,313.333 1297.442,313.333 1313.488,313.333 1329.535,313.333 1345.581,313.333 1361.628,313.333 1377.674,313.333 1393.721,313.333 1409.767,313.333 1425.814,313.333 1441.860,313.333 1457.907,313.333 1473.953,313.333 1490.000,313.333" fill="none" stroke="#e5a6a0" stroke-width="0.75" opacity="0.95"/>
<polyline points="110.000,281.667 126.047,281.667 142.093,281.667 158.140,281.667 174.186,281.667 190.233,281.667 206.279,281.667 222.326,281.667 238.372,281.667 254.419,281.667 270.465,281.667 286.512,281.667 302.558,281.667 318.605,281.667 334.651,281.667 345.884,281.896 357.116,282.553 368.349,283.590 379.581,284.960 390.814,286.615 402.047,288.507 413.279,290.589 424.512,292.813 435.744,295.133 446.977,297.500 458.209,299.867 469.442,302.187 480.674,304.411 491.907,306.493 503.140,308.385 514.372,310.040 525.605,311.410 536.837,312.447 548.070,313.104 559.302,313.333 571.337,313.333 583.372,313.333 595.407,313.333 607.442,313.333 619.477,313.333 631.512,313.333 643.547,313.333 655.581,313.333 667.616,313.333 679.651,313.333 691.686,313.333 703.721,313.333 715.756,313.333 727.791,313.333 739.826,313.333 751.860,313.333 763.895,313.333 775.930,313.333 787.965,313.333 800.000,313.333 812.035,313.333 824.070,313.333 836.105,313.333 848.140,313.333 860.174,313.333 872.209,313.333 884.244,313.333 896.279,313.333 908.314,313.333 920.349,313.333 932.384,313.333 944.419,313.333 956.453,313.333 968.488,313.333 980.523,313.333 992.558,313.333 1004.593,313.333 1016.628,313.333 1028.663,313.333 1040.698,313.333 1051.930,313.104 1063.163,312.447 1074.395,311.410 1085.628,310.040 1096.860,308.385 1108.093,306.493 1119.326,304.411 1130.558,302.187 1141.791,299.867 1153.023,297.500 1164.256,295.133 1175.488,292.813 1186.721,290.589 1197.953,288.507 1209.186,286.615 1220.419,284.960 1231.651,283.590 1242.884,282.553 1254.116,281.896 1265.349,281.667 1281.395,281.667 1297.442,281.667 1313.488,281.667 1329.535,281.667 1345.581,281.667 1361.628,281.667 1377.674,281.667 1393.721,281.667 1409.767,281.667 1425.814,281.667 1441.860,281.667 1457.907,281.667 1473.953,281.667 1490.000,281.667" fill="none" stroke="#e5a6a0" stroke-width="0.75" opacity="0.95"/>
<polyline points="110.000,250.000 126.047,250.000 142.093,250.000 158.140,250.000 174.186,250.000 190.233,250.000 206.279,250.000 222.326,250.000 238.372,250.000 254.419,250.000 270.465,250.000 286.512,250.000 302.558,250.000 318.605,250.000 334.651,250.000 345.884,250.344 357.116,251.330 368.349,252.886 379.581,254.940 390.814,257.422 402.047,260.260 413.279,263.383 424.512,266.720 435.744,270.199 446.977,273.750 458.209,277.301 469.442,280.780 480.674,284.117 491.907,287.240 503.140,290.078 514.372,292.560 525.605,294.614 536.837,296.170 548.070,297.156 559.302,297.500 571.337,297.500 583.372,297.500 595.407,297.500 607.442,297.500 619.477,297.500 631.512,297.500 643.547,297.500 655.581,297.500 667.616,297.500 679.651,297.500 691.686,297.500 703.721,297.500 715.756,297.500 727.791,297.500 739.826,297.500 751.860,297.500 763.895,297.500 775.930,297.500 787.965,297.500 800.000,297.500 812.035,297.500 824.070,297.500 836.105,297.500 848.140,297.500 860.174,297.500 872.209,297.500 884.244,297.500 896.279,297.500 908.314,297.500 920.349,297.500 932.384,297.500 944.419,297.500 956.453,297.500 968.488,297.500 980.523,297.500 992.558,297.500 1004.593,297.500 1016.628,297.500 1028.663,297.500 1040.698,297.500 1051.930,297.156 1063.163,296.170 1074.395,294.614 1085.628,292.560 1096.860,290.078 1108.093,287.240 1119.326,284.117 1130.558,280.780 1141.791,277.301 1153.023,273.750 1164.256,270.199 1175.488,266.720 1186.721,263.383 1197.953,260.260 1209.186,257.422 1220.419,254.940 1231.651,252.886 1242.884,251.330 1254.116,250.344 1265.349,250.000 1281.395,250.000 1297.442,250.000 1313.488,250.000 1329.535,250.000 1345.581,250.000 1361.628,250.000 1377.674,250.000 1393.721,250.000 1409.767,250.000 1425.814,250.000 1441.860,250.000 1457.907,250.000 1473.953,250.000 1490.000,250.000" fill="none" stroke="#e5a6a0" stroke-width="0.75" opacity="0.95"/>
<polyline points="110.000,218.333 126.047,218.333 142.093,218.333 158.140,218.333 174.186,218.333 190.233,218.333 206.279,218.333 222.326,218.333 238.372,218.333 254.419,218.333 270.465,218.333 286.512,218.333 302.558,218.333 318.605,218.333 334.651,218.333 345.884,218.793 357.116,220.107 368.349,222.181 379.581,224.920 390.814,228.229 402.047,232.013 413.279,236.178 424.512,240.627 435.744,245.266 446.977,250.000 458.209,254.734 469.442,259.373 480.674,263.822 491.907,267.987 503.140,271.771 514.372,275.080 525.605,277.819 536.837,279.893 548.070,281.207 559.302,281.667 571.337,281.667 583.372,281.667 595.407,281.667 607.442,281.667 619.477,281.667 631.512,281.667 643.547,281.667 655.581,281.667 667.616,281.667 679.651,281.667 691.686,281.667 703.721,281.667 715.756,281.667 727.791,281.667 739.826,281.667 751.860,281.667 763.895,281.667 775.930,281.667 787.965,281.667 800.000,281.667 812.035,281.667 824.070,281.667 836.105,281.667 848.140,281.667 860.174,281.667 872.209,281.667 884.244,281.667 896.279,281.667 908.314,281.667 920.349,281.667 932.384,281.667 944.419,281.667 956.453,281.667 968.488,281.667 980.523,281.667 992.558,281.667 1004.593,281.667 1016.628,281.667 1028.663,281.667 1040.698,281.667 1051.930,281.207 1063.163,279.893 1074.395,277.819 1085.628,275.080 1096.860,271.771 1108.093,267.987 1119.326,263.822 1130.558,259.373 1141.791,254.734 1153.023,250.000 1164.256,245.266 1175.488,240.627 1186.721,236.178 1197.953,232.013 1209.186,228.229 1220.419,224.920 1231.651,222.181 1242.884,220.107 1254.116,218.793 1265.349,218.333 1281.395,218.333 1297.442,218.333 1313.488,218.333 1329.535,218.333 1345.581,218.333 1361.628,218.333 1377.674,218.333 1393.721,218.333 1409.767,218.333 1425.814,218.333 1441.860,218.333 1457.907,218.333 1473.953,218.333 1490.000,218.333" fill="none" stroke="#e5a6a0" stroke-width="0.75" opacity="0.95"/>
<polyline points="110.000,186.667 126.047,186.667 142.093,186.667 158.140,186.667 174.186,186.667 190.233,186.667 206.279,186.667 222.326,186.667 238.372,186.667 254.419,186.667 270.465,186.667 286.512,186.667 302.558,186.667 318.605,186.667 334.651,186.667 345.884,187.241 357.116,188.883 368.349,191.476 379.581,194.900 390.814,199.036 402.047,203.767 413.279,208.972 424.512,214.533 435.744,220.332 446.977,226.250 458.209,232.168 469.442,237.967 480.674,243.528 491.907,248.733 503.140,253.464 514.372,257.600 525.605,261.024 536.837,263.617 548.070,265.259 559.302,265.833 571.337,265.833 583.372,265.833 595.407,265.833 607.442,265.833 619.477,265.833 631.512,265.833 643.547,265.833 655.581,265.833 667.616,265.833 679.651,265.833 691.686,265.833 703.721,265.833 715.756,265.833 727.791,265.833 739.826,265.833 751.860,265.833 763.895,265.833 775.930,265.833 787.965,265.833 800.000,265.833 812.035,265.833 824.070,265.833 836.105,265.833 848.140,265.833 860.174,265.833 872.209,265.833 884.244,265.833 896.279,265.833 908.314,265.833 920.349,265.833 932.384,265.833 944.419,265.833 956.453,265.833 968.488,265.833 980.523,265.833 992.558,265.833 1004.593,265.833 1016.628,265.833 1028.663,265.833 1040.698,265.833 1051.930,265.259 1063.163,263.617 1074.395,261.024 1085.628,257.600 1096.860,253.464 1108.093,248.733 1119.326,243.528 1130.558,237.967 1141.791,232.168 1153.023,226.250 1164.256,220.332 1175.488,214.533 1186.721,208.972 1197.953,203.767 1209.186,199.036 1220.419,194.900 1231.651,191.476 1242.884,188.883 1254.116,187.241 1265.349,186.667 1281.395,186.667 1297.442,186.667 1313.488,186.667 1329.535,186.667 1345.581,186.667 1361.628,186.667 1377.674,186.667 1393.721,186.667 1409.767,186.667 1425.814,186.667 1441.860,186.667 1457.907,186.667 1473.953,186.667 1490.000,186.667" fill="none" stroke="#e5a6a0" stroke-width="0.75" opacity="0.95"/>
<polyline points="110.000,155.000 126.047,155.000 142.093,155.000 158.140,155.000 174.186,155.000 190.233,155.000 206.279,155.000 222.326,155.000 238.372,155.000 254.419,155.000 270.465,155.000 286.512,155.000 302.558,155.000 318.605,155.000 334.651,155.000 345.884,155.689 357.116,157.660 368.349,160.771 379.581,164.880 390.814,169.844 402.047,175.520 413.279,181.766 424.512,188.440 435.744,195.399 446.977,202.500 458.209,209.601 469.442,216.560 480.674,223.234 491.907,229.480 503.140,235.156 514.372,240.120 525.605,244.229 536.837,247.340 548.070,249.311 559.302,250.000 571.337,250.000 583.372,250.000 595.407,250.000 607.442,250.000 619.477,250.000 631.512,250.000 643.547,250.000 655.581,250.000 667.616,250.000 679.651,250.000 691.686,250.000 703.721,250.000 715.756,250.000 727.791,250.000 739.826,250.000 751.860,250.000 763.895,250.000 775.930,250.000 787.965,250.000 800.000,250.000 812.035,250.000 824.070,250.000 836.105,250.000 848.140,250.000 860.174,250.000 872.209,250.000 884.244,250.000 896.279,250.000 908.314,250.000 920.349,250.000 932.384,250.000 944.419,250.000 956.453,250.000 968.488,250.000 980.523,250.000 992.558,250.000 1004.593,250.000 1016.628,250.000 1028.663,250.000 1040.698,250.000 1051.930,249.311 1063.163,247.340 1074.395,244.229 1085.628,240.120 1096.860,235.156 1108.093,229.480 1119.326,223.234 1130.558,216.560 1141.791,209.601 1153.023,202.500 1164.256,195.399 1175.488,188.440 1186.721,181.766 1197.953,175.520 1209.186,169.844 1220.419,164.880 1231.651,160.771 1242.884,157.660 1254.116,155.689 1265.349,155.000 1281.395,155.000 1297.442,155.000 1313.488,155.000 1329.535,155.000 1345.581,155.000 1361.628,155.000 1377.674,155.000 1393.721,155.000 1409.767,155.000 1425.814,155.000 1441.860,155.000 1457.907,155.000 1473.953,155.000 1490.000,155.000" fill="none" stroke="#e5a6a0" stroke-width="0.75" opacity="0.95"/>
<polyline points="110.000,765.000 110.000,760.000 110.000,755.000 110.000,750.000 110.000,745.000" fill="none" stroke="#9bbbe0" stroke-width="0.75" opacity="0.95"/>
<polyline points="120.465,765.000 120.465,760.000 120.465,755.000 120.465,750.000 120.465,745.000" fill="none" stroke="#9bbbe0" stroke-width="0.75" opacity="0.95"/>
<polyline points="130.930,765.000 130.930,760.000 130.930,755.000 130.930,750.000 130.930,745.000" fill="none" stroke="#9bbbe0" stroke-width="0.75" opacity="0.95"/>
<polyline points="141.395,765.000 141.395,760.000 141.395,755.000 141.395,750.000 141.395,745.000" fill="none" stroke="#9bbbe0" stroke-width="0.75" opacity="0.95"/>
<polyline points="151.860,765.000 151.860,760.000 151.860,755.000 151.860,750.000 151.860,745.000" fill="none" stroke="#9bbbe0" stroke-width="0.75" opacity="0.95"/>
<polyline points="162.326,765.000 162.326,760.000 162.326,755.000 162.326,750.000 162.326,745.000" fill="none" stroke="#9bbbe0" stroke-width="0.75" opacity="0.95"/>
<polyline points="172.791,765.000 172.791,760.000 172.791,755.000 172.791,750.000 172.791,745.000" fill="none" stroke="#9bbbe0" stroke-width="0.75" opacity="0.95"/>
<polyline points="183.256,765.000 183.256,760.000 183.256,755.000 183.256,750.000 183.256,745.000" fill="none" stroke="#9bbbe0" stroke-width="0.75" opacity="0.95"/>
<polyline points="193.721,765.000 193.721,760.000 193.721,755.000 193.721,750.000 193.721,745.000" fill="none" stroke="#9bbbe0" stroke-width="0.75" opacity="0.95"/>
<polyline points="204.186,765.000 204.186,760.000 204.186,755.000 204.186,750.000 204.186,745.000" fill="none" stroke="#9bbbe0" stroke-width="0.75" opacity="0.95"/>
<polyline points="214.651,765.000 214.651,760.000 214.651,755.000 214.651,750.000 214.651,745.000" fill="none" stroke="#9bbbe0" stroke-width="0.75" opacity="0.95"/>
<polyline points="225.116,765.000 225.116,760.000 225.116,755.000 225.116,750.000 225.116,745.000" fill="none" stroke="#9bbbe0" stroke-width="0.75" opacity="0.95"/>
<polyline points="235.581,765.000 235.581,760.000 235.581,755.000 235.581,750.000 235.581,745.000" fill="none" stroke="#9bbbe0" stroke-width="0.75" opacity="0.95"/>
<polyline points="246.047,765.000 246.047,760.000 246.047,755.000 246.047,750.000 246.047,745.000" fill="none" stroke="#9bbbe0" stroke-width="0.75" opacity="0.95"/>
<polyline points="256.512,765.000 256.512,760.000 256.512,755.000 256.512,750.000 256.512,745.000" fill="none" stroke="#9bbbe0" stroke-width="0.75" opacity="0.95"/>
<polyline points="263.837,765.000 263.837,760.000 263.837,755.000 263.837,750.000 263.837,745.000" fill="none" stroke="#9bbbe0" stroke-width="0.75" opacity="0.95"/>
<polyline points="271.163,765.000 271.163,760.000 271.163,755.000 271.163,750.000 271.163,745.000" fill="none" stroke="#9bbbe0" stroke-width="0.75" opacity="0.95"/>
<polyline points="278.488,765.000 278.488,760.000 278.488,755.000 278.488,750.000 278.488,745.000" fill="none" stroke="#9bbbe0" stroke-width="0.75" opacity="0.95"/>
<polyline points="285.814,765.000 285.814,760.000 285.814,755.000 285.814,750.000 285.814,745.000" fill="none" stroke="#9bbbe0" stroke-width="0.75" opacity="0.95"/>
<polyline points="293.140,765.000 293.140,760.000 293.140,755.000 293.140,750.000 293.140,745.000" fill="none" stroke="#9bbbe0" stroke-width="0.75" opacity="0.95"/>
<polyline points="300.465,765.000 300.465,760.000 300.465,755.000 300.465,750.000 300.465,745.000" fill="none" stroke="#9bbbe0" stroke-width="0.75" opacity="0.95"/>
<polyline points="307.791,765.000 307.791,760.000 307.791,755.000 307.791,750.000 307.791,745.000" fill="none" stroke="#9bbbe0" stroke-width="0.75" opacity="0.95"/>
<polyline points="315.116,765.000 315.116,760.000 315.116,755.000 315.116,750.000 315.116,745.000" fill="none" stroke="#9bbbe0" stroke-width="0.75" opacity="0.95"/>
<polyline points="322.442,765.000 322.442,760.000 322.442,755.000 322.442,750.000 322.442,745.000" fill="none" stroke="#9bbbe0" stroke-width="0.75" opacity="0.95"/>
<polyline points="329.767,765.000 329.767,760.000 329.767,755.000 329.767,750.000 329.767,745.000" fill="none" stroke="#9bbbe0" stroke-width="0.75" opacity="0.95"/>
<polyline points="337.093,765.000 337.093,760.000 337.093,755.000 337.093,750.000 337.093,745.000" fill="none" stroke="#9bbbe0" stroke-width="0.75" opacity="0.95"/>
<polyline points="344.419,765.000 344.419,760.000 344.419,755.000 344.419,750.000 344.419,745.000" fill="none" stroke="#9bbbe0" stroke-width="0.75" opacity="0.95"/>
<polyline points="351.744,765.000 351.744,760.000 351.744,755.000 351.744,750.000 351.744,745.000" fill="none" stroke="#9bbbe0" stroke-width="0.75" opacity="0.95"/>
<polyline points="359.070,765.000 359.070,760.000 359.070,755.000 359.070,750.000 359.070,745.000" fill="none" stroke="#9bbbe0" stroke-width="0.75" opacity="0.95"/>
<polyline points="366.395,765.000 366.395,760.000 366.395,755.000 366.395,750.000 366.395,745.000" fill="none" stroke="#9bbbe0" stroke-width="0.75" opacity="0.95"/>
<polyline points="373.721,765.000 373.721,760.000 373.721,755.000 373.721,750.000 373.721,745.000" fill="none" stroke="#9bbbe0" stroke-width="0.75" opacity="0.95"/>
<polyline points="381.047,765.000 381.047,760.000 381.047,755.000 381.047,750.000 381.047,745.000" fill="none" stroke="#9bbbe0" stroke-width="0.75" opacity="0.95"/>
<polyline points="388.372,765.000 388.372,760.000 388.372,755.000 388.372,750.000 388.372,745.000" fill="none" stroke="#9bbbe0" stroke-width="0.75" opacity="0.95"/>
<polyline points="395.698,765.000 395.698,760.000 395.698,755.000 395.698,750.000 395.698,745.000" fill="none" stroke="#9bbbe0" stroke-width="0.75" opacity="0.95"/>
<polyline points="403.023,765.000 403.023,760.000 403.023,755.000 403.023,750.000 403.023,745.000" fill="none" stroke="#9bbbe0" stroke-width="0.75" opacity="0.95"/>
<polyline points="410.872,765.000 410.872,760.000 410.872,755.000 410.872,750.000 410.872,745.000" fill="none" stroke="#9bbbe0" stroke-width="0.75" opacity="0.95"/>
<polyline points="418.721,765.000 418.721,760.000 418.721,755.000 418.721,750.000 418.721,745.000" fill="none" stroke="#9bbbe0" stroke-width="0.75" opacity="0.95"/>
<polyline points="426.570,765.000 426.570,760.000 426.570,755.000 426.570,750.000 426.570,745.000" fill="none" stroke="#9bbbe0" stroke-width="0.75" opacity="0.95"/>
<polyline points="434.419,765.000 434.419,760.000 434.419,755.000 434.419,750.000 434.419,745.000" fill="none" stroke="#9bbbe0" stroke-width="0.75" opacity="0.95"/>
<polyline points="442.267,765.000 442.267,760.000 442.267,755.000 442.267,750.000 442.267,745.000" fill="none" stroke="#9bbbe0" stroke-width="0.75" opacity="0.95"/>
<polyline points="450.116,765.000 450.116,760.000 450.116,755.000 450.116,750.000 450.116,745.000" fill="none" stroke="#9bbbe0" stroke-width="0.75" opacity="0.95"/>
<polyline points="457.965,765.000 457.965,760.000 457.965,755.000 457.965,750.000 457.965,745.000" fill="none" stroke="#9bbbe0" stroke-width="0.75" opacity="0.95"/>
<polyline points="465.814,765.000 465.814,760.000 465.814,755.000 465.814,750.000 465.814,745.000" fill="none" stroke="#9bbbe0" stroke-width="0.75" opacity="0.95"/>
<polyline points="473.663,765.000 473.663,760.000 473.663,755.000 473.663,750.000 473.663,745.000" fill="none" stroke="#9bbbe0" stroke-width="0.75" opacity="0.95"/>
<polyline points="481.512,765.000 481.512,760.000 481.512,755.000 481.512,750.000 481.512,745.000" fill="none" stroke="#9bbbe0" stroke-width="0.75" opacity="0.95"/>
<polyline points="489.360,765.000 489.360,760.000 489.360,755.000 489.360,750.000 489.360,745.000" fill="none" stroke="#9bbbe0" stroke-width="0.75" opacity="0.95"/>
<polyline points="497.209,765.000 497.209,760.000 497.209,755.000 497.209,750.000 497.209,745.000" fill="none" stroke="#9bbbe0" stroke-width="0.75" opacity="0.95"/>
<polyline points="505.058,765.000 505.058,760.000 505.058,755.000 505.058,750.000 505.058,745.000" fill="none" stroke="#9bbbe0" stroke-width="0.75" opacity="0.95"/>
<polyline points="512.907,765.000 512.907,760.000 512.907,755.000 512.907,750.000 512.907,745.000" fill="none" stroke="#9bbbe0" stroke-width="0.75" opacity="0.95"/>
<polyline points="520.756,765.000 520.756,760.000 520.756,755.000 520.756,750.000 520.756,745.000" fill="none" stroke="#9bbbe0" stroke-width="0.75" opacity="0.95"/>
<polyline points="528.605,765.000 528.605,760.000 528.605,755.000 528.605,750.000 528.605,745.000" fill="none" stroke="#9bbbe0" stroke-width="0.75" opacity="0.95"/>
<polyline points="536.453,765.000 536.453,760.000 536.453,755.000 536.453,750.000 536.453,745.000" fill="none" stroke="#9bbbe0" stroke-width="0.75" opacity="0.95"/>
<polyline points="544.302,765.000 544.302,760.000 544.302,755.000 544.302,750.000 544.302,745.000" fill="none" stroke="#9bbbe0" stroke-width="0.75" opacity="0.95"/>
<polyline points="552.151,765.000 552.151,760.000 552.151,755.000 552.151,750.000 552.151,745.000" fill="none" stroke="#9bbbe0" stroke-width="0.75" opacity="0.95"/>
<polyline points="560.000,765.000 560.000,760.000 560.000,755.000 560.000,750.000 560.000,745.000" fill="none" stroke="#2f6db2" stroke-width="1.5" opacity="0.95"/>
<polyline points="567.849,765.000 567.849,760.000 567.849,755.000 567.849,750.000 567.849,745.000" fill="none" stroke="#9bbbe0" stroke-width="0.75" opacity="0.95"/>
<polyline points="575.698,765.000 575.698,760.000 575.698,755.000 575.698,750.000 575.698,745.000" fill="none" stroke="#9bbbe0" stroke-width="0.75" opacity="0.95"/>
<polyline points="583.547,765.000 583.547,760.000 583.547,755.000 583.547,750.000 583.547,745.000" fill="none" stroke="#9bbbe0" stroke-width="0.75" opacity="0.95"/>
<polyline points="591.395,765.000 591.395,760.000 591.395,755.000 591.395,750.000 591.395,745.000" fill="none" stroke="#9bbbe0" stroke-width="0.75" opacity="0.95"/>
<polyline points="599.244,765.000 599.244,760.000 599.244,755.000 599.244,750.000 599.244,745.000" fill="none" stroke="#9bbbe0" stroke-width="0.75" opacity="0.95"/>
<polyline points="607.093,765.000 607.093,760.000 607.093,755.000 607.093,750.000 607.093,745.000" fill="none" stroke="#9bbbe0" stroke-width="0.75" opacity="0.95"/>
<polyline points="614.942,765.000 614.942,760.000 614.942,755.000 614.942,750.000 614.942,745.000" fill="none" stroke="#9bbbe0" stroke-width="0.75" opacity="0.95"/>
<polyline points="622.791,765.000 622.791,760.000 622.791,755.000 622.791,750.000 622.791,745.000" fill="none" stroke="#9bbbe0" stroke-width="0.75" opacity="0.95"/>
<polyline points="630.640,765.000 630.640,760.000 630.640,755.000 630.640,750.000 630.640,745.000" fill="none" stroke="#9bbbe0" stroke-width="0.75" opacity="0.95"/>
<polyline points="638.488,765.000 638.488,760.000 638.488,755.000 638.488,750.000 638.488,745.000" fill="none" stroke="#9bbbe0" stroke-width="0.75" opacity="0.95"/>
<polyline points="646.337,765.000 646.337,760.000 646.337,755.000 646.337,750.000 646.337,745.000" fill="none" stroke="#9bbbe0" stroke-width="0.75" opacity="0.95"/>
<polyline points="654.186,765.000 654.186,760.000 654.186,755.000 654.186,750.000 654.186,745.000" fill="none" stroke="#9bbbe0" stroke-width="0.75" opacity="0.95"/>
<polyline points="662.035,765.000 662.035,760.000 662.035,755.000 662.035,750.000 662.035,745.000" fill="none" stroke="#9bbbe0" stroke-width="0.75" opacity="0.95"/>
<polyline points="669.884,765.000 669.884,760.000 669.884,755.000 669.884,750.000 669.884,745.000" fill="none" stroke="#9bbbe0" stroke-width="0.75" opacity="0.95"/>
<polyline points="677.733,765.000 677.733,760.000 677.733,755.000 677.733,750.000 677.733,745.000" fill="none" stroke="#9bbbe0" stroke-width="0.75" opacity="0.95"/>
<polyline points="685.581,765.000 685.581,760.000 685.581,755.000 685.581,750.000 685.581,745.000" fill="none" stroke="#9bbbe0" stroke-width="0.75" opacity="0.95"/>
<polyline points="693.430,765.000 693.430,760.000 693.430,755.000 693.430,750.000 693.430,745.000" fill="none" stroke="#9bbbe0" stroke-width="0.75" opacity="0.95"/>
<polyline points="701.279,765.000 701.279,760.000 701.279,755.000 701.279,750.000 701.279,745.000" fill="none" stroke="#9bbbe0" stroke-width="0.75" opacity="0.95"/>
<polyline points="709.128,765.000 709.128,760.000 709.128,755.000 709.128,750.000 709.128,745.000" fill="none" stroke="#9bbbe0" stroke-width="0.75" opacity="0.95"/>
<polyline points="716.977,765.000 716.977,760.000 716.977,755.000 716.977,750.000 716.977,745.000" fill="none" stroke="#9bbbe0" stroke-width="0.75" opacity="0.95"/>
<polyline points="724.302,765.000 724.302,760.000 724.302,755.000 724.302,750.000 724.302,745.000" fill="none" stroke="#9bbbe0" stroke-width="0.75" opacity="0.95"/>
<polyline points="731.628,765.000 731.628,760.000 731.628,755.000 731.628,750.000 731.628,745.000" fill="none" stroke="#9bbbe0" stroke-width="0.75" opacity="0.95"/>
<polyline points="738.953,765.000 738.953,760.000 738.953,755.000 738.953,750.000 738.953,745.000" fill="none" stroke="#9bbbe0" stroke-width="0.75" opacity="0.95"/>
<polyline points="746.279,765.000 746.279,760.000 746.279,755.000 746.279,750.000 746.279,745.000" fill="none" stroke="#9bbbe0" stroke-width="0.75" opacity="0.95"/>
<polyline points="753.605,765.000 753.605,760.000 753.605,755.000 753.605,750.000 753.605,745.000" fill="none" stroke="#9bbbe0" stroke-width="0.75" opacity="0.95"/>
<polyline points="760.930,765.000 760.930,760.000 760.930,755.000 760.930,750.000 760.930,745.000" fill="none" stroke="#9bbbe0" stroke-width="0.75" opacity="0.95"/>
<polyline points="768.256,765.000 768.256,760.000 768.256,755.000 768.256,750.000 768.256,745.000" fill="none" stroke="#9bbbe0" stroke-width="0.75" opacity="0.95"/>
<polyline points="775.581,765.000 775.581,760.000 775.581,755.000 775.581,750.000 775.581,745.000" fill="none" stroke="#9bbbe0" stroke-width="0.75" opacity="0.95"/>
<polyline points="782.907,765.000 782.907,760.000 782.907,755.000 782.907,750.000 782.907,745.000" fill="none" stroke="#9bbbe0" stroke-width="0.75" opacity="0.95"/>
<polyline points="790.233,765.000 790.233,760.000 790.233,755.000 790.233,750.000 790.233,745.000" fill="none" stroke="#9bbbe0" stroke-width="0.75" opacity="0.95"/>
<polyline points="797.558,765.000 797.558,760.000 797.558,755.000 797.558,750.000 797.558,745.000" fill="none" stroke="#9bbbe0" stroke-width="0.75" opacity="0.95"/>
<polyline points="804.884,765.000 804.884,760.000 804.884,755.000 804.884,750.000 804.884,745.000" fill="none" stroke="#9bbbe0" stroke-width="0.75" opacity="0.95"/>
<polyline points="812.209,765.000 812.209,760.000 812.209,755.000 812.209,750.000 812.209,745.000" fill="none" stroke="#9bbbe0" stroke-width="0.75" opacity="0.95"/>
<polyline points="819.535,765.000 819.535,760.000 819.535,755.000 819.535,750.000 819.535,745.000" fill="none" stroke="#9bbbe0" stroke-width="0.75" opacity="0.95"/>
<polyline points="826.860,765.000 826.860,760.000 826.860,755.000 826.860,750.000 826.860,745.000" fill="none" stroke="#9bbbe0" stroke-width="0.75" opacity="0.95"/>
<polyline points="834.186,765.000 834.186,760.000 834.186,755.000 834.186,750.000 834.186,745.000" fill="none" stroke="#9bbbe0" stroke-width="0.75" opacity="0.95"/>
<polyline points="841.512,765.000 841.512,760.000 841.512,755.000 841.512,750.000 841.512,745.000" fill="none" stroke="#9bbbe0" stroke-width="0.75" opacity="0.95"/>
<polyline points="848.837,765.000 848.837,760.000 848.837,755.000 848.837,750.000 848.837,745.000" fill="none" stroke="#9bbbe0" stroke-width="0.75" opacity="0.95"/>
<polyline points="856.163,765.000 856.163,760.000 856.163,755.000 856.163,750.000 856.163,745.000" fill="none" stroke="#9bbbe0" stroke-width="0.75" opacity="0.95"/>
<polyline points="863.488,765.000 863.488,760.000 863.488,755.000 863.488,750.000 863.488,745.000" fill="none" stroke="#9bbbe0" stroke-width="0.75" opacity="0.95"/>
<polyline points="873.953,765.000 873.953,760.000 873.953,755.000 873.953,750.000 873.953,745.000" fill="none" stroke="#9bbbe0" stroke-width="0.75" opacity="0.95"/>
<polyline points="884.419,765.000 884.419,760.000 884.419,755.000 884.419,750.000 884.419,745.000" fill="none" stroke="#9bbbe0" stroke-width="0.75" opacity="0.95"/>
<polyline points="894.884,765.000 894.884,760.000 894.884,755.000 894.884,750.000 894.884,745.000" fill="none" stroke="#9bbbe0" stroke-width="0.75" opacity="0.95"/>
<polyline points="905.349,765.000 905.349,760.000 905.349,755.000 905.349,750.000 905.349,745.000" fill="none" stroke="#9bbbe0" stroke-width="0.75" opacity="0.95"/>
<polyline points="915.814,765.000 915.814,760.000 915.814,755.000 915.814,750.000 915.814,745.000" fill="none" stroke="#9bbbe0" stroke-width="0.75" opacity="0.95"/>
<polyline points="926.279,765.000 926.279,760.000 926.279,755.000 926.279,750.000 926.279,745.000" fill="none" stroke="#9bbbe0" stroke-width="0.75" opacity="0.95"/>
<polyline points="936.744,765.000 936.744,760.000 936.744,755.000 936.744,750.000 936.744,745.000" fill="none" stroke="#9bbbe0" stroke-width="0.75" opacity="0.95"/>
<polyline points="947.209,765.000 947.209,760.000 947.209,755.000 947.209,750.000 947.209,745.000" fill="none" stroke="#9bbbe0" stroke-width="0.75" opacity="0.95"/>
<polyline points="957.674,765.000 957.674,760.000 957.674,755.000 957.674,750.000 957.674,745.000" fill="none" stroke="#9bbbe0" stroke-width="0.75" opacity="0.95"/>
<polyline points="968.140,765.000 968.140,760.000 968.140,755.000 968.140,750.000 968.140,745.000" fill="none" stroke="#9bbbe0" stroke-width="0.75" opacity="0.95"/>
<polyline points="978.605,765.000 978.605,760.000 978.605,755.000 978.605,750.000 978.605,745.000" fill="none" stroke="#9bbbe0" stroke-width="0.75" opacity="0.95"/>
<polyline points="989.070,765.000 989.070,760.000 989.070,755.000 989.070,750.000 989.070,745.000" fill="none" stroke="#9bbbe0" stroke-width="0.75" opacity="0.95"/>
<polyline points="999.535,765.000 999.535,760.000 999.535,755.000 999.535,750.000 999.535,745.000" fill="none" stroke="#9bbbe0" stroke-width="0.75" opacity="0.95"/>
<polyline points="1010.000,765.000 1010.000,760.000 1010.000,755.000 1010.000,750.000 1010.000,745.000" fill="none" stroke="#9bbbe0" stroke-width="0.75" opacity="0.95"/>
<polyline points="110.000,765.000 120.465,765.000 130.930,765.000 141.395,765.000 151.860,765.000 162.326,765.000 172.791,765.000 183.256,765.000 193.721,765.000 204.186,765.000 214.651,765.000 225.116,765.000 235.581,765.000 246.047,765.000 256.512,765.000 263.837,765.000 271.163,765.000 278.488,765.000 285.814,765.000 293.140,765.000 300.465,765.000 307.791,765.000 315.116,765.000 322.442,765.000 329.767,765.000 337.093,765.000 344.419,765.000 351.744,765.000 359.070,765.000 366.395,765.000 373.721,765.000 381.047,765.000 388.372,765.000 395.698,765.000 403.023,765.000 410.872,765.000 418.721,765.000 426.570,765.000 434.419,765.000 442.267,765.000 450.116,765.000 457.965,765.000 465.814,765.000 473.663,765.000 481.512,765.000 489.360,765.000 497.209,765.000 505.058,765.000 512.907,765.000 520.756,765.000 528.605,765.000 536.453,765.000 544.302,765.000 552.151,765.000 560.000,765.000 567.849,765.000 575.698,765.000 583.547,765.000 591.395,765.000 599.244,765.000 607.093,765.000 614.942,765.000 622.791,765.000 630.640,765.000 638.488,765.000 646.337,765.000 654.186,765.000 662.035,765.000 669.884,765.000 677.733,765.000 685.581,765.000 693.430,765.000 701.279,765.000 709.128,765.000 716.977,765.000 724.302,765.000 731.628,765.000 738.953,765.000 746.279,765.000 753.605,765.000 760.930,765.000 768.256,765.000 775.581,765.000 782.907,765.000 790.233,765.000 797.558,765.000 804.884,765.000 812.209,765.000 819.535,765.000 826.860,765.000 834.186,765.000 841.512,765.000 848.837,765.000 856.163,765.000 863.488,765.000 873.953,765.000 884.419,765.000 894.884,765.000 905.349,765.000 915.814,765.000 926.279,765.000 936.744,765.000 947.209,765.000 957.674,765.000 968.140,765.000 978.605,765.000 989.070,765.000 999.535,765.000 1010.000,765.000" fill="none" stroke="#9adbb8" stroke-width="1.0" opacity="0.95"/>
<polyline points="110.000,760.000 120.465,760.000 130.930,760.000 141.395,760.000 151.860,760.000 162.326,760.000 172.791,760.000 183.256,760.000 193.721,760.000 204.186,760.000 214.651,760.000 225.116,760.000 235.581,760.000 246.047,760.000 256.512,760.000 263.837,760.000 271.163,760.000 278.488,760.000 285.814,760.000 293.140,760.000 300.465,760.000 307.791,760.000 315.116,760.000 322.442,760.000 329.767,760.000 337.093,760.000 344.419,760.000 351.744,760.000 359.070,760.000 366.395,760.000 373.721,760.000 381.047,760.000 388.372,760.000 395.698,760.000 403.023,760.000 410.872,760.000 418.721,760.000 426.570,760.000 434.419,760.000 442.267,760.000 450.116,760.000 457.965,760.000 465.814,760.000 473.663,760.000 481.512,760.000 489.360,760.000 497.209,760.000 505.058,760.000 512.907,760.000 520.756,760.000 528.605,760.000 536.453,760.000 544.302,760.000 552.151,760.000 560.000,760.000 567.849,760.000 575.698,760.000 583.547,760.000 591.395,760.000 599.244,760.000 607.093,760.000 614.942,760.000 622.791,760.000 630.640,760.000 638.488,760.000 646.337,760.000 654.186,760.000 662.035,760.000 669.884,760.000 677.733,760.000 685.581,760.000 693.430,760.000 701.279,760.000 709.128,760.000 716.977,760.000 724.302,760.000 731.628,760.000 738.953,760.000 746.279,760.000 753.605,760.000 760.930,760.000 768.256,760.000 775.581,760.000 782.907,760.000 790.233,760.000 797.558,760.000 804.884,760.000 812.209,760.000 819.535,760.000 826.860,760.000 834.186,760.000 841.512,760.000 848.837,760.000 856.163,760.000 863.488,760.000 873.953,760.000 884.419,760.000 894.884,760.000 905.349,760.000 915.814,760.000 926.279,760.000 936.744,760.000 947.209,760.000 957.674,760.000 968.140,760.000 978.605,760.000 989.070,760.000 999.535,760.000 1010.000,760.000" fill="none" stroke="#9adbb8" stroke-width="1.0" opacity="0.95"/>
<polyline points="110.000,755.000 120.465,755.000 130.930,755.000 141.395,755.000 151.860,755.000 162.326,755.000 172.791,755.000 183.256,755.000 193.721,755.000 204.186,755.000 214.651,755.000 225.116,755.000 235.581,755.000 246.047,755.000 256.512,755.000 263.837,755.000 271.163,755.000 278.488,755.000 285.814,755.000 293.140,755.000 300.465,755.000 307.791,755.000 315.116,755.000 322.442,755.000 329.767,755.000 337.093,755.000 344.419,755.000 351.744,755.000 359.070,755.000 366.395,755.000 373.721,755.000 381.047,755.000 388.372,755.000 395.698,755.000 403.023,755.000 410.872,755.000 418.721,755.000 426.570,755.000 434.419,755.000 442.267,755.000 450.116,755.000 457.965,755.000 465.814,755.000 473.663,755.000 481.512,755.000 489.360,755.000 497.209,755.000 505.058,755.000 512.907,755.000 520.756,755.000 528.605,755.000 536.453,755.000 544.302,755.000 552.151,755.000 560.000,755.000 567.849,755.000 575.698,755.000 583.547,755.000 591.395,755.000 599.244,755.000 607.093,755.000 614.942,755.000 622.791,755.000 630.640,755.000 638.488,755.000 646.337,755.000 654.186,755.000 662.035,755.000 669.884,755.000 677.733,755.000 685.581,755.000 693.430,755.000 701.279,755.000 709.128,755.000 716.977,755.000 724.302,755.000 731.628,755.000 738.953,755.000 746.279,755.000 753.605,755.000 760.930,755.000 768.256,755.000 775.581,755.000 782.907,755.000 790.233,755.000 797.558,755.000 804.884,755.000 812.209,755.000 819.535,755.000 826.860,755.000 834.186,755.000 841.512,755.000 848.837,755.000 856.163,755.000 863.488,755.000 873.953,755.000 884.419,755.000 894.884,755.000 905.349,755.000 915.814,755.000 926.279,755.000 936.744,755.000 947.209,755.000 957.674,755.000 968.140,755.000 978.605,755.000 989.070,755.000 999.535,755.000 1010.000,755.000" fill="none" stroke="#2ca25f" stroke-width="1.6" opacity="0.95"/>
<polyline points="110.000,750.000 120.465,750.000 130.930,750.000 141.395,750.000 151.860,750.000 162.326,750.000 172.791,750.000 183.256,750.000 193.721,750.000 204.186,750.000 214.651,750.000 225.116,750.000 235.581,750.000 246.047,750.000 256.512,750.000 263.837,750.000 271.163,750.000 278.488,750.000 285.814,750.000 293.140,750.000 300.465,750.000 307.791,750.000 315.116,750.000 322.442,750.000 329.767,750.000 337.093,750.000 344.419,750.000 351.744,750.000 359.070,750.000 366.395,750.000 373.721,750.000 381.047,750.000 388.372,750.000 395.698,750.000 403.023,750.000 410.872,750.000 418.721,750.000 426.570,750.000 434.419,750.000 442.267,750.000 450.116,750.000 457.965,750.000 465.814,750.000 473.663,750.000 481.512,750.000 489.360,750.000 497.209,750.000 505.058,750.000 512.907,750.000 520.756,750.000 528.605,750.000 536.453,750.000 544.302,750.000 552.151,750.000 560.000,750.000 567.849,750.000 575.698,750.000 583.547,750.000 591.395,750.000 599.244,750.000 607.093,750.000 614.942,750.000 622.791,750.000 630.640,750.000 638.488,750.000 646.337,750.000 654.186,750.000 662.035,750.000 669.884,750.000 677.733,750.000 685.581,750.000 693.430,750.000 701.279,750.000 709.128,750.000 716.977,750.000 724.302,750.000 731.628,750.000 738.953,750.000 746.279,750.000 753.605,750.000 760.930,750.000 768.256,750.000 775.581,750.000 782.907,750.000 790.233,750.000 797.558,750.000 804.884,750.000 812.209,750.000 819.535,750.000 826.860,750.000 834.186,750.000 841.512,750.000 848.837,750.000 856.163,750.000 863.488,750.000 873.953,750.000 884.419,750.000 894.884,750.000 905.349,750.000 915.814,750.000 926.279,750.000 936.744,750.000 947.209,750.000 957.674,750.000 968.140,750.000 978.605,750.000 989.070,750.000 999.535,750.000 1010.000,750.000" fill="none" stroke="#9adbb8" stroke-width="1.0" opacity="0.95"/>
<polyline points="110.000,745.000 120.465,745.000 130.930,745.000 141.395,745.000 151.860,745.000 162.326,745.000 172.791,745.000 183.256,745.000 193.721,745.000 204.186,745.000 214.651,745.000 225.116,745.000 235.581,745.000 246.047,745.000 256.512,745.000 263.837,745.000 271.163,745.000 278.488,745.000 285.814,745.000 293.140,745.000 300.465,745.000 307.791,745.000 315.116,745.000 322.442,745.000 329.767,745.000 337.093,745.000 344.419,745.000 351.744,745.000 359.070,745.000 366.395,745.000 373.721,745.000 381.047,745.000 388.372,745.000 395.698,745.000 403.023,745.000 410.872,745.000 418.721,745.000 426.570,745.000 434.419,745.000 442.267,745.000 450.116,745.000 457.965,745.000 465.814,745.000 473.663,745.000 481.512,745.000 489.360,745.000 497.209,745.000 505.058,745.000 512.907,745.000 520.756,745.000 528.605,745.000 536.453,745.000 544.302,745.000 552.151,745.000 560.000,745.000 567.849,745.000 575.698,745.000 583.547,745.000 591.395,745.000 599.244,745.000 607.093,745.000 614.942,745.000 622.791,745.000 630.640,745.000 638.488,745.000 646.337,745.000 654.186,745.000 662.035,745.000 669.884,745.000 677.733,745.000 685.581,745.000 693.430,745.000 701.279,745.000 709.128,745.000 716.977,745.000 724.302,745.000 731.628,745.000 738.953,745.000 746.279,745.000 753.605,745.000 760.930,745.000 768.256,745.000 775.581,745.000 782.907,745.000 790.233,745.000 797.558,745.000 804.884,745.000 812.209,745.000 819.535,745.000 826.860,745.000 834.186,745.000 841.512,745.000 848.837,745.000 856.163,745.000 863.488,745.000 873.953,745.000 884.419,745.000 894.884,745.000 905.349,745.000 915.814,745.000 926.279,745.000 936.744,745.000 947.209,745.000 957.674,745.000 968.140,745.000 978.605,745.000 989.070,745.000 999.535,745.000 1010.000,745.000" fill="none" stroke="#9adbb8" stroke-width="1.0" opacity="0.95"/>
<polyline points="1250.000,819.600 1250.000,814.800 1250.000,810.000 1250.000,805.200 1250.000,800.400" fill="none" stroke="#e5a6a0" stroke-width="0.8" opacity="0.95"/>
<polyline points="1260.000,819.600 1260.000,814.800 1260.000,810.000 1260.000,805.200 1260.000,800.400" fill="none" stroke="#e5a6a0" stroke-width="0.8" opacity="0.95"/>
<polyline points="1270.000,819.600 1270.000,814.800 1270.000,810.000 1270.000,805.200 1270.000,800.400" fill="none" stroke="#e5a6a0" stroke-width="0.8" opacity="0.95"/>
<polyline points="1280.000,819.600 1280.000,814.800 1280.000,810.000 1280.000,805.200 1280.000,800.400" fill="none" stroke="#e5a6a0" stroke-width="0.8" opacity="0.95"/>
<polyline points="1290.000,819.600 1290.000,814.800 1290.000,810.000 1290.000,805.200 1290.000,800.400" fill="none" stroke="#e5a6a0" stroke-width="0.8" opacity="0.95"/>
<polyline points="1300.000,819.600 1300.000,814.800 1300.000,810.000 1300.000,805.200 1300.000,800.400" fill="none" stroke="#e5a6a0" stroke-width="0.8" opacity="0.95"/>
<polyline points="1310.000,819.600 1310.000,814.800 1310.000,810.000 1310.000,805.200 1310.000,800.400" fill="none" stroke="#c0392b" stroke-width="1.5" opacity="0.95"/>
<polyline points="1320.000,819.600 1320.000,814.800 1320.000,810.000 1320.000,805.200 1320.000,800.400" fill="none" stroke="#e5a6a0" stroke-width="0.8" opacity="0.95"/>
<polyline points="1330.000,819.600 1330.000,814.800 1330.000,810.000 1330.000,805.200 1330.000,800.400" fill="none" stroke="#e5a6a0" stroke-width="0.8" opacity="0.95"/>
<polyline points="1340.000,819.600 1340.000,814.800 1340.000,810.000 1340.000,805.200 1340.000,800.400" fill="none" stroke="#e5a6a0" stroke-width="0.8" opacity="0.95"/>
<polyline points="1350.000,819.600 1350.000,814.800 1350.000,810.000 1350.000,805.200 1350.000,800.400" fill="none" stroke="#e5a6a0" stroke-width="0.8" opacity="0.95"/>
<polyline points="1360.000,819.600 1360.000,814.800 1360.000,810.000 1360.000,805.200 1360.000,800.400" fill="none" stroke="#e5a6a0" stroke-width="0.8" opacity="0.95"/>
<polyline points="1370.000,819.600 1370.000,814.800 1370.000,810.000 1370.000,805.200 1370.000,800.400" fill="none" stroke="#e5a6a0" stroke-width="0.8" opacity="0.95"/>
<polyline points="1250.000,819.600 1260.000,819.600 1270.000,819.600 1280.000,819.600 1290.000,819.600 1300.000,819.600 1310.000,819.600 1320.000,819.600 1330.000,819.600 1340.000,819.600 1350.000,819.600 1360.000,819.600 1370.000,819.600" fill="none" stroke="#9adbb8" stroke-width="1.0" opacity="0.95"/>
<polyline points="1250.000,814.800 1260.000,814.800 1270.000,814.800 1280.000,814.800 1290.000,814.800 1300.000,814.800 1310.000,814.800 1320.000,814.800 1330.000,814.800 1340.000,814.800 1350.000,814.800 1360.000,814.800 1370.000,814.800" fill="none" stroke="#9adbb8" stroke-width="1.0" opacity="0.95"/>
<polyline points="1250.000,810.000 1260.000,810.000 1270.000,810.000 1280.000,810.000 1290.000,810.000 1300.000,810.000 1310.000,810.000 1320.000,810.000 1330.000,810.000 1340.000,810.000 1350.000,810.000 1360.000,810.000 1370.000,810.000" fill="none" stroke="#2ca25f" stroke-width="1.6" opacity="0.95"/>
<polyline points="1250.000,805.200 1260.000,805.200 1270.000,805.200 1280.000,805.200 1290.000,805.200 1300.000,805.200 1310.000,805.200 1320.000,805.200 1330.000,805.200 1340.000,805.200 1350.000,805.200 1360.000,805.200 1370.000,805.200" fill="none" stroke="#9adbb8" stroke-width="1.0" opacity="0.95"/>
<polyline points="1250.000,800.400 1260.000,800.400 1270.000,800.400 1280.000,800.400 1290.000,800.400 1300.000,800.400 1310.000,800.400 1320.000,800.400 1330.000,800.400 1340.000,800.400 1350.000,800.400 1360.000,800.400 1370.000,800.400" fill="none" stroke="#9adbb8" stroke-width="1.0" opacity="0.95"/>
<text x="70.000" y="910.000" font-family="Arial, Helvetica, sans-serif" font-size="17" font-weight="normal" fill="#333">Nodes: 7085</text>
<text x="70.000" y="936.000" font-family="Arial, Helvetica, sans-serif" font-size="17" font-weight="normal" fill="#333">x stations: 109</text>
<text x="70.000" y="962.000" font-family="Arial, Helvetica, sans-serif" font-size="17" font-weight="normal" fill="#333">width stations: 13</text>
<text x="70.000" y="988.000" font-family="Arial, Helvetica, sans-serif" font-size="17" font-weight="normal" fill="#333">z stations: 5</text>
<text x="70.000" y="1014.000" font-family="Arial, Helvetica, sans-serif" font-size="17" font-weight="normal" fill="#333">Blue: x-station lines</text>
<text x="70.000" y="1040.000" font-family="Arial, Helvetica, sans-serif" font-size="17" font-weight="normal" fill="#333">Red: width lines</text>
<text x="70.000" y="1066.000" font-family="Arial, Helvetica, sans-serif" font-size="17" font-weight="normal" fill="#333">Green: thickness planes</text>
<text x="70.000" y="1092.000" font-family="Arial, Helvetica, sans-serif" font-size="17" font-weight="normal" fill="#333">XZ z display x6</text>
<text x="70.000" y="1118.000" font-family="Arial, Helvetica, sans-serif" font-size="17" font-weight="normal" fill="#333">YZ true physical aspect</text>
</svg>