<svg xmlns="http://www.w3.org/2000/svg" width="1400" height="800" viewBox="0 0 1400 800">
<rect x="0" y="0" width="100%" height="100%" fill="white"/>
<text x="60.000" y="48.000" text-anchor="start" font-family="Arial, Helvetica, sans-serif" font-size="30" font-weight="bold" fill="#111111">Lab 007 — C3D8 structured hex tensile specimen</text>
<text x="60.000" y="74.000" text-anchor="start" font-family="Arial, Helvetica, sans-serif" font-size="17" font-weight="normal" fill="#444444">S355MC elastoplastic material, displacement-controlled tensile loading</text>
<line x1="115.000" y1="710.000" x2="1310.000" y2="710.000" stroke="#e0e0e0" stroke-width="1"/>
<text x="103.000" y="715.000" text-anchor="end" font-family="Arial, Helvetica, sans-serif" font-size="14" font-weight="normal" fill="#222222">0</text>
<line x1="115.000" y1="606.667" x2="1310.000" y2="606.667" stroke="#e0e0e0" stroke-width="1"/>
<text x="103.000" y="611.667" text-anchor="end" font-family="Arial, Helvetica, sans-serif" font-size="14" font-weight="normal" fill="#222222">1896</text>
<line x1="115.000" y1="503.333" x2="1310.000" y2="503.333" stroke="#e0e0e0" stroke-width="1"/>
<text x="103.000" y="508.333" text-anchor="end" font-family="Arial, Helvetica, sans-serif" font-size="14" font-weight="normal" fill="#222222">3792</text>
<line x1="115.000" y1="400.000" x2="1310.000" y2="400.000" stroke="#e0e0e0" stroke-width="1"/>
<text x="103.000" y="405.000" text-anchor="end" font-family="Arial, Helvetica, sans-serif" font-size="14" font-weight="normal" fill="#222222">5687</text>
<line x1="115.000" y1="296.667" x2="1310.000" y2="296.667" stroke="#e0e0e0" stroke-width="1"/>
<text x="103.000" y="301.667" text-anchor="end" font-family="Arial, Helvetica, sans-serif" font-size="14" font-weight="normal" fill="#222222">7583</text>
<line x1="115.000" y1="193.333" x2="1310.000" y2="193.333" stroke="#e0e0e0" stroke-width="1"/>
<text x="103.000" y="198.333" text-anchor="end" font-family="Arial, Helvetica, sans-serif" font-size="14" font-weight="normal" fill="#222222">9479</text>
<line x1="115.000" y1="90.000" x2="1310.000" y2="90.000" stroke="#e0e0e0" stroke-width="1"/>
<text x="103.000" y="95.000" text-anchor="end" font-family="Arial, Helvetica, sans-serif" font-size="14" font-weight="normal" fill="#222222">11375</text>
<line x1="115.000" y1="90.000" x2="115.000" y2="710.000" stroke="#e0e0e0" stroke-width="1"/>
<text x="115.000" y="738.000" text-anchor="middle" font-family="Arial, Helvetica, sans-serif" font-size="14" font-weight="normal" fill="#222222">0.00</text>
<line x1="347.039" y1="90.000" x2="347.039" y2="710.000" stroke="#e0e0e0" stroke-width="1"/>
<text x="347.039" y="738.000" text-anchor="middle" font-family="Arial, Helvetica, sans-serif" font-size="14" font-weight="normal" fill="#222222">0.40</text>
<line x1="579.078" y1="90.000" x2="579.078" y2="710.000" stroke="#e0e0e0" stroke-width="1"/>
<text x="579.078" y="738.000" text-anchor="middle" font-family="Arial, Helvetica, sans-serif" font-size="14" font-weight="normal" fill="#222222">0.80</text>
<line x1="811.117" y1="90.000" x2="811.117" y2="710.000" stroke="#e0e0e0" stroke-width="1"/>
<text x="811.117" y="738.000" text-anchor="middle" font-family="Arial, Helvetica, sans-serif" font-size="14" font-weight="normal" fill="#222222">1.20</text>
<line x1="1043.155" y1="90.000" x2="1043.155" y2="710.000" stroke="#e0e0e0" stroke-width="1"/>
<text x="1043.155" y="738.000" text-anchor="middle" font-family="Arial, Helvetica, sans-serif" font-size="14" font-weight="normal" fill="#222222">1.60</text>
<line x1="1275.194" y1="90.000" x2="1275.194" y2="710.000" stroke="#e0e0e0" stroke-width="1"/>
<text x="1275.194" y="738.000" text-anchor="middle" font-family="Arial, Helvetica, sans-serif" font-size="14" font-weight="normal" fill="#222222">2.00</text>
<line x1="115.000" y1="90.000" x2="115.000" y2="710.000" stroke="#111111" stroke-width="2"/>
<line x1="115.000" y1="710.000" x2="1310.000" y2="710.000" stroke="#111111" stroke-width="2"/>
<polyline fill="none" stroke="#005bbb" stroke-width="3" points="126.602,674.368 138.204,638.744 155.607,585.322 181.711,505.222 220.868,385.144 278.877,223.994 336.887,193.884 394.897,168.687 452.907,161.774 510.916,161.289 568.926,160.309 626.936,158.731 684.945,156.295 742.955,152.956 800.965,149.077 858.975,145.097 916.984,141.138 974.994,137.289 1033.004,133.595 1091.013,130.030 1149.023,126.564 1207.033,123.229 1265.042,120.068 1275.194,119.524"/>
<circle cx="1275.194" cy="119.524" r="6" fill="#d62828"/>
<text x="1259.194" y="105.524" text-anchor="end" font-family="Arial, Helvetica, sans-serif" font-size="14" font-weight="normal" fill="#111111">(2.000 mm, 10833.3 N)</text>
<text x="712.500" y="762.000" text-anchor="middle" font-family="Arial, Helvetica, sans-serif" font-size="19" font-weight="normal" fill="#111111">Right grip displacement Ux [mm]</text>
<text x="28" y="400.000" text-anchor="middle" font-family="Arial, Helvetica, sans-serif" font-size="19" fill="#111111" transform="rotate(-90, 28, 400.000)">Tensile force [N]</text>
<text x="60.000" y="784.000" text-anchor="start" font-family="Arial, Helvetica, sans-serif" font-size="14" font-weight="normal" fill="#666666">Structured C3D8 full dogbone mesh; equivalent plastic strain requested as PEEQ and stored in FRD as PE.</text>
</svg>