<svg xmlns="http://www.w3.org/2000/svg" width="1600" height="1000" viewBox="0 0 1600 1000">
<rect width="100%" height="100%" fill="white"/>
<text x="80.000" y="38.000" font-family="Arial, Helvetica, sans-serif" font-size="28" font-weight="bold" text-anchor="start" fill="#111">Lab 007 — Structured C3D8 Hex Mesh Preview</text>
<text x="80.000" y="66.000" font-family="Arial, Helvetica, sans-serif" font-size="16" font-weight="normal" text-anchor="start" fill="#444">Full dogbone specimen, symmetric mesh topology about x = 0, y = 0, z = 0</text>
<rect x="80.000" y="100.000" width="1440.000" height="520.000" stroke="#999" stroke-width="1.2" fill="none"/>
<rect x="80.000" y="690.000" width="1440.000" height="260.000" stroke="#999" stroke-width="1.2" fill="none"/>
<text x="90.000" y="128.000" font-family="Arial, Helvetica, sans-serif" font-size="20" font-weight="bold" text-anchor="start" fill="#111">XY view — structured mesh lines</text>
<text x="90.000" y="718.000" font-family="Arial, Helvetica, sans-serif" font-size="20" font-weight="bold" text-anchor="start" fill="#111">XZ view — four element layers through thickness</text>
<polyline points="120.000,150.000 135.814,150.000 151.628,150.000 167.442,150.000 183.256,150.000 199.070,150.000 214.884,150.000 230.698,150.000 246.512,150.000 262.326,150.000 278.140,150.000 293.953,150.000 309.767,150.000 325.581,150.000 341.395,150.000 352.465,150.779 363.535,153.010 374.605,156.531 385.674,161.180 396.744,166.797 407.814,173.220 418.884,180.288 429.953,187.840 441.023,195.714 452.093,203.750 463.163,211.786 474.233,219.660 485.302,227.212 496.372,234.280 507.442,240.703 518.512,246.320 529.581,250.969 540.651,254.490 551.721,256.721 562.791,257.500 574.651,257.500 586.512,257.500 598.372,257.500 610.233,257.500 622.093,257.500 633.953,257.500 645.814,257.500 657.674,257.500 669.535,257.500 681.395,257.500 693.256,257.500 705.116,257.500 716.977,257.500 728.837,257.500 740.698,257.500 752.558,257.500 764.419,257.500 776.279,257.500 788.140,257.500 800.000,257.500 811.860,257.500 823.721,257.500 835.581,257.500 847.442,257.500 859.302,257.500 871.163,257.500 883.023,257.500 894.884,257.500 906.744,257.500 918.605,257.500 930.465,257.500 942.326,257.500 954.186,257.500 966.047,257.500 977.907,257.500 989.767,257.500 1001.628,257.500 1013.488,257.500 1025.349,257.500 1037.209,257.500 1048.279,256.721 1059.349,254.490 1070.419,250.969 1081.488,246.320 1092.558,240.703 1103.628,234.280 1114.698,227.212 1125.767,219.660 1136.837,211.786 1147.907,203.750 1158.977,195.714 1170.047,187.840 1181.116,180.288 1192.186,173.220 1203.256,166.797 1214.326,161.180 1225.395,156.531 1236.465,153.010 1247.535,150.779 1258.605,150.000 1274.419,150.000 1290.233,150.000 1306.047,150.000 1321.860,150.000 1337.674,150.000 1353.488,150.000 1369.302,150.000 1385.116,150.000 1400.930,150.000 1416.744,150.000 1432.558,150.000 1448.372,150.000 1464.186,150.000 1480.000,150.000" stroke="#111" stroke-width="2.0" fill="none" opacity="1.0"/>
<polyline points="120.000,580.000 135.814,580.000 151.628,580.000 167.442,580.000 183.256,580.000 199.070,580.000 214.884,580.000 230.698,580.000 246.512,580.000 262.326,580.000 278.140,580.000 293.953,580.000 309.767,580.000 325.581,580.000 341.395,580.000 352.465,579.221 363.535,576.990 374.605,573.469 385.674,568.820 396.744,563.203 407.814,556.780 418.884,549.712 429.953,542.160 441.023,534.286 452.093,526.250 463.163,518.214 474.233,510.340 485.302,502.788 496.372,495.720 507.442,489.297 518.512,483.680 529.581,479.031 540.651,475.510 551.721,473.279 562.791,472.500 574.651,472.500 586.512,472.500 598.372,472.500 610.233,472.500 622.093,472.500 633.953,472.500 645.814,472.500 657.674,472.500 669.535,472.500 681.395,472.500 693.256,472.500 705.116,472.500 716.977,472.500 728.837,472.500 740.698,472.500 752.558,472.500 764.419,472.500 776.279,472.500 788.140,472.500 800.000,472.500 811.860,472.500 823.721,472.500 835.581,472.500 847.442,472.500 859.302,472.500 871.163,472.500 883.023,472.500 894.884,472.500 906.744,472.500 918.605,472.500 930.465,472.500 942.326,472.500 954.186,472.500 966.047,472.500 977.907,472.500 989.767,472.500 1001.628,472.500 1013.488,472.500 1025.349,472.500 1037.209,472.500 1048.279,473.279 1059.349,475.510 1070.419,479.031 1081.488,483.680 1092.558,489.297 1103.628,495.720 1114.698,502.788 1125.767,510.340 1136.837,518.214 1147.907,526.250 1158.977,534.286 1170.047,542.160 1181.116,549.712 1192.186,556.780 1203.256,563.203 1214.326,568.820 1225.395,573.469 1236.465,576.990 1247.535,579.221 1258.605,580.000 1274.419,580.000 1290.233,580.000 1306.047,580.000 1321.860,580.000 1337.674,580.000 1353.488,580.000 1369.302,580.000 1385.116,580.000 1400.930,580.000 1416.744,580.000 1432.558,580.000 1448.372,580.000 1464.186,580.000 1480.000,580.000" stroke="#111" stroke-width="2.0" fill="none" opacity="1.0"/>
<line x1="120.000" y1="580.000" x2="120.000" y2="150.000" stroke="#8fb3da" stroke-width="0.8" opacity="0.95"/>
<line x1="135.814" y1="580.000" x2="135.814" y2="150.000" stroke="#8fb3da" stroke-width="0.8" opacity="0.95"/>
<line x1="151.628" y1="580.000" x2="151.628" y2="150.000" stroke="#8fb3da" stroke-width="0.8" opacity="0.95"/>
<line x1="167.442" y1="580.000" x2="167.442" y2="150.000" stroke="#8fb3da" stroke-width="0.8" opacity="0.95"/>
<line x1="183.256" y1="580.000" x2="183.256" y2="150.000" stroke="#8fb3da" stroke-width="0.8" opacity="0.95"/>
<line x1="199.070" y1="580.000" x2="199.070" y2="150.000" stroke="#8fb3da" stroke-width="0.8" opacity="0.95"/>
<line x1="214.884" y1="580.000" x2="214.884" y2="150.000" stroke="#8fb3da" stroke-width="0.8" opacity="0.95"/>
<line x1="230.698" y1="580.000" x2="230.698" y2="150.000" stroke="#8fb3da" stroke-width="0.8" opacity="0.95"/>
<line x1="246.512" y1="580.000" x2="246.512" y2="150.000" stroke="#8fb3da" stroke-width="0.8" opacity="0.95"/>
<line x1="262.326" y1="580.000" x2="262.326" y2="150.000" stroke="#8fb3da" stroke-width="0.8" opacity="0.95"/>
<line x1="278.140" y1="580.000" x2="278.140" y2="150.000" stroke="#8fb3da" stroke-width="0.8" opacity="0.95"/>
<line x1="293.953" y1="580.000" x2="293.953" y2="150.000" stroke="#8fb3da" stroke-width="0.8" opacity="0.95"/>
<line x1="309.767" y1="580.000" x2="309.767" y2="150.000" stroke="#8fb3da" stroke-width="0.8" opacity="0.95"/>
<line x1="325.581" y1="580.000" x2="325.581" y2="150.000" stroke="#8fb3da" stroke-width="0.8" opacity="0.95"/>
<line x1="341.395" y1="580.000" x2="341.395" y2="150.000" stroke="#8fb3da" stroke-width="0.8" opacity="0.95"/>
<line x1="352.465" y1="579.221" x2="352.465" y2="150.779" stroke="#8fb3da" stroke-width="0.8" opacity="0.95"/>
<line x1="363.535" y1="576.990" x2="363.535" y2="153.010" stroke="#8fb3da" stroke-width="0.8" opacity="0.95"/>
<line x1="374.605" y1="573.469" x2="374.605" y2="156.531" stroke="#8fb3da" stroke-width="0.8" opacity="0.95"/>
<line x1="385.674" y1="568.820" x2="385.674" y2="161.180" stroke="#8fb3da" stroke-width="0.8" opacity="0.95"/>
<line x1="396.744" y1="563.203" x2="396.744" y2="166.797" stroke="#8fb3da" stroke-width="0.8" opacity="0.95"/>
<line x1="407.814" y1="556.780" x2="407.814" y2="173.220" stroke="#8fb3da" stroke-width="0.8" opacity="0.95"/>
<line x1="418.884" y1="549.712" x2="418.884" y2="180.288" stroke="#8fb3da" stroke-width="0.8" opacity="0.95"/>
<line x1="429.953" y1="542.160" x2="429.953" y2="187.840" stroke="#8fb3da" stroke-width="0.8" opacity="0.95"/>
<line x1="441.023" y1="534.286" x2="441.023" y2="195.714" stroke="#8fb3da" stroke-width="0.8" opacity="0.95"/>
<line x1="452.093" y1="526.250" x2="452.093" y2="203.750" stroke="#8fb3da" stroke-width="0.8" opacity="0.95"/>
<line x1="463.163" y1="518.214" x2="463.163" y2="211.786" stroke="#8fb3da" stroke-width="0.8" opacity="0.95"/>
<line x1="474.233" y1="510.340" x2="474.233" y2="219.660" stroke="#8fb3da" stroke-width="0.8" opacity="0.95"/>
<line x1="485.302" y1="502.788" x2="485.302" y2="227.212" stroke="#8fb3da" stroke-width="0.8" opacity="0.95"/>
<line x1="496.372" y1="495.720" x2="496.372" y2="234.280" stroke="#8fb3da" stroke-width="0.8" opacity="0.95"/>
<line x1="507.442" y1="489.297" x2="507.442" y2="240.703" stroke="#8fb3da" stroke-width="0.8" opacity="0.95"/>
<line x1="518.512" y1="483.680" x2="518.512" y2="246.320" stroke="#8fb3da" stroke-width="0.8" opacity="0.95"/>
<line x1="529.581" y1="479.031" x2="529.581" y2="250.969" stroke="#8fb3da" stroke-width="0.8" opacity="0.95"/>
<line x1="540.651" y1="475.510" x2="540.651" y2="254.490" stroke="#8fb3da" stroke-width="0.8" opacity="0.95"/>
<line x1="551.721" y1="473.279" x2="551.721" y2="256.721" stroke="#8fb3da" stroke-width="0.8" opacity="0.95"/>
<line x1="562.791" y1="472.500" x2="562.791" y2="257.500" stroke="#8fb3da" stroke-width="0.8" opacity="0.95"/>
<line x1="574.651" y1="472.500" x2="574.651" y2="257.500" stroke="#8fb3da" stroke-width="0.8" opacity="0.95"/>
<line x1="586.512" y1="472.500" x2="586.512" y2="257.500" stroke="#8fb3da" stroke-width="0.8" opacity="0.95"/>
<line x1="598.372" y1="472.500" x2="598.372" y2="257.500" stroke="#8fb3da" stroke-width="0.8" opacity="0.95"/>
<line x1="610.233" y1="472.500" x2="610.233" y2="257.500" stroke="#8fb3da" stroke-width="0.8" opacity="0.95"/>
<line x1="622.093" y1="472.500" x2="622.093" y2="257.500" stroke="#8fb3da" stroke-width="0.8" opacity="0.95"/>
<line x1="633.953" y1="472.500" x2="633.953" y2="257.500" stroke="#8fb3da" stroke-width="0.8" opacity="0.95"/>
<line x1="645.814" y1="472.500" x2="645.814" y2="257.500" stroke="#8fb3da" stroke-width="0.8" opacity="0.95"/>
<line x1="657.674" y1="472.500" x2="657.674" y2="257.500" stroke="#8fb3da" stroke-width="0.8" opacity="0.95"/>
<line x1="669.535" y1="472.500" x2="669.535" y2="257.500" stroke="#8fb3da" stroke-width="0.8" opacity="0.95"/>
<line x1="681.395" y1="472.500" x2="681.395" y2="257.500" stroke="#8fb3da" stroke-width="0.8" opacity="0.95"/>
<line x1="693.256" y1="472.500" x2="693.256" y2="257.500" stroke="#8fb3da" stroke-width="0.8" opacity="0.95"/>
<line x1="705.116" y1="472.500" x2="705.116" y2="257.500" stroke="#8fb3da" stroke-width="0.8" opacity="0.95"/>
<line x1="716.977" y1="472.500" x2="716.977" y2="257.500" stroke="#8fb3da" stroke-width="0.8" opacity="0.95"/>
<line x1="728.837" y1="472.500" x2="728.837" y2="257.500" stroke="#8fb3da" stroke-width="0.8" opacity="0.95"/>
<line x1="740.698" y1="472.500" x2="740.698" y2="257.500" stroke="#8fb3da" stroke-width="0.8" opacity="0.95"/>
<line x1="752.558" y1="472.500" x2="752.558" y2="257.500" stroke="#8fb3da" stroke-width="0.8" opacity="0.95"/>
<line x1="764.419" y1="472.500" x2="764.419" y2="257.500" stroke="#8fb3da" stroke-width="0.8" opacity="0.95"/>
<line x1="776.279" y1="472.500" x2="776.279" y2="257.500" stroke="#8fb3da" stroke-width="0.8" opacity="0.95"/>
<line x1="788.140" y1="472.500" x2="788.140" y2="257.500" stroke="#8fb3da" stroke-width="0.8" opacity="0.95"/>
<line x1="800.000" y1="472.500" x2="800.000" y2="257.500" stroke="#2f6db2" stroke-width="1.5" opacity="0.95"/>
<line x1="811.860" y1="472.500" x2="811.860" y2="257.500" stroke="#8fb3da" stroke-width="0.8" opacity="0.95"/>
<line x1="823.721" y1="472.500" x2="823.721" y2="257.500" stroke="#8fb3da" stroke-width="0.8" opacity="0.95"/>
<line x1="835.581" y1="472.500" x2="835.581" y2="257.500" stroke="#8fb3da" stroke-width="0.8" opacity="0.95"/>
<line x1="847.442" y1="472.500" x2="847.442" y2="257.500" stroke="#8fb3da" stroke-width="0.8" opacity="0.95"/>
<line x1="859.302" y1="472.500" x2="859.302" y2="257.500" stroke="#8fb3da" stroke-width="0.8" opacity="0.95"/>
<line x1="871.163" y1="472.500" x2="871.163" y2="257.500" stroke="#8fb3da" stroke-width="0.8" opacity="0.95"/>
<line x1="883.023" y1="472.500" x2="883.023" y2="257.500" stroke="#8fb3da" stroke-width="0.8" opacity="0.95"/>
<line x1="894.884" y1="472.500" x2="894.884" y2="257.500" stroke="#8fb3da" stroke-width="0.8" opacity="0.95"/>
<line x1="906.744" y1="472.500" x2="906.744" y2="257.500" stroke="#8fb3da" stroke-width="0.8" opacity="0.95"/>
<line x1="918.605" y1="472.500" x2="918.605" y2="257.500" stroke="#8fb3da" stroke-width="0.8" opacity="0.95"/>
<line x1="930.465" y1="472.500" x2="930.465" y2="257.500" stroke="#8fb3da" stroke-width="0.8" opacity="0.95"/>
<line x1="942.326" y1="472.500" x2="942.326" y2="257.500" stroke="#8fb3da" stroke-width="0.8" opacity="0.95"/>
<line x1="954.186" y1="472.500" x2="954.186" y2="257.500" stroke="#8fb3da" stroke-width="0.8" opacity="0.95"/>
<line x1="966.047" y1="472.500" x2="966.047" y2="257.500" stroke="#8fb3da" stroke-width="0.8" opacity="0.95"/>
<line x1="977.907" y1="472.500" x2="977.907" y2="257.500" stroke="#8fb3da" stroke-width="0.8" opacity="0.95"/>
<line x1="989.767" y1="472.500" x2="989.767" y2="257.500" stroke="#8fb3da" stroke-width="0.8" opacity="0.95"/>
<line x1="1001.628" y1="472.500" x2="1001.628" y2="257.500" stroke="#8fb3da" stroke-width="0.8" opacity="0.95"/>
<line x1="1013.488" y1="472.500" x2="1013.488" y2="257.500" stroke="#8fb3da" stroke-width="0.8" opacity="0.95"/>
<line x1="1025.349" y1="472.500" x2="1025.349" y2="257.500" stroke="#8fb3da" stroke-width="0.8" opacity="0.95"/>
<line x1="1037.209" y1="472.500" x2="1037.209" y2="257.500" stroke="#8fb3da" stroke-width="0.8" opacity="0.95"/>
<line x1="1048.279" y1="473.279" x2="1048.279" y2="256.721" stroke="#8fb3da" stroke-width="0.8" opacity="0.95"/>
<line x1="1059.349" y1="475.510" x2="1059.349" y2="254.490" stroke="#8fb3da" stroke-width="0.8" opacity="0.95"/>
<line x1="1070.419" y1="479.031" x2="1070.419" y2="250.969" stroke="#8fb3da" stroke-width="0.8" opacity="0.95"/>
<line x1="1081.488" y1="483.680" x2="1081.488" y2="246.320" stroke="#8fb3da" stroke-width="0.8" opacity="0.95"/>
<line x1="1092.558" y1="489.297" x2="1092.558" y2="240.703" stroke="#8fb3da" stroke-width="0.8" opacity="0.95"/>
<line x1="1103.628" y1="495.720" x2="1103.628" y2="234.280" stroke="#8fb3da" stroke-width="0.8" opacity="0.95"/>
<line x1="1114.698" y1="502.788" x2="1114.698" y2="227.212" stroke="#8fb3da" stroke-width="0.8" opacity="0.95"/>
<line x1="1125.767" y1="510.340" x2="1125.767" y2="219.660" stroke="#8fb3da" stroke-width="0.8" opacity="0.95"/>
<line x1="1136.837" y1="518.214" x2="1136.837" y2="211.786" stroke="#8fb3da" stroke-width="0.8" opacity="0.95"/>
<line x1="1147.907" y1="526.250" x2="1147.907" y2="203.750" stroke="#8fb3da" stroke-width="0.8" opacity="0.95"/>
<line x1="1158.977" y1="534.286" x2="1158.977" y2="195.714" stroke="#8fb3da" stroke-width="0.8" opacity="0.95"/>
<line x1="1170.047" y1="542.160" x2="1170.047" y2="187.840" stroke="#8fb3da" stroke-width="0.8" opacity="0.95"/>
<line x1="1181.116" y1="549.712" x2="1181.116" y2="180.288" stroke="#8fb3da" stroke-width="0.8" opacity="0.95"/>
<line x1="1192.186" y1="556.780" x2="1192.186" y2="173.220" stroke="#8fb3da" stroke-width="0.8" opacity="0.95"/>
<line x1="1203.256" y1="563.203" x2="1203.256" y2="166.797" stroke="#8fb3da" stroke-width="0.8" opacity="0.95"/>
<line x1="1214.326" y1="568.820" x2="1214.326" y2="161.180" stroke="#8fb3da" stroke-width="0.8" opacity="0.95"/>
<line x1="1225.395" y1="573.469" x2="1225.395" y2="156.531" stroke="#8fb3da" stroke-width="0.8" opacity="0.95"/>
<line x1="1236.465" y1="576.990" x2="1236.465" y2="153.010" stroke="#8fb3da" stroke-width="0.8" opacity="0.95"/>
<line x1="1247.535" y1="579.221" x2="1247.535" y2="150.779" stroke="#8fb3da" stroke-width="0.8" opacity="0.95"/>
<line x1="1258.605" y1="580.000" x2="1258.605" y2="150.000" stroke="#8fb3da" stroke-width="0.8" opacity="0.95"/>
<line x1="1274.419" y1="580.000" x2="1274.419" y2="150.000" stroke="#8fb3da" stroke-width="0.8" opacity="0.95"/>
<line x1="1290.233" y1="580.000" x2="1290.233" y2="150.000" stroke="#8fb3da" stroke-width="0.8" opacity="0.95"/>
<line x1="1306.047" y1="580.000" x2="1306.047" y2="150.000" stroke="#8fb3da" stroke-width="0.8" opacity="0.95"/>
<line x1="1321.860" y1="580.000" x2="1321.860" y2="150.000" stroke="#8fb3da" stroke-width="0.8" opacity="0.95"/>
<line x1="1337.674" y1="580.000" x2="1337.674" y2="150.000" stroke="#8fb3da" stroke-width="0.8" opacity="0.95"/>
<line x1="1353.488" y1="580.000" x2="1353.488" y2="150.000" stroke="#8fb3da" stroke-width="0.8" opacity="0.95"/>
<line x1="1369.302" y1="580.000" x2="1369.302" y2="150.000" stroke="#8fb3da" stroke-width="0.8" opacity="0.95"/>
<line x1="1385.116" y1="580.000" x2="1385.116" y2="150.000" stroke="#8fb3da" stroke-width="0.8" opacity="0.95"/>
<line x1="1400.930" y1="580.000" x2="1400.930" y2="150.000" stroke="#8fb3da" stroke-width="0.8" opacity="0.95"/>
<line x1="1416.744" y1="580.000" x2="1416.744" y2="150.000" stroke="#8fb3da" stroke-width="0.8" opacity="0.95"/>
<line x1="1432.558" y1="580.000" x2="1432.558" y2="150.000" stroke="#8fb3da" stroke-width="0.8" opacity="0.95"/>
<line x1="1448.372" y1="580.000" x2="1448.372" y2="150.000" stroke="#8fb3da" stroke-width="0.8" opacity="0.95"/>
<line x1="1464.186" y1="580.000" x2="1464.186" y2="150.000" stroke="#8fb3da" stroke-width="0.8" opacity="0.95"/>
<line x1="1480.000" y1="580.000" x2="1480.000" y2="150.000" stroke="#8fb3da" stroke-width="0.8" opacity="0.95"/>
<polyline points="120.000,580.000 135.814,580.000 151.628,580.000 167.442,580.000 183.256,580.000 199.070,580.000 214.884,580.000 230.698,580.000 246.512,580.000 262.326,580.000 278.140,580.000 293.953,580.000 309.767,580.000 325.581,580.000 341.395,580.000 352.465,579.221 363.535,576.990 374.605,573.469 385.674,568.820 396.744,563.203 407.814,556.780 418.884,549.712 429.953,542.160 441.023,534.286 452.093,526.250 463.163,518.214 474.233,510.340 485.302,502.788 496.372,495.720 507.442,489.297 518.512,483.680 529.581,479.031 540.651,475.510 551.721,473.279 562.791,472.500 574.651,472.500 586.512,472.500 598.372,472.500 610.233,472.500 622.093,472.500 633.953,472.500 645.814,472.500 657.674,472.500 669.535,472.500 681.395,472.500 693.256,472.500 705.116,472.500 716.977,472.500 728.837,472.500 740.698,472.500 752.558,472.500 764.419,472.500 776.279,472.500 788.140,472.500 800.000,472.500 811.860,472.500 823.721,472.500 835.581,472.500 847.442,472.500 859.302,472.500 871.163,472.500 883.023,472.500 894.884,472.500 906.744,472.500 918.605,472.500 930.465,472.500 942.326,472.500 954.186,472.500 966.047,472.500 977.907,472.500 989.767,472.500 1001.628,472.500 1013.488,472.500 1025.349,472.500 1037.209,472.500 1048.279,473.279 1059.349,475.510 1070.419,479.031 1081.488,483.680 1092.558,489.297 1103.628,495.720 1114.698,502.788 1125.767,510.340 1136.837,518.214 1147.907,526.250 1158.977,534.286 1170.047,542.160 1181.116,549.712 1192.186,556.780 1203.256,563.203 1214.326,568.820 1225.395,573.469 1236.465,576.990 1247.535,579.221 1258.605,580.000 1274.419,580.000 1290.233,580.000 1306.047,580.000 1321.860,580.000 1337.674,580.000 1353.488,580.000 1369.302,580.000 1385.116,580.000 1400.930,580.000 1416.744,580.000 1432.558,580.000 1448.372,580.000 1464.186,580.000 1480.000,580.000" stroke="#e3a29a" stroke-width="0.8" fill="none" opacity="0.95"/>
<polyline points="120.000,544.167 135.814,544.167 151.628,544.167 167.442,544.167 183.256,544.167 199.070,544.167 214.884,544.167 230.698,544.167 246.512,544.167 262.326,544.167 278.140,544.167 293.953,544.167 309.767,544.167 325.581,544.167 341.395,544.167 352.465,543.517 363.535,541.658 374.605,538.724 385.674,534.850 396.744,530.169 407.814,524.817 418.884,518.927 429.953,512.633 441.023,506.071 452.093,499.375 463.163,492.679 474.233,486.117 485.302,479.823 496.372,473.933 507.442,468.581 518.512,463.900 529.581,460.026 540.651,457.092 551.721,455.233 562.791,454.583 574.651,454.583 586.512,454.583 598.372,454.583 610.233,454.583 622.093,454.583 633.953,454.583 645.814,454.583 657.674,454.583 669.535,454.583 681.395,454.583 693.256,454.583 705.116,454.583 716.977,454.583 728.837,454.583 740.698,454.583 752.558,454.583 764.419,454.583 776.279,454.583 788.140,454.583 800.000,454.583 811.860,454.583 823.721,454.583 835.581,454.583 847.442,454.583 859.302,454.583 871.163,454.583 883.023,454.583 894.884,454.583 906.744,454.583 918.605,454.583 930.465,454.583 942.326,454.583 954.186,454.583 966.047,454.583 977.907,454.583 989.767,454.583 1001.628,454.583 1013.488,454.583 1025.349,454.583 1037.209,454.583 1048.279,455.233 1059.349,457.092 1070.419,460.026 1081.488,463.900 1092.558,468.581 1103.628,473.933 1114.698,479.823 1125.767,486.117 1136.837,492.679 1147.907,499.375 1158.977,506.071 1170.047,512.633 1181.116,518.927 1192.186,524.817 1203.256,530.169 1214.326,534.850 1225.395,538.724 1236.465,541.658 1247.535,543.517 1258.605,544.167 1274.419,544.167 1290.233,544.167 1306.047,544.167 1321.860,544.167 1337.674,544.167 1353.488,544.167 1369.302,544.167 1385.116,544.167 1400.930,544.167 1416.744,544.167 1432.558,544.167 1448.372,544.167 1464.186,544.167 1480.000,544.167" stroke="#e3a29a" stroke-width="0.8" fill="none" opacity="0.95"/>
<polyline points="120.000,508.333 135.814,508.333 151.628,508.333 167.442,508.333 183.256,508.333 199.070,508.333 214.884,508.333 230.698,508.333 246.512,508.333 262.326,508.333 278.140,508.333 293.953,508.333 309.767,508.333 325.581,508.333 341.395,508.333 352.465,507.814 363.535,506.327 374.605,503.980 385.674,500.880 396.744,497.135 407.814,492.853 418.884,488.141 429.953,483.107 441.023,477.857 452.093,472.500 463.163,467.143 474.233,461.893 485.302,456.859 496.372,452.147 507.442,447.865 518.512,444.120 529.581,441.020 540.651,438.673 551.721,437.186 562.791,436.667 574.651,436.667 586.512,436.667 598.372,436.667 610.233,436.667 622.093,436.667 633.953,436.667 645.814,436.667 657.674,436.667 669.535,436.667 681.395,436.667 693.256,436.667 705.116,436.667 716.977,436.667 728.837,436.667 740.698,436.667 752.558,436.667 764.419,436.667 776.279,436.667 788.140,436.667 800.000,436.667 811.860,436.667 823.721,436.667 835.581,436.667 847.442,436.667 859.302,436.667 871.163,436.667 883.023,436.667 894.884,436.667 906.744,436.667 918.605,436.667 930.465,436.667 942.326,436.667 954.186,436.667 966.047,436.667 977.907,436.667 989.767,436.667 1001.628,436.667 1013.488,436.667 1025.349,436.667 1037.209,436.667 1048.279,437.186 1059.349,438.673 1070.419,441.020 1081.488,444.120 1092.558,447.865 1103.628,452.147 1114.698,456.859 1125.767,461.893 1136.837,467.143 1147.907,472.500 1158.977,477.857 1170.047,483.107 1181.116,488.141 1192.186,492.853 1203.256,497.135 1214.326,500.880 1225.395,503.980 1236.465,506.327 1247.535,507.814 1258.605,508.333 1274.419,508.333 1290.233,508.333 1306.047,508.333 1321.860,508.333 1337.674,508.333 1353.488,508.333 1369.302,508.333 1385.116,508.333 1400.930,508.333 1416.744,508.333 1432.558,508.333 1448.372,508.333 1464.186,508.333 1480.000,508.333" stroke="#e3a29a" stroke-width="0.8" fill="none" opacity="0.95"/>
<polyline points="120.000,472.500 135.814,472.500 151.628,472.500 167.442,472.500 183.256,472.500 199.070,472.500 214.884,472.500 230.698,472.500 246.512,472.500 262.326,472.500 278.140,472.500 293.953,472.500 309.767,472.500 325.581,472.500 341.395,472.500 352.465,472.110 363.535,470.995 374.605,469.235 385.674,466.910 396.744,464.102 407.814,460.890 418.884,457.356 429.953,453.580 441.023,449.643 452.093,445.625 463.163,441.607 474.233,437.670 485.302,433.894 496.372,430.360 507.442,427.148 518.512,424.340 529.581,422.015 540.651,420.255 551.721,419.140 562.791,418.750 574.651,418.750 586.512,418.750 598.372,418.750 610.233,418.750 622.093,418.750 633.953,418.750 645.814,418.750 657.674,418.750 669.535,418.750 681.395,418.750 693.256,418.750 705.116,418.750 716.977,418.750 728.837,418.750 740.698,418.750 752.558,418.750 764.419,418.750 776.279,418.750 788.140,418.750 800.000,418.750 811.860,418.750 823.721,418.750 835.581,418.750 847.442,418.750 859.302,418.750 871.163,418.750 883.023,418.750 894.884,418.750 906.744,418.750 918.605,418.750 930.465,418.750 942.326,418.750 954.186,418.750 966.047,418.750 977.907,418.750 989.767,418.750 1001.628,418.750 1013.488,418.750 1025.349,418.750 1037.209,418.750 1048.279,419.140 1059.349,420.255 1070.419,422.015 1081.488,424.340 1092.558,427.148 1103.628,430.360 1114.698,433.894 1125.767,437.670 1136.837,441.607 1147.907,445.625 1158.977,449.643 1170.047,453.580 1181.116,457.356 1192.186,460.890 1203.256,464.102 1214.326,466.910 1225.395,469.235 1236.465,470.995 1247.535,472.110 1258.605,472.500 1274.419,472.500 1290.233,472.500 1306.047,472.500 1321.860,472.500 1337.674,472.500 1353.488,472.500 1369.302,472.500 1385.116,472.500 1400.930,472.500 1416.744,472.500 1432.558,472.500 1448.372,472.500 1464.186,472.500 1480.000,472.500" stroke="#e3a29a" stroke-width="0.8" fill="none" opacity="0.95"/>
<polyline points="120.000,436.667 135.814,436.667 151.628,436.667 167.442,436.667 183.256,436.667 199.070,436.667 214.884,436.667 230.698,436.667 246.512,436.667 262.326,436.667 278.140,436.667 293.953,436.667 309.767,436.667 325.581,436.667 341.395,436.667 352.465,436.407 363.535,435.663 374.605,434.490 385.674,432.940 396.744,431.068 407.814,428.927 418.884,426.571 429.953,424.053 441.023,421.429 452.093,418.750 463.163,416.071 474.233,413.447 485.302,410.929 496.372,408.573 507.442,406.432 518.512,404.560 529.581,403.010 540.651,401.837 551.721,401.093 562.791,400.833 574.651,400.833 586.512,400.833 598.372,400.833 610.233,400.833 622.093,400.833 633.953,400.833 645.814,400.833 657.674,400.833 669.535,400.833 681.395,400.833 693.256,400.833 705.116,400.833 716.977,400.833 728.837,400.833 740.698,400.833 752.558,400.833 764.419,400.833 776.279,400.833 788.140,400.833 800.000,400.833 811.860,400.833 823.721,400.833 835.581,400.833 847.442,400.833 859.302,400.833 871.163,400.833 883.023,400.833 894.884,400.833 906.744,400.833 918.605,400.833 930.465,400.833 942.326,400.833 954.186,400.833 966.047,400.833 977.907,400.833 989.767,400.833 1001.628,400.833 1013.488,400.833 1025.349,400.833 1037.209,400.833 1048.279,401.093 1059.349,401.837 1070.419,403.010 1081.488,404.560 1092.558,406.432 1103.628,408.573 1114.698,410.929 1125.767,413.447 1136.837,416.071 1147.907,418.750 1158.977,421.429 1170.047,424.053 1181.116,426.571 1192.186,428.927 1203.256,431.068 1214.326,432.940 1225.395,434.490 1236.465,435.663 1247.535,436.407 1258.605,436.667 1274.419,436.667 1290.233,436.667 1306.047,436.667 1321.860,436.667 1337.674,436.667 1353.488,436.667 1369.302,436.667 1385.116,436.667 1400.930,436.667 1416.744,436.667 1432.558,436.667 1448.372,436.667 1464.186,436.667 1480.000,436.667" stroke="#e3a29a" stroke-width="0.8" fill="none" opacity="0.95"/>
<polyline points="120.000,400.833 135.814,400.833 151.628,400.833 167.442,400.833 183.256,400.833 199.070,400.833 214.884,400.833 230.698,400.833 246.512,400.833 262.326,400.833 278.140,400.833 293.953,400.833 309.767,400.833 325.581,400.833 341.395,400.833 352.465,400.703 363.535,400.332 374.605,399.745 385.674,398.970 396.744,398.034 407.814,396.963 418.884,395.785 429.953,394.527 441.023,393.214 452.093,391.875 463.163,390.536 474.233,389.223 485.302,387.965 496.372,386.787 507.442,385.716 518.512,384.780 529.581,384.005 540.651,383.418 551.721,383.047 562.791,382.917 574.651,382.917 586.512,382.917 598.372,382.917 610.233,382.917 622.093,382.917 633.953,382.917 645.814,382.917 657.674,382.917 669.535,382.917 681.395,382.917 693.256,382.917 705.116,382.917 716.977,382.917 728.837,382.917 740.698,382.917 752.558,382.917 764.419,382.917 776.279,382.917 788.140,382.917 800.000,382.917 811.860,382.917 823.721,382.917 835.581,382.917 847.442,382.917 859.302,382.917 871.163,382.917 883.023,382.917 894.884,382.917 906.744,382.917 918.605,382.917 930.465,382.917 942.326,382.917 954.186,382.917 966.047,382.917 977.907,382.917 989.767,382.917 1001.628,382.917 1013.488,382.917 1025.349,382.917 1037.209,382.917 1048.279,383.047 1059.349,383.418 1070.419,384.005 1081.488,384.780 1092.558,385.716 1103.628,386.787 1114.698,387.965 1125.767,389.223 1136.837,390.536 1147.907,391.875 1158.977,393.214 1170.047,394.527 1181.116,395.785 1192.186,396.963 1203.256,398.034 1214.326,398.970 1225.395,399.745 1236.465,400.332 1247.535,400.703 1258.605,400.833 1274.419,400.833 1290.233,400.833 1306.047,400.833 1321.860,400.833 1337.674,400.833 1353.488,400.833 1369.302,400.833 1385.116,400.833 1400.930,400.833 1416.744,400.833 1432.558,400.833 1448.372,400.833 1464.186,400.833 1480.000,400.833" stroke="#e3a29a" stroke-width="0.8" fill="none" opacity="0.95"/>
<polyline points="120.000,365.000 135.814,365.000 151.628,365.000 167.442,365.000 183.256,365.000 199.070,365.000 214.884,365.000 230.698,365.000 246.512,365.000 262.326,365.000 278.140,365.000 293.953,365.000 309.767,365.000 325.581,365.000 341.395,365.000 352.465,365.000 363.535,365.000 374.605,365.000 385.674,365.000 396.744,365.000 407.814,365.000 418.884,365.000 429.953,365.000 441.023,365.000 452.093,365.000 463.163,365.000 474.233,365.000 485.302,365.000 496.372,365.000 507.442,365.000 518.512,365.000 529.581,365.000 540.651,365.000 551.721,365.000 562.791,365.000 574.651,365.000 586.512,365.000 598.372,365.000 610.233,365.000 622.093,365.000 633.953,365.000 645.814,365.000 657.674,365.000 669.535,365.000 681.395,365.000 693.256,365.000 705.116,365.000 716.977,365.000 728.837,365.000 740.698,365.000 752.558,365.000 764.419,365.000 776.279,365.000 788.140,365.000 800.000,365.000 811.860,365.000 823.721,365.000 835.581,365.000 847.442,365.000 859.302,365.000 871.163,365.000 883.023,365.000 894.884,365.000 906.744,365.000 918.605,365.000 930.465,365.000 942.326,365.000 954.186,365.000 966.047,365.000 977.907,365.000 989.767,365.000 1001.628,365.000 1013.488,365.000 1025.349,365.000 1037.209,365.000 1048.279,365.000 1059.349,365.000 1070.419,365.000 1081.488,365.000 1092.558,365.000 1103.628,365.000 1114.698,365.000 1125.767,365.000 1136.837,365.000 1147.907,365.000 1158.977,365.000 1170.047,365.000 1181.116,365.000 1192.186,365.000 1203.256,365.000 1214.326,365.000 1225.395,365.000 1236.465,365.000 1247.535,365.000 1258.605,365.000 1274.419,365.000 1290.233,365.000 1306.047,365.000 1321.860,365.000 1337.674,365.000 1353.488,365.000 1369.302,365.000 1385.116,365.000 1400.930,365.000 1416.744,365.000 1432.558,365.000 1448.372,365.000 1464.186,365.000 1480.000,365.000" stroke="#c03a2b" stroke-width="1.5" fill="none" opacity="0.95"/>
<polyline points="120.000,329.167 135.814,329.167 151.628,329.167 167.442,329.167 183.256,329.167 199.070,329.167 214.884,329.167 230.698,329.167 246.512,329.167 262.326,329.167 278.140,329.167 293.953,329.167 309.767,329.167 325.581,329.167 341.395,329.167 352.465,329.297 363.535,329.668 374.605,330.255 385.674,331.030 396.744,331.966 407.814,333.037 418.884,334.215 429.953,335.473 441.023,336.786 452.093,338.125 463.163,339.464 474.233,340.777 485.302,342.035 496.372,343.213 507.442,344.284 518.512,345.220 529.581,345.995 540.651,346.582 551.721,346.953 562.791,347.083 574.651,347.083 586.512,347.083 598.372,347.083 610.233,347.083 622.093,347.083 633.953,347.083 645.814,347.083 657.674,347.083 669.535,347.083 681.395,347.083 693.256,347.083 705.116,347.083 716.977,347.083 728.837,347.083 740.698,347.083 752.558,347.083 764.419,347.083 776.279,347.083 788.140,347.083 800.000,347.083 811.860,347.083 823.721,347.083 835.581,347.083 847.442,347.083 859.302,347.083 871.163,347.083 883.023,347.083 894.884,347.083 906.744,347.083 918.605,347.083 930.465,347.083 942.326,347.083 954.186,347.083 966.047,347.083 977.907,347.083 989.767,347.083 1001.628,347.083 1013.488,347.083 1025.349,347.083 1037.209,347.083 1048.279,346.953 1059.349,346.582 1070.419,345.995 1081.488,345.220 1092.558,344.284 1103.628,343.213 1114.698,342.035 1125.767,340.777 1136.837,339.464 1147.907,338.125 1158.977,336.786 1170.047,335.473 1181.116,334.215 1192.186,333.037 1203.256,331.966 1214.326,331.030 1225.395,330.255 1236.465,329.668 1247.535,329.297 1258.605,329.167 1274.419,329.167 1290.233,329.167 1306.047,329.167 1321.860,329.167 1337.674,329.167 1353.488,329.167 1369.302,329.167 1385.116,329.167 1400.930,329.167 1416.744,329.167 1432.558,329.167 1448.372,329.167 1464.186,329.167 1480.000,329.167" stroke="#e3a29a" stroke-width="0.8" fill="none" opacity="0.95"/>
<polyline points="120.000,293.333 135.814,293.333 151.628,293.333 167.442,293.333 183.256,293.333 199.070,293.333 214.884,293.333 230.698,293.333 246.512,293.333 262.326,293.333 278.140,293.333 293.953,293.333 309.767,293.333 325.581,293.333 341.395,293.333 352.465,293.593 363.535,294.337 374.605,295.510 385.674,297.060 396.744,298.932 407.814,301.073 418.884,303.429 429.953,305.947 441.023,308.571 452.093,311.250 463.163,313.929 474.233,316.553 485.302,319.071 496.372,321.427 507.442,323.568 518.512,325.440 529.581,326.990 540.651,328.163 551.721,328.907 562.791,329.167 574.651,329.167 586.512,329.167 598.372,329.167 610.233,329.167 622.093,329.167 633.953,329.167 645.814,329.167 657.674,329.167 669.535,329.167 681.395,329.167 693.256,329.167 705.116,329.167 716.977,329.167 728.837,329.167 740.698,329.167 752.558,329.167 764.419,329.167 776.279,329.167 788.140,329.167 800.000,329.167 811.860,329.167 823.721,329.167 835.581,329.167 847.442,329.167 859.302,329.167 871.163,329.167 883.023,329.167 894.884,329.167 906.744,329.167 918.605,329.167 930.465,329.167 942.326,329.167 954.186,329.167 966.047,329.167 977.907,329.167 989.767,329.167 1001.628,329.167 1013.488,329.167 1025.349,329.167 1037.209,329.167 1048.279,328.907 1059.349,328.163 1070.419,326.990 1081.488,325.440 1092.558,323.568 1103.628,321.427 1114.698,319.071 1125.767,316.553 1136.837,313.929 1147.907,311.250 1158.977,308.571 1170.047,305.947 1181.116,303.429 1192.186,301.073 1203.256,298.932 1214.326,297.060 1225.395,295.510 1236.465,294.337 1247.535,293.593 1258.605,293.333 1274.419,293.333 1290.233,293.333 1306.047,293.333 1321.860,293.333 1337.674,293.333 1353.488,293.333 1369.302,293.333 1385.116,293.333 1400.930,293.333 1416.744,293.333 1432.558,293.333 1448.372,293.333 1464.186,293.333 1480.000,293.333" stroke="#e3a29a" stroke-width="0.8" fill="none" opacity="0.95"/>
<polyline points="120.000,257.500 135.814,257.500 151.628,257.500 167.442,257.500 183.256,257.500 199.070,257.500 214.884,257.500 230.698,257.500 246.512,257.500 262.326,257.500 278.140,257.500 293.953,257.500 309.767,257.500 325.581,257.500 341.395,257.500 352.465,257.890 363.535,259.005 374.605,260.765 385.674,263.090 396.744,265.898 407.814,269.110 418.884,272.644 429.953,276.420 441.023,280.357 452.093,284.375 463.163,288.393 474.233,292.330 485.302,296.106 496.372,299.640 507.442,302.852 518.512,305.660 529.581,307.985 540.651,309.745 551.721,310.860 562.791,311.250 574.651,311.250 586.512,311.250 598.372,311.250 610.233,311.250 622.093,311.250 633.953,311.250 645.814,311.250 657.674,311.250 669.535,311.250 681.395,311.250 693.256,311.250 705.116,311.250 716.977,311.250 728.837,311.250 740.698,311.250 752.558,311.250 764.419,311.250 776.279,311.250 788.140,311.250 800.000,311.250 811.860,311.250 823.721,311.250 835.581,311.250 847.442,311.250 859.302,311.250 871.163,311.250 883.023,311.250 894.884,311.250 906.744,311.250 918.605,311.250 930.465,311.250 942.326,311.250 954.186,311.250 966.047,311.250 977.907,311.250 989.767,311.250 1001.628,311.250 1013.488,311.250 1025.349,311.250 1037.209,311.250 1048.279,310.860 1059.349,309.745 1070.419,307.985 1081.488,305.660 1092.558,302.852 1103.628,299.640 1114.698,296.106 1125.767,292.330 1136.837,288.393 1147.907,284.375 1158.977,280.357 1170.047,276.420 1181.116,272.644 1192.186,269.110 1203.256,265.898 1214.326,263.090 1225.395,260.765 1236.465,259.005 1247.535,257.890 1258.605,257.500 1274.419,257.500 1290.233,257.500 1306.047,257.500 1321.860,257.500 1337.674,257.500 1353.488,257.500 1369.302,257.500 1385.116,257.500 1400.930,257.500 1416.744,257.500 1432.558,257.500 1448.372,257.500 1464.186,257.500 1480.000,257.500" stroke="#e3a29a" stroke-width="0.8" fill="none" opacity="0.95"/>
<polyline points="120.000,221.667 135.814,221.667 151.628,221.667 167.442,221.667 183.256,221.667 199.070,221.667 214.884,221.667 230.698,221.667 246.512,221.667 262.326,221.667 278.140,221.667 293.953,221.667 309.767,221.667 325.581,221.667 341.395,221.667 352.465,222.186 363.535,223.673 374.605,226.020 385.674,229.120 396.744,232.865 407.814,237.147 418.884,241.859 429.953,246.893 441.023,252.143 452.093,257.500 463.163,262.857 474.233,268.107 485.302,273.141 496.372,277.853 507.442,282.135 518.512,285.880 529.581,288.980 540.651,291.327 551.721,292.814 562.791,293.333 574.651,293.333 586.512,293.333 598.372,293.333 610.233,293.333 622.093,293.333 633.953,293.333 645.814,293.333 657.674,293.333 669.535,293.333 681.395,293.333 693.256,293.333 705.116,293.333 716.977,293.333 728.837,293.333 740.698,293.333 752.558,293.333 764.419,293.333 776.279,293.333 788.140,293.333 800.000,293.333 811.860,293.333 823.721,293.333 835.581,293.333 847.442,293.333 859.302,293.333 871.163,293.333 883.023,293.333 894.884,293.333 906.744,293.333 918.605,293.333 930.465,293.333 942.326,293.333 954.186,293.333 966.047,293.333 977.907,293.333 989.767,293.333 1001.628,293.333 1013.488,293.333 1025.349,293.333 1037.209,293.333 1048.279,292.814 1059.349,291.327 1070.419,288.980 1081.488,285.880 1092.558,282.135 1103.628,277.853 1114.698,273.141 1125.767,268.107 1136.837,262.857 1147.907,257.500 1158.977,252.143 1170.047,246.893 1181.116,241.859 1192.186,237.147 1203.256,232.865 1214.326,229.120 1225.395,226.020 1236.465,223.673 1247.535,222.186 1258.605,221.667 1274.419,221.667 1290.233,221.667 1306.047,221.667 1321.860,221.667 1337.674,221.667 1353.488,221.667 1369.302,221.667 1385.116,221.667 1400.930,221.667 1416.744,221.667 1432.558,221.667 1448.372,221.667 1464.186,221.667 1480.000,221.667" stroke="#e3a29a" stroke-width="0.8" fill="none" opacity="0.95"/>
<polyline points="120.000,185.833 135.814,185.833 151.628,185.833 167.442,185.833 183.256,185.833 199.070,185.833 214.884,185.833 230.698,185.833 246.512,185.833 262.326,185.833 278.140,185.833 293.953,185.833 309.767,185.833 325.581,185.833 341.395,185.833 352.465,186.483 363.535,188.342 374.605,191.276 385.674,195.150 396.744,199.831 407.814,205.183 418.884,211.073 429.953,217.367 441.023,223.929 452.093,230.625 463.163,237.321 474.233,243.883 485.302,250.177 496.372,256.067 507.442,261.419 518.512,266.100 529.581,269.974 540.651,272.908 551.721,274.767 562.791,275.417 574.651,275.417 586.512,275.417 598.372,275.417 610.233,275.417 622.093,275.417 633.953,275.417 645.814,275.417 657.674,275.417 669.535,275.417 681.395,275.417 693.256,275.417 705.116,275.417 716.977,275.417 728.837,275.417 740.698,275.417 752.558,275.417 764.419,275.417 776.279,275.417 788.140,275.417 800.000,275.417 811.860,275.417 823.721,275.417 835.581,275.417 847.442,275.417 859.302,275.417 871.163,275.417 883.023,275.417 894.884,275.417 906.744,275.417 918.605,275.417 930.465,275.417 942.326,275.417 954.186,275.417 966.047,275.417 977.907,275.417 989.767,275.417 1001.628,275.417 1013.488,275.417 1025.349,275.417 1037.209,275.417 1048.279,274.767 1059.349,272.908 1070.419,269.974 1081.488,266.100 1092.558,261.419 1103.628,256.067 1114.698,250.177 1125.767,243.883 1136.837,237.321 1147.907,230.625 1158.977,223.929 1170.047,217.367 1181.116,211.073 1192.186,205.183 1203.256,199.831 1214.326,195.150 1225.395,191.276 1236.465,188.342 1247.535,186.483 1258.605,185.833 1274.419,185.833 1290.233,185.833 1306.047,185.833 1321.860,185.833 1337.674,185.833 1353.488,185.833 1369.302,185.833 1385.116,185.833 1400.930,185.833 1416.744,185.833 1432.558,185.833 1448.372,185.833 1464.186,185.833 1480.000,185.833" stroke="#e3a29a" stroke-width="0.8" fill="none" opacity="0.95"/>
<polyline points="120.000,150.000 135.814,150.000 151.628,150.000 167.442,150.000 183.256,150.000 199.070,150.000 214.884,150.000 230.698,150.000 246.512,150.000 262.326,150.000 278.140,150.000 293.953,150.000 309.767,150.000 325.581,150.000 341.395,150.000 352.465,150.779 363.535,153.010 374.605,156.531 385.674,161.180 396.744,166.797 407.814,173.220 418.884,180.288 429.953,187.840 441.023,195.714 452.093,203.750 463.163,211.786 474.233,219.660 485.302,227.212 496.372,234.280 507.442,240.703 518.512,246.320 529.581,250.969 540.651,254.490 551.721,256.721 562.791,257.500 574.651,257.500 586.512,257.500 598.372,257.500 610.233,257.500 622.093,257.500 633.953,257.500 645.814,257.500 657.674,257.500 669.535,257.500 681.395,257.500 693.256,257.500 705.116,257.500 716.977,257.500 728.837,257.500 740.698,257.500 752.558,257.500 764.419,257.500 776.279,257.500 788.140,257.500 800.000,257.500 811.860,257.500 823.721,257.500 835.581,257.500 847.442,257.500 859.302,257.500 871.163,257.500 883.023,257.500 894.884,257.500 906.744,257.500 918.605,257.500 930.465,257.500 942.326,257.500 954.186,257.500 966.047,257.500 977.907,257.500 989.767,257.500 1001.628,257.500 1013.488,257.500 1025.349,257.500 1037.209,257.500 1048.279,256.721 1059.349,254.490 1070.419,250.969 1081.488,246.320 1092.558,240.703 1103.628,234.280 1114.698,227.212 1125.767,219.660 1136.837,211.786 1147.907,203.750 1158.977,195.714 1170.047,187.840 1181.116,180.288 1192.186,173.220 1203.256,166.797 1214.326,161.180 1225.395,156.531 1236.465,153.010 1247.535,150.779 1258.605,150.000 1274.419,150.000 1290.233,150.000 1306.047,150.000 1321.860,150.000 1337.674,150.000 1353.488,150.000 1369.302,150.000 1385.116,150.000 1400.930,150.000 1416.744,150.000 1432.558,150.000 1448.372,150.000 1464.186,150.000 1480.000,150.000" stroke="#e3a29a" stroke-width="0.8" fill="none" opacity="0.95"/>
<line x1="800.000" y1="580.000" x2="800.000" y2="150.000" stroke="#1d4f91" stroke-width="1.6" opacity="0.9"/>
<line x1="120.000" y1="365.000" x2="1480.000" y2="365.000" stroke="#a93226" stroke-width="1.6" opacity="0.9"/>
<rect x="120.000" y="740.000" width="1360.000" height="170.000" stroke="#111" stroke-width="2.0" fill="none"/>
<line x1="120.000" y1="910.000" x2="120.000" y2="740.000" stroke="#8fb3da" stroke-width="0.8" opacity="0.95"/>
<line x1="135.814" y1="910.000" x2="135.814" y2="740.000" stroke="#8fb3da" stroke-width="0.8" opacity="0.95"/>
<line x1="151.628" y1="910.000" x2="151.628" y2="740.000" stroke="#8fb3da" stroke-width="0.8" opacity="0.95"/>
<line x1="167.442" y1="910.000" x2="167.442" y2="740.000" stroke="#8fb3da" stroke-width="0.8" opacity="0.95"/>
<line x1="183.256" y1="910.000" x2="183.256" y2="740.000" stroke="#8fb3da" stroke-width="0.8" opacity="0.95"/>
<line x1="199.070" y1="910.000" x2="199.070" y2="740.000" stroke="#8fb3da" stroke-width="0.8" opacity="0.95"/>
<line x1="214.884" y1="910.000" x2="214.884" y2="740.000" stroke="#8fb3da" stroke-width="0.8" opacity="0.95"/>
<line x1="230.698" y1="910.000" x2="230.698" y2="740.000" stroke="#8fb3da" stroke-width="0.8" opacity="0.95"/>
<line x1="246.512" y1="910.000" x2="246.512" y2="740.000" stroke="#8fb3da" stroke-width="0.8" opacity="0.95"/>
<line x1="262.326" y1="910.000" x2="262.326" y2="740.000" stroke="#8fb3da" stroke-width="0.8" opacity="0.95"/>
<line x1="278.140" y1="910.000" x2="278.140" y2="740.000" stroke="#8fb3da" stroke-width="0.8" opacity="0.95"/>
<line x1="293.953" y1="910.000" x2="293.953" y2="740.000" stroke="#8fb3da" stroke-width="0.8" opacity="0.95"/>
<line x1="309.767" y1="910.000" x2="309.767" y2="740.000" stroke="#8fb3da" stroke-width="0.8" opacity="0.95"/>
<line x1="325.581" y1="910.000" x2="325.581" y2="740.000" stroke="#8fb3da" stroke-width="0.8" opacity="0.95"/>
<line x1="341.395" y1="910.000" x2="341.395" y2="740.000" stroke="#8fb3da" stroke-width="0.8" opacity="0.95"/>
<line x1="352.465" y1="910.000" x2="352.465" y2="740.000" stroke="#8fb3da" stroke-width="0.8" opacity="0.95"/>
<line x1="363.535" y1="910.000" x2="363.535" y2="740.000" stroke="#8fb3da" stroke-width="0.8" opacity="0.95"/>
<line x1="374.605" y1="910.000" x2="374.605" y2="740.000" stroke="#8fb3da" stroke-width="0.8" opacity="0.95"/>
<line x1="385.674" y1="910.000" x2="385.674" y2="740.000" stroke="#8fb3da" stroke-width="0.8" opacity="0.95"/>
<line x1="396.744" y1="910.000" x2="396.744" y2="740.000" stroke="#8fb3da" stroke-width="0.8" opacity="0.95"/>
<line x1="407.814" y1="910.000" x2="407.814" y2="740.000" stroke="#8fb3da" stroke-width="0.8" opacity="0.95"/>
<line x1="418.884" y1="910.000" x2="418.884" y2="740.000" stroke="#8fb3da" stroke-width="0.8" opacity="0.95"/>
<line x1="429.953" y1="910.000" x2="429.953" y2="740.000" stroke="#8fb3da" stroke-width="0.8" opacity="0.95"/>
<line x1="441.023" y1="910.000" x2="441.023" y2="740.000" stroke="#8fb3da" stroke-width="0.8" opacity="0.95"/>
<line x1="452.093" y1="910.000" x2="452.093" y2="740.000" stroke="#8fb3da" stroke-width="0.8" opacity="0.95"/>
<line x1="463.163" y1="910.000" x2="463.163" y2="740.000" stroke="#8fb3da" stroke-width="0.8" opacity="0.95"/>
<line x1="474.233" y1="910.000" x2="474.233" y2="740.000" stroke="#8fb3da" stroke-width="0.8" opacity="0.95"/>
<line x1="485.302" y1="910.000" x2="485.302" y2="740.000" stroke="#8fb3da" stroke-width="0.8" opacity="0.95"/>
<line x1="496.372" y1="910.000" x2="496.372" y2="740.000" stroke="#8fb3da" stroke-width="0.8" opacity="0.95"/>
<line x1="507.442" y1="910.000" x2="507.442" y2="740.000" stroke="#8fb3da" stroke-width="0.8" opacity="0.95"/>
<line x1="518.512" y1="910.000" x2="518.512" y2="740.000" stroke="#8fb3da" stroke-width="0.8" opacity="0.95"/>
<line x1="529.581" y1="910.000" x2="529.581" y2="740.000" stroke="#8fb3da" stroke-width="0.8" opacity="0.95"/>
<line x1="540.651" y1="910.000" x2="540.651" y2="740.000" stroke="#8fb3da" stroke-width="0.8" opacity="0.95"/>
<line x1="551.721" y1="910.000" x2="551.721" y2="740.000" stroke="#8fb3da" stroke-width="0.8" opacity="0.95"/>
<line x1="562.791" y1="910.000" x2="562.791" y2="740.000" stroke="#8fb3da" stroke-width="0.8" opacity="0.95"/>
<line x1="574.651" y1="910.000" x2="574.651" y2="740.000" stroke="#8fb3da" stroke-width="0.8" opacity="0.95"/>
<line x1="586.512" y1="910.000" x2="586.512" y2="740.000" stroke="#8fb3da" stroke-width="0.8" opacity="0.95"/>
<line x1="598.372" y1="910.000" x2="598.372" y2="740.000" stroke="#8fb3da" stroke-width="0.8" opacity="0.95"/>
<line x1="610.233" y1="910.000" x2="610.233" y2="740.000" stroke="#8fb3da" stroke-width="0.8" opacity="0.95"/>
<line x1="622.093" y1="910.000" x2="622.093" y2="740.000" stroke="#8fb3da" stroke-width="0.8" opacity="0.95"/>
<line x1="633.953" y1="910.000" x2="633.953" y2="740.000" stroke="#8fb3da" stroke-width="0.8" opacity="0.95"/>
<line x1="645.814" y1="910.000" x2="645.814" y2="740.000" stroke="#8fb3da" stroke-width="0.8" opacity="0.95"/>
<line x1="657.674" y1="910.000" x2="657.674" y2="740.000" stroke="#8fb3da" stroke-width="0.8" opacity="0.95"/>
<line x1="669.535" y1="910.000" x2="669.535" y2="740.000" stroke="#8fb3da" stroke-width="0.8" opacity="0.95"/>
<line x1="681.395" y1="910.000" x2="681.395" y2="740.000" stroke="#8fb3da" stroke-width="0.8" opacity="0.95"/>
<line x1="693.256" y1="910.000" x2="693.256" y2="740.000" stroke="#8fb3da" stroke-width="0.8" opacity="0.95"/>
<line x1="705.116" y1="910.000" x2="705.116" y2="740.000" stroke="#8fb3da" stroke-width="0.8" opacity="0.95"/>
<line x1="716.977" y1="910.000" x2="716.977" y2="740.000" stroke="#8fb3da" stroke-width="0.8" opacity="0.95"/>
<line x1="728.837" y1="910.000" x2="728.837" y2="740.000" stroke="#8fb3da" stroke-width="0.8" opacity="0.95"/>
<line x1="740.698" y1="910.000" x2="740.698" y2="740.000" stroke="#8fb3da" stroke-width="0.8" opacity="0.95"/>
<line x1="752.558" y1="910.000" x2="752.558" y2="740.000" stroke="#8fb3da" stroke-width="0.8" opacity="0.95"/>
<line x1="764.419" y1="910.000" x2="764.419" y2="740.000" stroke="#8fb3da" stroke-width="0.8" opacity="0.95"/>
<line x1="776.279" y1="910.000" x2="776.279" y2="740.000" stroke="#8fb3da" stroke-width="0.8" opacity="0.95"/>
<line x1="788.140" y1="910.000" x2="788.140" y2="740.000" stroke="#8fb3da" stroke-width="0.8" opacity="0.95"/>
<line x1="800.000" y1="910.000" x2="800.000" y2="740.000" stroke="#2f6db2" stroke-width="1.5" opacity="0.95"/>
<line x1="811.860" y1="910.000" x2="811.860" y2="740.000" stroke="#8fb3da" stroke-width="0.8" opacity="0.95"/>
<line x1="823.721" y1="910.000" x2="823.721" y2="740.000" stroke="#8fb3da" stroke-width="0.8" opacity="0.95"/>
<line x1="835.581" y1="910.000" x2="835.581" y2="740.000" stroke="#8fb3da" stroke-width="0.8" opacity="0.95"/>
<line x1="847.442" y1="910.000" x2="847.442" y2="740.000" stroke="#8fb3da" stroke-width="0.8" opacity="0.95"/>
<line x1="859.302" y1="910.000" x2="859.302" y2="740.000" stroke="#8fb3da" stroke-width="0.8" opacity="0.95"/>
<line x1="871.163" y1="910.000" x2="871.163" y2="740.000" stroke="#8fb3da" stroke-width="0.8" opacity="0.95"/>
<line x1="883.023" y1="910.000" x2="883.023" y2="740.000" stroke="#8fb3da" stroke-width="0.8" opacity="0.95"/>
<line x1="894.884" y1="910.000" x2="894.884" y2="740.000" stroke="#8fb3da" stroke-width="0.8" opacity="0.95"/>
<line x1="906.744" y1="910.000" x2="906.744" y2="740.000" stroke="#8fb3da" stroke-width="0.8" opacity="0.95"/>
<line x1="918.605" y1="910.000" x2="918.605" y2="740.000" stroke="#8fb3da" stroke-width="0.8" opacity="0.95"/>
<line x1="930.465" y1="910.000" x2="930.465" y2="740.000" stroke="#8fb3da" stroke-width="0.8" opacity="0.95"/>
<line x1="942.326" y1="910.000" x2="942.326" y2="740.000" stroke="#8fb3da" stroke-width="0.8" opacity="0.95"/>
<line x1="954.186" y1="910.000" x2="954.186" y2="740.000" stroke="#8fb3da" stroke-width="0.8" opacity="0.95"/>
<line x1="966.047" y1="910.000" x2="966.047" y2="740.000" stroke="#8fb3da" stroke-width="0.8" opacity="0.95"/>
<line x1="977.907" y1="910.000" x2="977.907" y2="740.000" stroke="#8fb3da" stroke-width="0.8" opacity="0.95"/>
<line x1="989.767" y1="910.000" x2="989.767" y2="740.000" stroke="#8fb3da" stroke-width="0.8" opacity="0.95"/>
<line x1="1001.628" y1="910.000" x2="1001.628" y2="740.000" stroke="#8fb3da" stroke-width="0.8" opacity="0.95"/>
<line x1="1013.488" y1="910.000" x2="1013.488" y2="740.000" stroke="#8fb3da" stroke-width="0.8" opacity="0.95"/>
<line x1="1025.349" y1="910.000" x2="1025.349" y2="740.000" stroke="#8fb3da" stroke-width="0.8" opacity="0.95"/>
<line x1="1037.209" y1="910.000" x2="1037.209" y2="740.000" stroke="#8fb3da" stroke-width="0.8" opacity="0.95"/>
<line x1="1048.279" y1="910.000" x2="1048.279" y2="740.000" stroke="#8fb3da" stroke-width="0.8" opacity="0.95"/>
<line x1="1059.349" y1="910.000" x2="1059.349" y2="740.000" stroke="#8fb3da" stroke-width="0.8" opacity="0.95"/>
<line x1="1070.419" y1="910.000" x2="1070.419" y2="740.000" stroke="#8fb3da" stroke-width="0.8" opacity="0.95"/>
<line x1="1081.488" y1="910.000" x2="1081.488" y2="740.000" stroke="#8fb3da" stroke-width="0.8" opacity="0.95"/>
<line x1="1092.558" y1="910.000" x2="1092.558" y2="740.000" stroke="#8fb3da" stroke-width="0.8" opacity="0.95"/>
<line x1="1103.628" y1="910.000" x2="1103.628" y2="740.000" stroke="#8fb3da" stroke-width="0.8" opacity="0.95"/>
<line x1="1114.698" y1="910.000" x2="1114.698" y2="740.000" stroke="#8fb3da" stroke-width="0.8" opacity="0.95"/>
<line x1="1125.767" y1="910.000" x2="1125.767" y2="740.000" stroke="#8fb3da" stroke-width="0.8" opacity="0.95"/>
<line x1="1136.837" y1="910.000" x2="1136.837" y2="740.000" stroke="#8fb3da" stroke-width="0.8" opacity="0.95"/>
<line x1="1147.907" y1="910.000" x2="1147.907" y2="740.000" stroke="#8fb3da" stroke-width="0.8" opacity="0.95"/>
<line x1="1158.977" y1="910.000" x2="1158.977" y2="740.000" stroke="#8fb3da" stroke-width="0.8" opacity="0.95"/>
<line x1="1170.047" y1="910.000" x2="1170.047" y2="740.000" stroke="#8fb3da" stroke-width="0.8" opacity="0.95"/>
<line x1="1181.116" y1="910.000" x2="1181.116" y2="740.000" stroke="#8fb3da" stroke-width="0.8" opacity="0.95"/>
<line x1="1192.186" y1="910.000" x2="1192.186" y2="740.000" stroke="#8fb3da" stroke-width="0.8" opacity="0.95"/>
<line x1="1203.256" y1="910.000" x2="1203.256" y2="740.000" stroke="#8fb3da" stroke-width="0.8" opacity="0.95"/>
<line x1="1214.326" y1="910.000" x2="1214.326" y2="740.000" stroke="#8fb3da" stroke-width="0.8" opacity="0.95"/>
<line x1="1225.395" y1="910.000" x2="1225.395" y2="740.000" stroke="#8fb3da" stroke-width="0.8" opacity="0.95"/>
<line x1="1236.465" y1="910.000" x2="1236.465" y2="740.000" stroke="#8fb3da" stroke-width="0.8" opacity="0.95"/>
<line x1="1247.535" y1="910.000" x2="1247.535" y2="740.000" stroke="#8fb3da" stroke-width="0.8" opacity="0.95"/>
<line x1="1258.605" y1="910.000" x2="1258.605" y2="740.000" stroke="#8fb3da" stroke-width="0.8" opacity="0.95"/>
<line x1="1274.419" y1="910.000" x2="1274.419" y2="740.000" stroke="#8fb3da" stroke-width="0.8" opacity="0.95"/>
<line x1="1290.233" y1="910.000" x2="1290.233" y2="740.000" stroke="#8fb3da" stroke-width="0.8" opacity="0.95"/>
<line x1="1306.047" y1="910.000" x2="1306.047" y2="740.000" stroke="#8fb3da" stroke-width="0.8" opacity="0.95"/>
<line x1="1321.860" y1="910.000" x2="1321.860" y2="740.000" stroke="#8fb3da" stroke-width="0.8" opacity="0.95"/>
<line x1="1337.674" y1="910.000" x2="1337.674" y2="740.000" stroke="#8fb3da" stroke-width="0.8" opacity="0.95"/>
<line x1="1353.488" y1="910.000" x2="1353.488" y2="740.000" stroke="#8fb3da" stroke-width="0.8" opacity="0.95"/>
<line x1="1369.302" y1="910.000" x2="1369.302" y2="740.000" stroke="#8fb3da" stroke-width="0.8" opacity="0.95"/>
<line x1="1385.116" y1="910.000" x2="1385.116" y2="740.000" stroke="#8fb3da" stroke-width="0.8" opacity="0.95"/>
<line x1="1400.930" y1="910.000" x2="1400.930" y2="740.000" stroke="#8fb3da" stroke-width="0.8" opacity="0.95"/>
<line x1="1416.744" y1="910.000" x2="1416.744" y2="740.000" stroke="#8fb3da" stroke-width="0.8" opacity="0.95"/>
<line x1="1432.558" y1="910.000" x2="1432.558" y2="740.000" stroke="#8fb3da" stroke-width="0.8" opacity="0.95"/>
<line x1="1448.372" y1="910.000" x2="1448.372" y2="740.000" stroke="#8fb3da" stroke-width="0.8" opacity="0.95"/>
<line x1="1464.186" y1="910.000" x2="1464.186" y2="740.000" stroke="#8fb3da" stroke-width="0.8" opacity="0.95"/>
<line x1="1480.000" y1="910.000" x2="1480.000" y2="740.000" stroke="#8fb3da" stroke-width="0.8" opacity="0.95"/>
<line x1="120.000" y1="910.000" x2="1480.000" y2="910.000" stroke="#9adbb8" stroke-width="1.0" opacity="0.95"/>
<line x1="120.000" y1="867.500" x2="1480.000" y2="867.500" stroke="#9adbb8" stroke-width="1.0" opacity="0.95"/>
<line x1="120.000" y1="825.000" x2="1480.000" y2="825.000" stroke="#2ca25f" stroke-width="1.6" opacity="0.95"/>
<line x1="120.000" y1="782.500" x2="1480.000" y2="782.500" stroke="#9adbb8" stroke-width="1.0" opacity="0.95"/>
<line x1="120.000" y1="740.000" x2="1480.000" y2="740.000" stroke="#9adbb8" stroke-width="1.0" opacity="0.95"/>
<text x="1525.000" y="160.000" font-family="Arial, Helvetica, sans-serif" font-size="16" font-weight="normal" text-anchor="start" fill="#333">x stations: 109</text>
<text x="1525.000" y="184.000" font-family="Arial, Helvetica, sans-serif" font-size="16" font-weight="normal" text-anchor="start" fill="#333">x divisions: 108</text>
<text x="1525.000" y="208.000" font-family="Arial, Helvetica, sans-serif" font-size="16" font-weight="normal" text-anchor="start" fill="#333">width divisions: 12</text>
<text x="1525.000" y="232.000" font-family="Arial, Helvetica, sans-serif" font-size="16" font-weight="normal" text-anchor="start" fill="#333">thickness layers: 4</text>
<text x="1525.000" y="256.000" font-family="Arial, Helvetica, sans-serif" font-size="16" font-weight="normal" text-anchor="start" fill="#333">expected C3D8: 5184</text>
<text x="1525.000" y="280.000" font-family="Arial, Helvetica, sans-serif" font-size="16" font-weight="normal" text-anchor="start" fill="#333"></text>
<text x="1525.000" y="304.000" font-family="Arial, Helvetica, sans-serif" font-size="16" font-weight="normal" text-anchor="start" fill="#333">Blue: x station lines</text>
<text x="1525.000" y="328.000" font-family="Arial, Helvetica, sans-serif" font-size="16" font-weight="normal" text-anchor="start" fill="#333">Red: width/eta lines</text>
<text x="1525.000" y="352.000" font-family="Arial, Helvetica, sans-serif" font-size="16" font-weight="normal" text-anchor="start" fill="#333">Green: thickness planes</text>
</svg>