<svg xmlns="http://www.w3.org/2000/svg" width="1400" height="760" viewBox="0 0 1400 760">
<rect width="100%" height="100%" fill="#ffffff"/>
<text x="60" y="50" font-family="Arial, Helvetica, sans-serif" font-size="30" font-weight="bold" text-anchor="start" fill="#111">S355MC material curve preparation for CalculiX</text>
<text x="60" y="84" font-family="Arial, Helvetica, sans-serif" font-size="18" font-weight="normal" text-anchor="start" fill="#333">Engineering stress-strain curve converted to true stress / plastic strain</text>
<rect x="105" y="145" width="540" height="420" fill="#fbfbfb" stroke="#dddddd"/>
<text x="105" y="127" font-family="Arial, Helvetica, sans-serif" font-size="20" font-weight="bold" text-anchor="start" fill="#111">Input curve: engineering stress-strain</text>
<line x1="105.00" y1="145" x2="105.00" y2="565" stroke="#eeeeee"/>
<text x="105.0" y="591" font-family="Arial, Helvetica, sans-serif" font-size="13" font-weight="normal" text-anchor="middle" fill="#333">0</text>
<line x1="105" y1="565.00" x2="645" y2="565.00" stroke="#e6e6e6"/>
<text x="93" y="570.0" font-family="Arial, Helvetica, sans-serif" font-size="13" font-weight="normal" text-anchor="end" fill="#333">0</text>
<line x1="213.00" y1="145" x2="213.00" y2="565" stroke="#eeeeee"/>
<text x="213.0" y="591" font-family="Arial, Helvetica, sans-serif" font-size="13" font-weight="normal" text-anchor="middle" fill="#333">3.07</text>
<line x1="105" y1="481.00" x2="645" y2="481.00" stroke="#e6e6e6"/>
<text x="93" y="486.0" font-family="Arial, Helvetica, sans-serif" font-size="13" font-weight="normal" text-anchor="end" fill="#333">108</text>
<line x1="321.00" y1="145" x2="321.00" y2="565" stroke="#eeeeee"/>
<text x="321.0" y="591" font-family="Arial, Helvetica, sans-serif" font-size="13" font-weight="normal" text-anchor="middle" fill="#333">6.14</text>
<line x1="105" y1="397.00" x2="645" y2="397.00" stroke="#e6e6e6"/>
<text x="93" y="402.0" font-family="Arial, Helvetica, sans-serif" font-size="13" font-weight="normal" text-anchor="end" fill="#333">217</text>
<line x1="429.00" y1="145" x2="429.00" y2="565" stroke="#eeeeee"/>
<text x="429.00000000000006" y="591" font-family="Arial, Helvetica, sans-serif" font-size="13" font-weight="normal" text-anchor="middle" fill="#333">9.2</text>
<line x1="105" y1="313.00" x2="645" y2="313.00" stroke="#e6e6e6"/>
<text x="93" y="318.0" font-family="Arial, Helvetica, sans-serif" font-size="13" font-weight="normal" text-anchor="end" fill="#333">325</text>
<line x1="537.00" y1="145" x2="537.00" y2="565" stroke="#eeeeee"/>
<text x="537.0" y="591" font-family="Arial, Helvetica, sans-serif" font-size="13" font-weight="normal" text-anchor="middle" fill="#333">12.3</text>
<line x1="105" y1="229.00" x2="645" y2="229.00" stroke="#e6e6e6"/>
<text x="93" y="234.0" font-family="Arial, Helvetica, sans-serif" font-size="13" font-weight="normal" text-anchor="end" fill="#333">434</text>
<line x1="645.00" y1="145" x2="645.00" y2="565" stroke="#eeeeee"/>
<text x="645.0" y="591" font-family="Arial, Helvetica, sans-serif" font-size="13" font-weight="normal" text-anchor="middle" fill="#333">15.3</text>
<line x1="105" y1="145.00" x2="645" y2="145.00" stroke="#e6e6e6"/>
<text x="93" y="150.0" font-family="Arial, Helvetica, sans-serif" font-size="13" font-weight="normal" text-anchor="end" fill="#333">542</text>
<line x1="105" y1="565" x2="645" y2="565" stroke="#111" stroke-width="1.5"/>
<line x1="105" y1="145" x2="105" y2="565" stroke="#111" stroke-width="1.5"/>
<polyline points="105.21,557.26 105.57,541.81 105.58,541.34 105.60,540.42 105.62,539.48 105.62,539.03 105.64,538.58 105.66,537.64 105.67,537.20 105.68,536.73 105.69,536.27 105.70,535.82 105.71,535.37 105.72,534.92 105.73,534.47 105.74,534.02 105.76,533.57 105.76,533.12 105.77,532.65 105.78,532.19 105.79,531.74 105.80,531.30 105.81,530.84 105.83,530.40 105.83,529.96 105.84,529.50 105.85,529.05 105.86,528.60 105.88,528.14 105.89,527.25 105.90,526.79 105.92,526.36 105.92,525.92 105.93,525.47 105.95,525.02 105.96,524.59 105.98,523.68 105.99,522.79 106.00,522.34 106.01,521.90 106.03,521.46 106.04,521.01 106.05,520.58 106.06,520.14 106.07,519.25 106.09,518.82 106.10,517.93 106.12,517.50 106.13,517.05 106.13,516.61 106.14,516.18 106.16,515.30 106.17,514.88 106.18,514.44 106.19,514.00 106.20,513.57 106.20,513.13 106.21,512.68 106.23,512.26 106.24,511.83 106.25,511.38 106.26,510.96 106.27,510.54 106.28,510.10 106.29,509.68 106.31,509.25 106.32,508.82 106.33,508.38 106.34,507.97 106.34,507.53 106.36,507.11 106.36,506.69 106.38,506.26 106.40,505.42 106.41,504.99 106.43,504.57 106.43,503.73 106.44,503.31 106.45,502.89 106.46,502.48 106.48,502.06 106.49,501.66 106.50,501.24 106.50,500.83 106.51,500.41 106.52,500.01 106.54,499.59 106.55,499.19 106.56,498.78 106.57,498.38 106.57,497.97 106.58,497.57 106.59,497.15 106.61,496.75 106.62,495.94 106.63,495.54 106.64,495.15 106.64,494.74 106.65,494.35 106.67,493.95 106.68,493.15 106.69,492.77 106.70,492.38 106.71,491.98 106.71,491.59 106.72,491.20 106.73,490.80 106.74,490.41 106.75,490.02 106.76,489.62 106.77,489.22 106.78,488.84 106.80,488.44 106.80,488.04 106.82,487.24 106.83,486.81 106.84,486.39 106.85,485.94 106.87,485.47 106.87,485.00 106.88,484.50 106.90,483.98 106.92,483.45 106.94,482.33 106.94,481.76 106.97,481.17 107.00,479.92 107.01,479.28 107.01,478.63 107.03,477.94 107.05,477.25 107.07,476.55 107.08,475.82 107.11,475.08 107.13,474.33 107.15,473.56 107.16,472.77 107.19,471.96 107.21,471.14 107.24,470.31 107.25,469.46 107.27,468.61 107.30,467.74 107.31,466.85 107.34,465.95 107.37,465.03 107.38,464.08 107.41,463.14 107.44,462.18 107.45,461.21 107.48,460.22 107.50,459.21 107.52,458.19 107.55,457.15 107.58,456.09 107.59,455.04 107.62,453.96 107.66,452.87 107.68,451.77 107.70,450.67 107.74,449.54 107.76,448.42 107.79,447.27 107.82,446.11 107.84,444.93 107.87,443.75 107.89,442.54 107.93,441.34 107.96,440.13 107.99,438.89 108.01,437.64 108.05,436.40 108.10,435.13 108.12,433.86 108.16,432.57 108.19,431.28 108.21,429.96 108.25,428.63 108.28,427.29 108.33,425.94 108.35,424.57 108.39,423.20 108.43,421.82 108.45,420.42 108.49,419.02 108.53,417.60 108.56,416.18 108.60,414.73 108.63,413.29 108.67,411.83 108.71,410.36 108.75,408.88 108.79,407.40 108.83,405.91 108.86,404.41 108.90,402.91 108.94,401.40 108.98,399.89 109.03,398.35 109.08,396.82 109.13,395.26 109.16,393.70 109.20,392.15 109.25,390.60 109.29,389.05 109.33,387.52 109.37,386.00 109.42,384.47 109.45,382.96 109.50,381.45 109.55,379.95 109.58,378.46 109.62,376.98 109.70,375.51 109.76,372.58 109.79,371.11 109.83,369.66 109.88,368.19 109.95,366.75 109.98,365.32 110.02,363.89 110.05,362.46 110.10,361.05 110.16,359.64 110.17,358.24 110.23,356.85 110.29,355.46 110.30,354.08 110.36,352.71 110.41,351.34 110.45,349.98 110.49,348.63 110.54,347.27 110.56,345.92 110.62,344.59 110.67,343.23 110.70,341.89 110.77,340.56 110.83,339.25 110.85,337.93 110.90,336.64 110.96,335.35 110.98,334.05 111.03,332.76 111.10,331.50 111.15,330.23 111.17,328.98 111.23,327.74 111.28,326.51 111.33,325.29 111.36,324.07 111.41,322.86 111.47,321.66 111.52,320.47 111.57,319.28 111.62,318.12 111.69,316.97 111.72,315.84 111.80,314.71 111.85,313.58 111.88,312.48 111.94,311.38 112.01,310.29 112.06,309.22 112.08,308.17 112.15,307.13 112.23,306.09 112.26,305.07 112.30,304.05 112.38,303.05 112.46,302.06 112.48,301.08 112.56,300.12 112.64,299.17 112.68,298.23 112.74,297.31 112.81,296.42 112.87,295.53 112.92,294.65 112.99,293.79 113.05,292.94 113.12,292.09 113.19,291.26 113.24,290.44 113.33,289.63 113.38,288.82 113.47,288.04 113.54,287.27 113.61,286.50 113.67,285.74 113.75,285.00 113.84,284.27 113.91,283.55 113.98,282.84 114.05,282.14 114.12,281.45 114.20,280.76 114.28,280.10 114.36,279.44 114.45,278.81 114.52,278.17 114.61,277.56 114.70,276.94 114.77,276.34 114.85,275.74 114.93,275.15 115.00,274.59 115.11,274.02 115.20,273.46 115.28,272.93 115.38,272.40 115.45,271.88 115.54,271.37 115.64,270.88 115.71,270.39 115.79,269.90 115.87,269.42 115.97,268.96 116.10,268.50 116.17,268.04 116.27,267.60 116.35,267.16 116.41,266.73 116.53,266.31 116.65,265.90 116.72,265.50 116.80,265.11 116.92,264.72 117.03,264.34 117.11,263.97 117.21,263.60 117.31,263.25 117.39,262.90 117.50,262.56 117.62,262.22 117.71,261.90 117.82,261.58 117.94,261.27 118.01,260.96 118.14,260.66 118.24,260.35 118.33,260.06 118.45,259.77 118.55,259.49 118.66,259.23 118.80,258.96 118.90,258.71 119.01,258.45 119.10,258.20 119.21,257.96 119.34,257.73 119.47,257.51 119.58,257.29 119.61,257.09 119.77,256.89 119.93,256.69 120.01,256.51 120.14,256.32 120.25,256.13 120.35,255.97 120.49,255.81 120.61,255.63 120.76,255.50 120.86,255.35 121.02,255.21 121.11,255.08 121.25,254.96 121.39,254.85 121.51,254.73 121.62,254.63 121.74,254.54 121.90,254.45 122.03,254.37 122.17,254.29 122.31,254.21 122.42,254.14 122.57,254.08 122.71,254.02 122.82,253.96 122.95,253.93 123.09,253.89 123.25,253.86 123.41,253.84 123.52,253.82 123.66,253.80 123.80,253.79 123.97,253.78 124.12,253.77 124.22,253.77 124.34,253.78 124.49,253.78 124.66,253.77 124.80,253.76 124.95,253.75 125.13,253.73 125.29,253.72 125.42,253.72 125.62,253.71 125.79,253.70 125.92,253.68 126.09,253.68 126.28,253.67 126.44,253.67 126.63,253.67 126.81,253.67 126.97,253.68 127.16,253.69 127.33,253.69 127.55,253.70 127.74,253.70 127.92,253.68 128.09,253.68 128.29,253.68 128.49,253.68 128.68,253.68 128.87,253.69 129.05,253.69 129.26,253.68 129.46,253.68 129.66,253.68 129.89,253.67 130.10,253.67 130.32,253.67 130.51,253.66 130.70,253.65 130.91,253.64 131.12,253.63 131.32,253.62 131.54,253.61 131.78,253.60 132.00,253.59 132.18,253.57 132.39,253.56 132.60,253.55 132.82,253.53 133.04,253.51 133.27,253.49 133.49,253.46 133.72,253.44 133.95,253.41 134.17,253.38 134.41,253.35 134.65,253.33 134.86,253.29 135.06,253.26 135.27,253.24 135.54,253.21 135.77,253.19 136.00,253.16 136.26,253.14 136.49,253.11 136.71,253.07 136.92,253.04 137.16,253.01 137.39,252.97 137.64,252.94 137.88,252.90 138.13,252.86 138.33,252.82 138.57,252.78 138.81,252.73 139.03,252.68 139.27,252.63 139.51,252.58 139.78,252.52 140.00,252.47 140.20,252.43 140.43,252.37 140.65,252.32 140.85,252.26 141.07,252.19 141.33,252.12 141.57,252.06 141.80,251.99 142.00,251.92 142.21,251.85 142.47,251.78 142.69,251.70 142.89,251.63 143.11,251.56 143.32,251.48 143.54,251.41 143.77,251.34 144.00,251.26 144.26,251.18 144.46,251.10 144.64,251.00 144.85,250.92 145.08,250.83 145.32,250.73 145.52,250.63 145.71,250.53 145.96,250.43 146.18,250.32 146.38,250.21 146.60,250.11 146.83,250.01 147.04,249.90 147.23,249.78 147.46,249.67 147.70,249.55 147.90,249.43 148.11,249.30 148.35,249.17 148.57,249.06 148.77,248.92 149.00,248.79 149.24,248.67 149.49,248.54 149.71,248.41 149.93,248.28 150.13,248.15 150.40,248.03 150.63,247.90 150.82,247.76 151.07,247.64 151.32,247.50 151.56,247.36 151.79,247.22 152.03,247.07 152.29,246.93 152.54,246.79 152.77,246.65 153.02,246.51 153.26,246.39 153.50,246.25 153.74,246.11 154.00,245.97 154.27,245.82 154.53,245.67 154.76,245.52 155.03,245.36 155.29,245.22 155.54,245.08 155.80,244.92 156.07,244.78 156.34,244.64 156.64,244.49 156.87,244.34 157.13,244.19 157.41,244.05 157.68,243.91 157.97,243.75 158.26,243.60 158.51,243.45 158.78,243.30 159.03,243.16 159.31,243.01 159.60,242.86 159.87,242.71 160.18,242.55 160.45,242.38 160.74,242.23 161.05,242.06 161.31,241.90 161.58,241.73 161.89,241.58 162.22,241.43 162.52,241.28 162.82,241.12 163.10,240.97 163.39,240.82 163.69,240.65 163.99,240.51 164.31,240.36 164.63,240.21 164.89,240.03 165.18,239.88 165.50,239.73 165.83,239.56 166.13,239.42 166.45,239.27 166.78,239.10 167.07,238.92 167.38,238.77 167.70,238.60 168.05,238.43 168.37,238.28 168.65,238.13 168.98,237.97 169.31,237.81 169.61,237.66 169.93,237.50 170.27,237.34 170.63,237.19 170.93,237.04 171.25,236.88 171.62,236.72 171.94,236.56 172.28,236.40 172.63,236.24 172.97,236.07 173.29,235.92 173.58,235.75 173.90,235.59 174.26,235.42 174.60,235.26 174.94,235.10 175.28,234.95 175.64,234.78 176.02,234.62 176.38,234.46 176.72,234.30 177.07,234.14 177.43,233.99 177.78,233.84 178.07,233.67 178.39,233.52 178.78,233.36 179.17,233.19 179.57,233.03 179.91,232.88 180.27,232.72 180.58,232.55 180.91,232.39 181.30,232.23 181.70,232.06 182.08,231.91 182.42,231.75 182.76,231.59 183.13,231.44 183.48,231.29 183.87,231.12 184.31,230.97 184.67,230.81 184.99,230.63 185.35,230.48 185.76,230.34 186.12,230.18 186.49,230.02 186.90,229.88 187.28,229.71 187.63,229.55 188.03,229.39 188.44,229.22 188.77,229.06 189.18,228.90 189.59,228.74 189.96,228.59 190.33,228.44 190.74,228.28 191.16,228.13 191.52,227.97 191.90,227.81 192.30,227.66 192.70,227.52 193.09,227.34 193.50,227.19 193.91,227.04 194.33,226.87 194.70,226.71 195.07,226.55 195.48,226.40 195.88,226.24 196.28,226.07 196.70,225.92 197.13,225.78 197.53,225.61 197.94,225.47 198.32,225.33 198.73,225.17 199.16,225.02 199.57,224.88 199.99,224.72 200.44,224.56 200.85,224.41 201.23,224.25 201.66,224.08 202.07,223.92 202.49,223.78 202.93,223.61 203.32,223.47 203.73,223.33 204.21,223.17 204.63,223.02 205.04,222.88 205.45,222.71 205.89,222.57 206.33,222.43 206.75,222.27 207.16,222.12 207.59,221.97 208.06,221.81 208.53,221.64 208.95,221.50 209.40,221.35 209.86,221.20 210.28,221.06 210.71,220.92 211.17,220.77 211.59,220.63 212.04,220.47 212.49,220.32 212.94,220.18 213.37,220.01 213.83,219.86 214.29,219.71 214.76,219.56 215.20,219.41 215.64,219.26 216.08,219.12 216.56,218.96 217.01,218.82 217.48,218.67 217.92,218.52 218.37,218.38 218.84,218.25 219.32,218.10 219.75,217.96 220.21,217.82 220.69,217.66 221.18,217.51 221.65,217.36 222.11,217.21 222.57,217.05 223.03,216.91 223.54,216.78 224.01,216.63 224.49,216.50 224.96,216.38 225.42,216.23 225.89,216.09 226.41,215.95 226.92,215.81 227.40,215.66 227.89,215.51 228.34,215.37 228.82,215.22 229.31,215.07 229.79,214.92 230.27,214.79 230.80,214.66 231.29,214.52 231.74,214.39 232.25,214.26 232.75,214.11 233.24,213.98 233.76,213.84 234.26,213.70 234.74,213.55 235.23,213.42 235.73,213.27 236.24,213.13 236.78,212.99 237.29,212.86 237.80,212.72 238.29,212.59 238.78,212.46 239.30,212.32 239.81,212.20 240.33,212.06 240.83,211.94 241.35,211.80 241.84,211.67 242.33,211.54 242.89,211.40 243.42,211.26 243.94,211.14 244.46,211.02 244.98,210.89 245.47,210.79 245.96,210.66 246.49,210.54 247.01,210.43 247.55,210.31 248.07,210.18 248.55,210.05 249.05,209.93 249.57,209.79 250.09,209.67 250.62,209.54 251.17,209.43 251.68,209.31 252.17,209.20 252.69,209.09 253.18,208.97 253.69,208.86 254.25,208.75 254.74,208.62 255.25,208.49 255.78,208.39 256.30,208.25 256.82,208.13 257.34,208.02 257.85,207.91 258.35,207.80 258.90,207.71 259.42,207.60 259.92,207.48 260.43,207.38 260.91,207.27 261.45,207.15 261.98,207.04 262.49,206.93 263.02,206.82 263.53,206.69 264.02,206.59 264.53,206.48 265.07,206.38 265.62,206.27 266.12,206.18 266.65,206.07 267.17,205.98 267.67,205.87 268.18,205.77 268.71,205.66 269.22,205.55 269.73,205.44 270.27,205.33 270.78,205.23 271.29,205.12 271.82,205.02 272.35,204.92 272.88,204.83 273.39,204.72 273.87,204.63 274.36,204.52 274.91,204.42 275.44,204.33 275.96,204.23 276.51,204.13 277.01,204.03 277.54,203.93 278.06,203.83 278.57,203.74 279.10,203.64 279.64,203.55 280.14,203.45 280.66,203.35 281.19,203.27 281.70,203.17 282.22,203.08 282.75,202.99 283.26,202.89 283.77,202.79 284.30,202.69 284.83,202.60 285.38,202.49 285.91,202.41 286.41,202.33 286.91,202.25 287.43,202.15 287.98,202.08 288.51,201.98 289.04,201.89 289.54,201.81 290.05,201.71 290.57,201.63 291.10,201.53 291.63,201.44 292.15,201.35 292.64,201.26 293.12,201.17 293.63,201.09 294.20,201.01 294.77,200.92 295.34,200.85 295.85,200.77 296.30,200.69 296.81,200.59 297.37,200.51 297.93,200.41 298.50,200.33 299.00,200.24 299.46,200.15 300.01,200.08 300.56,200.01 301.07,199.93 301.63,199.85 302.14,199.78 302.63,199.70 303.17,199.62 303.69,199.53 304.18,199.45 304.74,199.36 305.29,199.26 305.82,199.18 306.35,199.10 306.84,199.04 307.35,198.96 307.90,198.90 308.42,198.82 308.94,198.75 309.48,198.68 310.00,198.60 310.52,198.52 311.07,198.44 311.58,198.37 312.07,198.28 312.62,198.21 313.16,198.12 313.72,198.06 314.26,197.99 314.76,197.92 315.28,197.85 315.80,197.78 316.32,197.71 316.87,197.63 317.38,197.55 317.91,197.47 318.46,197.41 318.97,197.32 319.49,197.26 320.04,197.19 320.57,197.13 321.09,197.06 321.63,197.00 322.15,196.93 322.69,196.86 323.23,196.79 323.74,196.72 324.26,196.65 324.80,196.58 325.32,196.51 325.85,196.45 326.39,196.37 326.91,196.29 327.44,196.22 327.97,196.15 328.51,196.09 329.04,196.04 329.56,195.98 330.09,195.91 330.61,195.85 331.15,195.79 331.70,195.72 332.24,195.65 332.75,195.58 333.26,195.52 333.82,195.45 334.36,195.38 334.88,195.33 335.43,195.27 335.95,195.21 336.47,195.16 337.01,195.09 337.52,195.03 338.05,194.97 338.59,194.90 339.11,194.83 339.65,194.78 340.21,194.70 340.74,194.64 341.27,194.57 341.80,194.51 342.33,194.46 342.86,194.41 343.40,194.36 343.93,194.31 344.49,194.26 345.02,194.20 345.54,194.15 346.06,194.08 346.59,194.01 347.12,193.95 347.69,193.88 348.21,193.82 348.75,193.75 349.31,193.70 349.84,193.65 350.37,193.61 350.89,193.54 351.41,193.50 351.93,193.45 352.50,193.39 353.03,193.33 353.58,193.28 354.12,193.22 354.65,193.15 355.18,193.11 355.73,193.05 356.27,193.00 356.80,192.95 357.35,192.91 357.88,192.86 358.41,192.80 358.94,192.76 359.47,192.70 360.03,192.64 360.54,192.57 361.09,192.53 361.65,192.48 362.18,192.42 362.72,192.36 363.27,192.31 363.79,192.26 364.33,192.21 364.87,192.17 365.40,192.12 365.95,192.08 366.52,192.03 367.05,191.97 367.57,191.92 368.12,191.88 368.67,191.83 369.20,191.78 369.73,191.73 370.25,191.67 370.80,191.62 371.37,191.57 371.91,191.53 372.44,191.48 372.99,191.43 373.52,191.40 374.07,191.35 374.62,191.30 375.16,191.24 375.70,191.20 376.24,191.14 376.78,191.09 377.32,191.05 377.88,191.01 378.42,190.97 378.95,190.93 379.50,190.89 380.05,190.84 380.59,190.79 381.13,190.75 381.67,190.71 382.20,190.66 382.74,190.62 383.28,190.57 383.86,190.52 384.39,190.47 384.95,190.42 385.48,190.38 386.01,190.35 386.56,190.31 387.12,190.27 387.68,190.24 388.19,190.20 388.77,190.15 389.28,190.11 389.79,190.06 390.35,190.02 390.94,189.97 391.53,189.93 392.08,189.87 392.58,189.85 393.12,189.80 393.68,189.77 394.22,189.73 394.77,189.69 395.31,189.65 395.86,189.61 396.42,189.57 396.98,189.52 397.52,189.49 398.08,189.43 398.63,189.41 399.17,189.36 399.73,189.33 400.26,189.30 400.81,189.27 401.37,189.22 401.90,189.19 402.45,189.16 403.02,189.11 403.57,189.08 404.10,189.04 404.64,189.00 405.19,188.95 405.75,188.90 406.32,188.88 406.87,188.83 407.42,188.80 407.97,188.77 408.52,188.75 409.05,188.71 409.61,188.68 410.17,188.64 410.72,188.60 411.26,188.57 411.81,188.52 412.38,188.49 412.94,188.44 413.50,188.41 414.05,188.36 414.59,188.34 415.14,188.30 415.72,188.28 416.28,188.24 416.82,188.21 417.35,188.18 417.91,188.15 418.48,188.11 419.04,188.07 419.59,188.04 420.15,188.00 420.70,187.96 421.24,187.94 421.80,187.90 422.36,187.87 422.92,187.84 423.46,187.82 424.03,187.78 424.61,187.76 425.15,187.73 425.68,187.70 426.25,187.66 426.78,187.62 427.34,187.60 427.93,187.56 428.49,187.53 429.06,187.48 429.61,187.46 430.16,187.42 430.73,187.41 431.27,187.39 431.82,187.37 432.40,187.34 432.95,187.32 433.49,187.28 434.08,187.24 434.63,187.22 435.19,187.17 435.73,187.14 436.31,187.10 436.88,187.08 437.46,187.04 438.05,187.03 438.60,187.00 439.13,186.97 439.68,186.95 440.26,186.92 440.81,186.89 441.36,186.85 441.92,186.83 442.50,186.79 443.07,186.76 443.64,186.73 444.19,186.71 444.74,186.69 445.31,186.67 445.89,186.65 446.47,186.62 447.03,186.60 447.59,186.56 448.16,186.54 448.70,186.52 449.25,186.49 449.81,186.45 450.40,186.43 450.99,186.40 451.55,186.36 452.11,186.35 452.71,186.32 453.28,186.30 453.82,186.28 454.38,186.26 454.93,186.24 455.50,186.21 456.07,186.20 456.64,186.17 457.20,186.15 457.75,186.11 458.34,186.08 458.91,186.05 459.49,186.03 460.07,186.00 460.67,185.99 461.20,185.97 461.76,185.95 462.32,185.93 462.89,185.91 463.45,185.89 464.02,185.85 464.58,185.82 465.17,185.79 465.77,185.76 466.34,185.74 466.92,185.73 467.48,185.71 468.06,185.69 468.63,185.69 469.19,185.66 469.76,185.65 470.31,185.62 470.87,185.60 471.45,185.57 472.07,185.54 472.61,185.52 473.16,185.48 473.74,185.47 474.35,185.44 474.94,185.43 475.49,185.41 476.05,185.41 476.62,185.38 477.19,185.37 477.76,185.35 478.35,185.33 478.91,185.31 479.49,185.28 480.07,185.27 480.64,185.23 481.22,185.22 481.81,185.19 482.39,185.16 482.97,185.15 483.55,185.14 484.13,185.12 484.73,185.10 485.30,185.09 485.86,185.07 486.42,185.06 487.00,185.03 487.57,185.02 488.15,185.00 488.74,184.97 489.34,184.94 489.91,184.92 490.50,184.92 491.10,184.91 491.67,184.91 492.23,184.89 492.82,184.88 493.38,184.86 493.97,184.83 494.55,184.81 495.12,184.79 495.70,184.78 496.29,184.75 496.86,184.74 497.46,184.71 498.07,184.70 498.64,184.69 499.22,184.69 499.76,184.67 500.31,184.65 500.97,184.64 501.60,184.61 502.10,184.60 502.65,184.56 503.24,184.56 503.86,184.53 504.49,184.51 505.04,184.49 505.60,184.48 506.20,184.47 506.80,184.47 507.38,184.47 507.99,184.45 508.56,184.44 509.15,184.42 509.74,184.41 510.32,184.38 510.92,184.37 511.52,184.34 512.13,184.33 512.70,184.31 513.28,184.30 513.86,184.30 514.47,184.29 515.07,184.28 515.63,184.27 516.20,184.26 516.78,184.24 517.37,184.23 517.96,184.22 518.57,184.20 519.15,184.18 519.73,184.16 520.34,184.15 520.96,184.12 521.55,184.12 522.13,184.11 522.71,184.11 523.29,184.10 523.90,184.09 524.49,184.07 525.07,184.06 525.69,184.04 526.29,184.03 526.87,184.02 527.48,184.00 528.06,183.98 528.64,183.98 529.23,183.97 529.83,183.96 530.45,183.95 531.04,183.95 531.65,183.94 532.25,183.93 532.83,183.92 533.41,183.91 534.01,183.88 534.60,183.87 535.19,183.87 535.77,183.84 536.38,183.83 537.02,183.82 537.64,183.82 538.23,183.81 538.83,183.81 539.41,183.81 540.01,183.80 540.61,183.79 541.20,183.78 541.79,183.77 542.41,183.76 543.02,183.75 543.62,183.73 544.20,183.72 544.81,183.70 545.41,183.70 546.01,183.69 546.61,183.70 547.22,183.69 547.83,183.68 548.43,183.68 549.03,183.67 549.62,183.66 550.24,183.64 550.87,183.64 551.45,183.62 552.05,183.61 552.64,183.60 553.26,183.59 553.87,183.59 554.47,183.58 555.07,183.57 555.68,183.56 556.29,183.57 556.92,183.55 557.54,183.56 558.15,183.54 558.76,183.54 559.36,183.53 559.97,183.52 560.56,183.51 561.16,183.51 561.77,183.50 562.40,183.49 563.04,183.50 563.63,183.49 564.21,183.49 564.81,183.49 565.42,183.48 566.03,183.46 566.64,183.45 567.24,183.45 567.88,183.43 568.48,183.42 569.10,183.40 569.75,183.41 570.37,183.40 571.01,183.41 571.61,183.41 572.22,183.40 572.83,183.39 573.43,183.39 574.05,183.39 574.67,183.37 575.26,183.37 575.89,183.37 576.53,183.35 577.13,183.35 577.76,183.34 578.37,183.34 578.99,183.34 579.61,183.35 580.25,183.33 580.86,183.33 581.44,183.33 582.07,183.33 582.71,183.32 583.34,183.31 583.94,183.31 584.57,183.30 585.20,183.30 585.82,183.28 586.46,183.29 587.09,183.28 587.69,183.29 588.28,183.29 588.92,183.29 589.57,183.29 590.19,183.29 590.79,183.29 591.41,183.28 592.03,183.27 592.68,183.26 593.31,183.26 593.93,183.24 594.55,183.24 595.17,183.24 595.82,183.25 596.45,183.24 597.08,183.24 597.70,183.25 598.34,183.24 598.97,183.24 599.59,183.24 600.22,183.24 600.87,183.23 601.48,183.22 602.12,183.22 602.76,183.21 603.39,183.22 604.02,183.22 604.64,183.23 605.27,183.22 605.91,183.22 606.55,183.22 607.18,183.22 607.79,183.21 608.44,183.21 609.07,183.21 609.71,183.20 610.34,183.20 610.97,183.20 611.59,183.20 612.25,183.20 612.91,183.21 613.54,183.20 614.16,183.20 614.78,183.21 615.44,183.21 616.09,183.22 616.73,183.21 617.38,183.21 618.02,183.20 618.65,183.20 619.29,183.18" fill="none" stroke="#1f5fbf" stroke-width="3"/>
<circle cx="619.29" cy="183.18" r="5.5" fill="#cc3333"/>
<text x="375.0" y="623" font-family="Arial, Helvetica, sans-serif" font-size="15" font-weight="normal" text-anchor="middle" fill="#111">Engineering strain [%]</text>
<text x="33" y="355.0" font-family="Arial, Helvetica, sans-serif" font-size="15" fill="#111" text-anchor="middle" transform="rotate(-90 33 355.0)">Engineering stress [MPa]</text>
<rect x="805" y="145" width="500" height="420" fill="#fbfbfb" stroke="#dddddd"/>
<text x="805" y="127" font-family="Arial, Helvetica, sans-serif" font-size="20" font-weight="bold" text-anchor="start" fill="#111">CalculiX input: true stress / plastic strain</text>
<line x1="805.00" y1="145" x2="805.00" y2="565" stroke="#eeeeee"/>
<text x="805.0" y="591" font-family="Arial, Helvetica, sans-serif" font-size="13" font-weight="normal" text-anchor="middle" fill="#333">0</text>
<line x1="805" y1="565.00" x2="1305" y2="565.00" stroke="#e6e6e6"/>
<text x="793" y="570.0" font-family="Arial, Helvetica, sans-serif" font-size="13" font-weight="normal" text-anchor="end" fill="#333">0</text>
<line x1="905.00" y1="145" x2="905.00" y2="565" stroke="#eeeeee"/>
<text x="905.0" y="591" font-family="Arial, Helvetica, sans-serif" font-size="13" font-weight="normal" text-anchor="middle" fill="#333">0.0281</text>
<line x1="805" y1="481.00" x2="1305" y2="481.00" stroke="#e6e6e6"/>
<text x="793" y="486.0" font-family="Arial, Helvetica, sans-serif" font-size="13" font-weight="normal" text-anchor="end" fill="#333">124</text>
<line x1="1005.00" y1="145" x2="1005.00" y2="565" stroke="#eeeeee"/>
<text x="1005.0" y="591" font-family="Arial, Helvetica, sans-serif" font-size="13" font-weight="normal" text-anchor="middle" fill="#333">0.0561</text>
<line x1="805" y1="397.00" x2="1305" y2="397.00" stroke="#e6e6e6"/>
<text x="793" y="402.0" font-family="Arial, Helvetica, sans-serif" font-size="13" font-weight="normal" text-anchor="end" fill="#333">249</text>
<line x1="1105.00" y1="145" x2="1105.00" y2="565" stroke="#eeeeee"/>
<text x="1105.0" y="591" font-family="Arial, Helvetica, sans-serif" font-size="13" font-weight="normal" text-anchor="middle" fill="#333">0.0842</text>
<line x1="805" y1="313.00" x2="1305" y2="313.00" stroke="#e6e6e6"/>
<text x="793" y="318.0" font-family="Arial, Helvetica, sans-serif" font-size="13" font-weight="normal" text-anchor="end" fill="#333">373</text>
<line x1="1205.00" y1="145" x2="1205.00" y2="565" stroke="#eeeeee"/>
<text x="1205.0" y="591" font-family="Arial, Helvetica, sans-serif" font-size="13" font-weight="normal" text-anchor="middle" fill="#333">0.112</text>
<line x1="805" y1="229.00" x2="1305" y2="229.00" stroke="#e6e6e6"/>
<text x="793" y="234.0" font-family="Arial, Helvetica, sans-serif" font-size="13" font-weight="normal" text-anchor="end" fill="#333">497</text>
<line x1="1305.00" y1="145" x2="1305.00" y2="565" stroke="#eeeeee"/>
<text x="1305.0" y="591" font-family="Arial, Helvetica, sans-serif" font-size="13" font-weight="normal" text-anchor="middle" fill="#333">0.14</text>
<line x1="805" y1="145.00" x2="1305" y2="145.00" stroke="#e6e6e6"/>
<text x="793" y="150.0" font-family="Arial, Helvetica, sans-serif" font-size="13" font-weight="normal" text-anchor="end" fill="#333">622</text>
<line x1="805" y1="565" x2="1305" y2="565" stroke="#111" stroke-width="1.5"/>
<line x1="805" y1="145" x2="805" y2="565" stroke="#111" stroke-width="1.5"/>
<polyline points="805.00,325.14 808.12,315.76 809.20,308.03 810.33,302.46 811.76,297.92 813.30,294.85 815.07,292.82 816.98,292.03 819.24,291.76 822.02,291.54 824.89,291.26 828.20,290.72 831.47,290.09 834.89,289.12 837.94,287.94 840.96,286.42 844.27,284.47 847.68,282.46 851.60,280.18 855.53,277.93 859.99,275.47 864.46,273.15 869.12,270.75 874.34,268.17 879.42,265.80 885.09,263.20 890.58,260.78 896.73,258.17 902.64,255.77 908.77,253.34 915.56,250.77 922.13,248.39 929.39,245.87 936.33,243.61 943.76,241.28 950.74,239.19 957.70,237.17 965.16,235.07 972.16,233.19 979.63,231.24 986.66,229.45 994.17,227.61 1001.16,225.96 1008.67,224.25 1015.70,222.68 1022.74,221.18 1030.27,219.61 1037.32,218.17 1044.90,216.67 1052.01,215.30 1059.61,213.86 1066.69,212.57 1073.79,211.30 1081.50,209.95 1088.64,208.73 1096.31,207.45 1103.50,206.28 1111.23,205.05 1118.49,203.92 1125.72,202.82 1133.50,201.67 1140.78,200.60 1148.61,199.47 1155.94,198.44 1163.83,197.35 1171.23,196.34 1178.66,195.33 1186.62,194.31 1194.08,193.34 1202.10,192.34 1209.64,191.41 1217.71,190.43 1225.29,189.53 1232.89,188.64 1241.14,187.67 1248.84,186.78 1257.11,185.85 1264.94,184.97 1273.30,184.05 1281.19,183.18" fill="none" stroke="#26843a" stroke-width="3"/>
<circle cx="1281.19" cy="183.18" r="5.5" fill="#cc3333"/>
<text x="1055.0" y="623" font-family="Arial, Helvetica, sans-serif" font-size="15" font-weight="normal" text-anchor="middle" fill="#111">Plastic strain [-]</text>
<text x="733" y="355.0" font-family="Arial, Helvetica, sans-serif" font-size="15" fill="#111" text-anchor="middle" transform="rotate(-90 733 355.0)">True stress [MPa]</text>
<rect x="105" y="625" width="1200" height="82" rx="12" fill="#ffffff" stroke="#cccccc"/>
<text x="127" y="657" font-family="Arial, Helvetica, sans-serif" font-size="17" font-weight="bold" text-anchor="start" fill="#111">Summary</text>
<text x="127" y="685" font-family="Arial, Helvetica, sans-serif" font-size="15" font-weight="normal" text-anchor="start" fill="#333">Engineering UTS ≈ 493.1 MPa at 14.61 % engineering strain</text>
<text x="715" y="685" font-family="Arial, Helvetica, sans-serif" font-size="15" font-weight="normal" text-anchor="start" fill="#333">Last CCX plastic point: 565.1 MPa at εpl = 0.1337</text>
<text x="60" y="740" font-family="Arial, Helvetica, sans-serif" font-size="14" font-weight="normal" text-anchor="start" fill="#666">Curve is trimmed at engineering UTS to avoid using post-necking engineering data directly as homogeneous plastic material data.</text>
</svg>