<svg xmlns="http://www.w3.org/2000/svg" width="1200" height="675" viewBox="0 0 1200 675">
<rect width="1200" height="675" fill="#ffffff"/>
<text x="70" y="85" font-family="Arial, Helvetica, sans-serif" font-size="38" font-weight="bold" text-anchor="start" fill="#111111">CalculiX 2.23 Docker FEM Lab</text>
<text x="70" y="125" font-family="Arial, Helvetica, sans-serif" font-size="25" font-weight="normal" text-anchor="start" fill="#111111">Lab 001 — Cantilever shell benchmark</text>
<rect x="70" y="170" width="720" height="410" rx="18" fill="#f7f7f7" stroke="#d0d0d0"/>
<text x="105" y="220" font-family="Arial, Helvetica, sans-serif" font-size="28" font-weight="bold" text-anchor="start" fill="#111111">Model</text>
<rect x="95" y="285" width="25" height="185" fill="#444444"/>
<line x1="95" y1="295" x2="70" y2="313" stroke="#444444" stroke-width="3"/>
<line x1="95" y1="319" x2="70" y2="337" stroke="#444444" stroke-width="3"/>
<line x1="95" y1="343" x2="70" y2="361" stroke="#444444" stroke-width="3"/>
<line x1="95" y1="367" x2="70" y2="385" stroke="#444444" stroke-width="3"/>
<line x1="95" y1="391" x2="70" y2="409" stroke="#444444" stroke-width="3"/>
<line x1="95" y1="415" x2="70" y2="433" stroke="#444444" stroke-width="3"/>
<line x1="95" y1="439" x2="70" y2="457" stroke="#444444" stroke-width="3"/>
<line x1="95" y1="463" x2="70" y2="481" stroke="#444444" stroke-width="3"/>
<rect x="120" y="335.0" width="620" height="70" fill="none" stroke="#222222" stroke-width="4"/>
<text x="430.0" y="305" font-family="Arial, Helvetica, sans-serif" font-size="22" font-weight="normal" text-anchor="middle" fill="#111111">L = 1000 mm</text>
<text x="140" y="440" font-family="Arial, Helvetica, sans-serif" font-size="20" font-weight="normal" text-anchor="start" fill="#111111">clamped</text>
<text x="710" y="440" font-family="Arial, Helvetica, sans-serif" font-size="20" font-weight="normal" text-anchor="end" fill="#111111">F = 1000 N</text>
<line x1="722" y1="300" x2="722" y2="355" stroke="#111111" stroke-width="5"/>
<polygon points="712,355 732,355 722,375" fill="#111111"/>
<line x1="758" y1="300" x2="758" y2="355" stroke="#111111" stroke-width="5"/>
<polygon points="748,355 768,355 758,375" fill="#111111"/>
<path d="M 120 370 C 240 375, 380 393, 540 425 C 540 425, 660 460, 740 465" fill="none" stroke="#555555" stroke-width="5" stroke-dasharray="10 8"/>
<text x="480" y="500" font-family="Arial, Helvetica, sans-serif" font-size="20" font-weight="normal" text-anchor="middle" fill="#111111">deformed shape, schematic</text>
<rect x="830" y="170" width="300" height="410" rx="18" fill="#f7f7f7" stroke="#d0d0d0"/>
<text x="865" y="220" font-family="Arial, Helvetica, sans-serif" font-size="28" font-weight="bold" text-anchor="start" fill="#111111">Result</text>
<text x="865" y="285" font-family="Arial, Helvetica, sans-serif" font-size="22" font-weight="bold" text-anchor="start" fill="#111111">Analytical</text>
<text x="865" y="320" font-family="Arial, Helvetica, sans-serif" font-size="30" font-weight="normal" text-anchor="start" fill="#111111">2.816901 mm</text>
<text x="865" y="390" font-family="Arial, Helvetica, sans-serif" font-size="22" font-weight="bold" text-anchor="start" fill="#111111">CalculiX</text>
<text x="865" y="425" font-family="Arial, Helvetica, sans-serif" font-size="30" font-weight="normal" text-anchor="start" fill="#111111">2.830381 mm</text>
<text x="865" y="495" font-family="Arial, Helvetica, sans-serif" font-size="22" font-weight="bold" text-anchor="start" fill="#111111">Relative error</text>
<text x="865" y="530" font-family="Arial, Helvetica, sans-serif" font-size="34" font-weight="bold" text-anchor="start" fill="#111111">0.479 %</text>
<text x="70" y="635" font-family="Arial, Helvetica, sans-serif" font-size="22" font-weight="normal" text-anchor="start" fill="#111111">Workflow: Python input generation → CCX in Docker → Python .dat postprocessing</text>
</svg>